<svg xmlns="http://www.w3.org/2000/svg" xmlns:xlink="http://www.w3.org/1999/xlink" width="103" height="103" viewBox="0 0 103 103">
  <defs>
    <filter id="Trazado_978624" x="0" y="0" width="103" height="103" filterUnits="userSpaceOnUse">
      <feOffset dy="3" input="SourceAlpha"/>
      <feGaussianBlur stdDeviation="3" result="blur"/>
      <feFlood flood-opacity="0.161"/>
      <feComposite operator="in" in2="blur"/>
      <feComposite in="SourceGraphic"/>
    </filter>
  </defs>
  <g id="Grupo_1145547" data-name="Grupo 1145547" transform="translate(-202 -2957)">
    <g transform="matrix(1, 0, 0, 1, 202, 2957)" filter="url(#Trazado_978624)">
      <g id="Trazado_978624-2" data-name="Trazado 978624" transform="translate(9 6)" fill="#f5e9a1">
        <path d="M 42.5 83.5 C 36.96437835693359 83.5 31.59512901306152 82.41617584228516 26.54141235351562 80.27863311767578 C 21.65934181213379 78.21369171142578 17.27447128295898 75.25723266601562 13.50862312316895 71.49137878417969 C 9.742764472961426 67.72553253173828 6.786305904388428 63.34066009521484 4.721364498138428 58.45858764648438 C 2.583823442459106 53.40486907958984 1.5 48.03562164306641 1.5 42.5 C 1.5 36.96437835693359 2.583823442459106 31.59512901306152 4.721364498138428 26.54141235351562 C 6.786305904388428 21.65934181213379 9.742764472961426 17.27447128295898 13.50862312316895 13.50862312316895 C 17.27447128295898 9.742764472961426 21.65934181213379 6.786305904388428 26.54141235351562 4.721364498138428 C 31.59512901306152 2.583823442459106 36.96437835693359 1.5 42.5 1.5 C 48.03562164306641 1.5 53.40486907958984 2.583823442459106 58.45858764648438 4.721364498138428 C 63.34066009521484 6.786305904388428 67.72553253173828 9.742764472961426 71.49137878417969 13.50862312316895 C 75.25723266601562 17.27447128295898 78.21369171142578 21.65934181213379 80.27863311767578 26.54141235351562 C 82.41617584228516 31.59512901306152 83.5 36.96437835693359 83.5 42.5 C 83.5 48.03562164306641 82.41617584228516 53.40486907958984 80.27863311767578 58.45858764648438 C 78.21369171142578 63.34066009521484 75.25723266601562 67.72553253173828 71.49137878417969 71.49137878417969 C 67.72553253173828 75.25723266601562 63.34066009521484 78.21369171142578 58.45858764648438 80.27863311767578 C 53.40486907958984 82.41617584228516 48.03562164306641 83.5 42.5 83.5 Z" stroke="none"/>
        <path d="M 42.5 3 C 37.16621398925781 3 31.99356079101562 4.043960571289062 27.125732421875 6.102882385253906 C 22.42246627807617 8.092185974121094 18.19785308837891 10.94070434570312 14.56928253173828 14.56928253173828 C 10.94070434570312 18.19785308837891 8.092185974121094 22.42246627807617 6.102882385253906 27.125732421875 C 4.043960571289062 31.99356079101562 3 37.16621398925781 3 42.5 C 3 47.83378601074219 4.043960571289062 53.00643920898438 6.102882385253906 57.87425231933594 C 8.092185974121094 62.57753372192383 10.94070434570312 66.80213165283203 14.56928253173828 70.43071746826172 C 18.19786834716797 74.05929565429688 22.42246627807617 76.90781402587891 27.125732421875 78.89711761474609 C 31.99356079101562 80.95603942871094 37.16621398925781 82 42.5 82 C 47.83378601074219 82 53.00642395019531 80.95603942871094 57.87425231933594 78.89711761474609 C 62.57753372192383 76.90781402587891 66.80213165283203 74.05929565429688 70.43071746826172 70.43071746826172 C 74.05929565429688 66.80213165283203 76.90781402587891 62.57753372192383 78.89711761474609 57.87425231933594 C 80.95603942871094 53.00642395019531 82 47.83378601074219 82 42.5 C 82 37.16621398925781 80.95603942871094 31.99356079101562 78.89711761474609 27.125732421875 C 76.90781402587891 22.42246627807617 74.05929565429688 18.19786834716797 70.43071746826172 14.56928253173828 C 66.80213165283203 10.94070434570312 62.57753372192383 8.092185974121094 57.87425231933594 6.102882385253906 C 53.00643920898438 4.043960571289062 47.83378601074219 3 42.5 3 M 42.5 0 C 65.97209167480469 0 85 19.02789306640625 85 42.5 C 85 65.97209167480469 65.97209167480469 85 42.5 85 C 19.02789306640625 85 0 65.97209167480469 0 42.5 C 0 19.02789306640625 19.02789306640625 0 42.5 0 Z" stroke="none" fill="#bcac89"/>
      </g>
    </g>
    <g id="palacio-de-justicia" transform="translate(225.682 2975.043)">
      <g id="Grupo_1145545" data-name="Grupo 1145545" transform="translate(0.816 0.813)">
        <g id="Grupo_1145541" data-name="Grupo 1145541" transform="translate(0.195 18.322)">
          <g id="Grupo_1145539" data-name="Grupo 1145539" transform="translate(4.36)">
            <g id="Grupo_1145534" data-name="Grupo 1145534">
              <g id="Grupo_1145533" data-name="Grupo 1145533" transform="translate(1.325 4.193)">
                <path id="Trazado_979628" data-name="Trazado 979628" d="M71.317,236.253H62.011l.92-22.024H70.4Z" transform="translate(-62.011 -214.229)" fill="#ffd597"/>
                <path id="Trazado_979629" data-name="Trazado 979629" d="M77.93,236.251l-.919-22.024H69.544l-.112,2.675H72.9a1.525,1.525,0,0,1,1.523,1.461l.746,17.888Z" transform="translate(-68.624 -214.227)" fill="#fcc16d"/>
              </g>
              <path id="Trazado_979630" data-name="Trazado 979630" d="M71.854,180.133H65.1a1.054,1.054,0,0,1-1.054-1.054v-2.3a1.054,1.054,0,0,1,1.054-1.054h6.755a1.054,1.054,0,0,1,1.054,1.054v2.3A1.054,1.054,0,0,1,71.854,180.133Z" transform="translate(-62.499 -175.721)" fill="#fb9927"/>
              <path id="Trazado_979631" data-name="Trazado 979631" d="M72.907,178.222v-1.447a1.054,1.054,0,0,0-1.054-1.054H65.1a1.054,1.054,0,0,0-1.054,1.054v1.447Z" transform="translate(-62.498 -175.721)" fill="#f98824"/>
              <path id="Trazado_979632" data-name="Trazado 979632" d="M60.747,409.044H50.9a1.054,1.054,0,0,1-1.054-1.054v-2.3a1.054,1.054,0,0,1,1.054-1.054h9.847a1.054,1.054,0,0,1,1.054,1.054v2.3A1.054,1.054,0,0,1,60.747,409.044Z" transform="translate(-49.846 -379.705)" fill="#fee7c9"/>
              <path id="Trazado_979633" data-name="Trazado 979633" d="M128.619,405.682v2.3a1.054,1.054,0,0,1-1.054,1.054h-2.736a1.054,1.054,0,0,0,1.054-1.054v-2.3a1.055,1.055,0,0,0-1.054-1.055h2.736A1.055,1.055,0,0,1,128.619,405.682Z" transform="translate(-116.663 -379.701)" fill="#ffd597"/>
            </g>
            <g id="Grupo_1145536" data-name="Grupo 1145536" transform="translate(16.468)">
              <g id="Grupo_1145535" data-name="Grupo 1145535" transform="translate(1.325 4.193)">
                <path id="Trazado_979634" data-name="Trazado 979634" d="M222.553,236.253h-9.306l.92-22.024h7.467Z" transform="translate(-213.247 -214.229)" fill="#ffd597"/>
                <path id="Trazado_979635" data-name="Trazado 979635" d="M229.166,236.251l-.92-22.024H220.78l-.112,2.675h3.471a1.524,1.524,0,0,1,1.523,1.461l.747,17.888Z" transform="translate(-219.86 -214.227)" fill="#fcc16d"/>
              </g>
              <path id="Trazado_979636" data-name="Trazado 979636" d="M223.09,180.133h-6.755a1.054,1.054,0,0,1-1.054-1.054v-2.3a1.054,1.054,0,0,1,1.054-1.054h6.755a1.054,1.054,0,0,1,1.054,1.054v2.3A1.054,1.054,0,0,1,223.09,180.133Z" transform="translate(-213.735 -175.721)" fill="#fb9927"/>
              <path id="Trazado_979637" data-name="Trazado 979637" d="M224.143,178.222v-1.447a1.054,1.054,0,0,0-1.054-1.054h-6.755a1.054,1.054,0,0,0-1.054,1.054v1.447Z" transform="translate(-213.734 -175.721)" fill="#f98824"/>
              <path id="Trazado_979638" data-name="Trazado 979638" d="M211.983,409.044h-9.847a1.054,1.054,0,0,1-1.054-1.054v-2.3a1.054,1.054,0,0,1,1.054-1.054h9.847a1.054,1.054,0,0,1,1.054,1.054v2.3A1.054,1.054,0,0,1,211.983,409.044Z" transform="translate(-201.082 -379.705)" fill="#fee7c9"/>
              <path id="Trazado_979639" data-name="Trazado 979639" d="M279.859,405.682v2.3a1.054,1.054,0,0,1-1.054,1.054h-2.737a1.054,1.054,0,0,0,1.054-1.054v-2.3a1.055,1.055,0,0,0-1.054-1.055H278.8A1.055,1.055,0,0,1,279.859,405.682Z" transform="translate(-267.903 -379.701)" fill="#ffd597"/>
            </g>
            <g id="Grupo_1145538" data-name="Grupo 1145538" transform="translate(32.937)">
              <g id="Grupo_1145537" data-name="Grupo 1145537" transform="translate(1.325 4.193)">
                <path id="Trazado_979640" data-name="Trazado 979640" d="M373.789,236.253h-9.306l.92-22.024h7.467Z" transform="translate(-364.483 -214.229)" fill="#ffd597"/>
                <path id="Trazado_979641" data-name="Trazado 979641" d="M380.4,236.251l-.92-22.024h-7.467L371.9,216.9h3.472a1.525,1.525,0,0,1,1.523,1.461l.746,17.888Z" transform="translate(-371.096 -214.227)" fill="#fcc16d"/>
              </g>
              <path id="Trazado_979642" data-name="Trazado 979642" d="M374.326,180.133h-6.755a1.054,1.054,0,0,1-1.054-1.054v-2.3a1.054,1.054,0,0,1,1.054-1.054h6.755a1.054,1.054,0,0,1,1.054,1.054v2.3A1.054,1.054,0,0,1,374.326,180.133Z" transform="translate(-364.971 -175.721)" fill="#fb9927"/>
              <path id="Trazado_979643" data-name="Trazado 979643" d="M375.38,178.222v-1.447a1.054,1.054,0,0,0-1.054-1.054h-6.755a1.054,1.054,0,0,0-1.054,1.054v1.447Z" transform="translate(-364.971 -175.721)" fill="#f98824"/>
              <path id="Trazado_979644" data-name="Trazado 979644" d="M363.219,409.044h-9.847a1.054,1.054,0,0,1-1.054-1.054v-2.3a1.054,1.054,0,0,1,1.054-1.054h9.847a1.054,1.054,0,0,1,1.054,1.054v2.3A1.054,1.054,0,0,1,363.219,409.044Z" transform="translate(-352.318 -379.705)" fill="#fee7c9"/>
              <path id="Trazado_979645" data-name="Trazado 979645" d="M431.089,405.682v2.3a1.054,1.054,0,0,1-1.054,1.054H427.3a1.054,1.054,0,0,0,1.054-1.054v-2.3a1.055,1.055,0,0,0-1.054-1.055h2.736A1.054,1.054,0,0,1,431.089,405.682Z" transform="translate(-419.133 -379.701)" fill="#ffd597"/>
            </g>
          </g>
          <path id="Trazado_979646" data-name="Trazado 979646" d="M78.148,436.736H28.636v-2.405a1.054,1.054,0,0,1,1.054-1.054h47.4a1.054,1.054,0,0,1,1.054,1.054v2.405Z" transform="translate(-26.585 -405.231)" fill="#fb9927"/>
          <path id="Trazado_979647" data-name="Trazado 979647" d="M451.006,434.331v2.405h-2.894v-2.405a1.054,1.054,0,0,0-1.054-1.054h2.894A1.054,1.054,0,0,1,451.006,434.331Z" transform="translate(-399.444 -405.231)" fill="#f98824"/>
          <g id="Grupo_1145540" data-name="Grupo 1145540" transform="translate(0 30.94)">
            <path id="Trazado_979648" data-name="Trazado 979648" d="M62.362,464.712H10.857A1.054,1.054,0,0,1,9.8,463.658v-2.75a1.054,1.054,0,0,1,1.054-1.054H62.362a1.054,1.054,0,0,1,1.054,1.054v2.75A1.054,1.054,0,0,1,62.362,464.712Z" transform="translate(-9.803 -459.854)" fill="#ffd597"/>
            <path id="Trazado_979649" data-name="Trazado 979649" d="M469.846,460.911v2.75a1.054,1.054,0,0,1-1.055,1.054H465.9a1.054,1.054,0,0,0,1.054-1.054v-2.75a1.054,1.054,0,0,0-1.054-1.054h2.893A1.054,1.054,0,0,1,469.846,460.911Z" transform="translate(-416.233 -459.857)" fill="#fcc16d"/>
          </g>
        </g>
        <g id="Grupo_1145542" data-name="Grupo 1145542" transform="translate(2.579 2.157)">
          <path id="Trazado_979650" data-name="Trazado 979650" d="M56.121,27.28,31.7,44.078H80.544Z" transform="translate(-31.699 -27.28)" fill="#ffd597"/>
          <path id="Trazado_979651" data-name="Trazado 979651" d="M80.543,44.076h-8.4L56.12,33.057,40.1,44.076H31.7l24.422-16.8Z" transform="translate(-31.698 -27.277)" fill="#fcc16d"/>
        </g>
        <g id="Grupo_1145543" data-name="Grupo 1145543">
          <path id="Trazado_979652" data-name="Trazado 979652" d="M59.105,28.812,35.017,12.243,10.928,28.812a1.079,1.079,0,0,1-1.5-.277L8.206,26.757a1.079,1.079,0,0,1,.277-1.5L33.794,7.847a2.157,2.157,0,0,1,2.445,0L61.55,25.257a1.079,1.079,0,0,1,.277,1.5l-1.223,1.778a1.079,1.079,0,0,1-1.5.278Z" transform="translate(-8.015 -7.467)" fill="#fee7c9"/>
        </g>
        <g id="Grupo_1145544" data-name="Grupo 1145544" transform="translate(48.733 16.213)">
          <path id="Trazado_979653" data-name="Trazado 979653" d="M460.628,159.433l-1.223,1.778a1.079,1.079,0,0,1-1.5.278l-2.356-1.62a1.093,1.093,0,0,0,1.337-.383l1.24-1.8a1.1,1.1,0,0,0-.066-1.326l2.291,1.577A1.078,1.078,0,0,1,460.628,159.433Z" transform="translate(-455.548 -156.357)" fill="#ffd597"/>
        </g>
      </g>
      <g id="Grupo_1145546" data-name="Grupo 1145546" transform="translate(0 0)">
        <path id="Trazado_979654" data-name="Trazado 979654" d="M54.092,49.258h-.18V48.235a1.873,1.873,0,0,0-1.871-1.871H51.6V45.116a1.872,1.872,0,0,0-1.41-1.811l-.809-19.377a1.867,1.867,0,0,0,.673-1.435v-.975l1.909,1.313a1.9,1.9,0,0,0,2.636-.488l1.223-1.778a1.9,1.9,0,0,0-.488-2.636L30.025.52a2.991,2.991,0,0,0-3.371,0L1.343,17.93a1.9,1.9,0,0,0-.488,2.636l1.223,1.778a1.883,1.883,0,0,0,1.217.79,1.911,1.911,0,0,0,.349.032,1.882,1.882,0,0,0,1.07-.334l1.909-1.313v.975A1.867,1.867,0,0,0,7.3,23.928L6.486,43.3a1.872,1.872,0,0,0-1.41,1.811v1.248H4.638a1.873,1.873,0,0,0-1.871,1.871v1.023h-.18A1.873,1.873,0,0,0,.716,51.129v2.75A1.873,1.873,0,0,0,2.587,55.75H54.092a1.873,1.873,0,0,0,1.871-1.871v-2.75a1.873,1.873,0,0,0-1.871-1.871ZM39.647,46.364V45.116a.238.238,0,0,1,.237-.237h9.847a.238.238,0,0,1,.237.237v1.248ZM15.486,22.493a.238.238,0,0,1-.237.237H8.494a.238.238,0,0,1-.237-.237V20.586h7.23Zm-.656,1.871.788,18.881H8.123l.789-18.881ZM17.256,43.3l-.809-19.377a1.867,1.867,0,0,0,.673-1.435V20.586h5.972v1.907a1.867,1.867,0,0,0,.673,1.435L22.955,43.3a1.872,1.872,0,0,0-1.41,1.811v1.248H18.666V45.116A1.873,1.873,0,0,0,17.256,43.3ZM25.38,24.364H31.3l.788,18.881h-7.5Zm6.574-1.871a.238.238,0,0,1-.237.237H24.962a.238.238,0,0,1-.237-.237V20.586h7.23ZM23.179,45.116a.238.238,0,0,1,.237-.237h9.847a.238.238,0,0,1,.237.237v1.248H23.179V45.116ZM33.724,43.3l-.809-19.377a1.867,1.867,0,0,0,.673-1.435V20.586H39.56v1.907a1.867,1.867,0,0,0,.673,1.435l-.123,2.939a.817.817,0,0,0,.782.85h.035a.817.817,0,0,0,.815-.783l.107-2.572h5.918l.789,18.881h-7.5l.52-12.455a.817.817,0,1,0-1.632-.068L39.423,43.3a1.872,1.872,0,0,0-1.41,1.811v1.248H35.134V45.116a1.872,1.872,0,0,0-1.41-1.811Zm14.7-20.812a.238.238,0,0,1-.237.237H41.431a.238.238,0,0,1-.237-.237V20.586h7.23ZM3.788,21.485a.262.262,0,0,1-.364-.067L2.2,19.64a.262.262,0,0,1,.067-.364L27.58,1.866a1.348,1.348,0,0,1,1.52,0l25.311,17.41a.262.262,0,0,1,.067.364l-1.223,1.777a.263.263,0,0,1-.365.068l-9.512-6.543a.817.817,0,1,0-.926,1.346l3.874,2.664H10.353L28.34,6.581l10.953,7.534a.817.817,0,1,0,.926-1.346L28.8,4.917a.817.817,0,0,0-.926,0ZM6.71,45.116a.238.238,0,0,1,.237-.237h9.847a.238.238,0,0,1,.237.237v1.248H6.71Zm47.62,8.763a.238.238,0,0,1-.237.237H2.587a.238.238,0,0,1-.237-.237v-2.75a.238.238,0,0,1,.237-.237H7.851a.817.817,0,1,0,0-1.633H4.4V48.235A.238.238,0,0,1,4.638,48h47.4a.238.238,0,0,1,.237.237v1.023H11.706a.817.817,0,1,0,0,1.633H54.092a.238.238,0,0,1,.237.237Z" transform="translate(-0.522 0)"/>
        <path id="Trazado_979655" data-name="Trazado 979655" d="M220.882,91.34h-.011V89.283A.816.816,0,0,0,220.4,87.8h-2.655a.816.816,0,0,0-1.632,0h-2.655a.816.816,0,0,0-.473,1.481V91.34h-.011a.817.817,0,0,0,0,1.633h1.656a.817.817,0,0,0,0-1.633h-.011v-1.9h1.494V93.45H215.2a.817.817,0,1,0,0,1.633h3.459a.817.817,0,0,0,0-1.633h-.913V89.435h1.494v1.9h-.011a.817.817,0,1,0,0,1.633h1.656a.817.817,0,0,0,0-1.633Z" transform="translate(-189.11 -77.525)"/>
      </g>
    </g>
  </g>
</svg>
