<svg xmlns="http://www.w3.org/2000/svg" xmlns:xlink="http://www.w3.org/1999/xlink" width="108" height="108" viewBox="0 0 108 108">
  <defs>
    <filter id="Trazado_982419" x="0" y="0" width="108" height="108" filterUnits="userSpaceOnUse">
      <feOffset dy="3" input="SourceAlpha"/>
      <feGaussianBlur stdDeviation="3" result="blur"/>
      <feFlood flood-opacity="0.161"/>
      <feComposite operator="in" in2="blur"/>
      <feComposite in="SourceGraphic"/>
    </filter>
    <clipPath id="clip-path">
      <rect id="Rect치ngulo_409120" data-name="Rect치ngulo 409120" width="62.126" height="58.611" fill="none"/>
    </clipPath>
  </defs>
  <g id="Grupo_1151479" data-name="Grupo 1151479" transform="translate(-186 -4545)">
    <g id="Grupo_1150937" data-name="Grupo 1150937" transform="translate(-420 1434.164)">
      <g id="Grupo_1150764" data-name="Grupo 1150764" transform="translate(393 2606.836)">
        <g id="Grupo_1148745" data-name="Grupo 1148745" transform="translate(12 182)">
          <g transform="matrix(1, 0, 0, 1, 201, 322)" filter="url(#Trazado_982419)">
            <g id="Trazado_982419-2" data-name="Trazado 982419" transform="translate(9 6)" fill="#fff8e4">
              <path d="M 45 88.5 C 39.12687683105469 88.5 33.43022537231445 87.35007476806641 28.06830024719238 85.08217620849609 C 22.88852500915527 82.89131164550781 18.23629951477051 79.75458526611328 14.2408504486084 75.75914764404297 C 10.24541282653809 71.76370239257812 7.108687400817871 67.11147308349609 4.917825222015381 61.93170166015625 C 2.649924993515015 56.56977462768555 1.5 50.87312316894531 1.5 45 C 1.5 39.12687683105469 2.649924993515015 33.43022537231445 4.917825222015381 28.06830024719238 C 7.108687400817871 22.88852500915527 10.24541282653809 18.23629951477051 14.2408504486084 14.2408504486084 C 18.23629951477051 10.24541282653809 22.88852500915527 7.108687400817871 28.06830024719238 4.917825222015381 C 33.43022537231445 2.649924993515015 39.12687683105469 1.5 45 1.5 C 50.87312316894531 1.5 56.56977462768555 2.649924993515015 61.93170166015625 4.917825222015381 C 67.11147308349609 7.108687400817871 71.76370239257812 10.24541282653809 75.75914764404297 14.2408504486084 C 79.75458526611328 18.23629951477051 82.89131164550781 22.88852500915527 85.08217620849609 28.06830024719238 C 87.35007476806641 33.43022537231445 88.5 39.12687683105469 88.5 45 C 88.5 50.87312316894531 87.35007476806641 56.56977462768555 85.08217620849609 61.93170166015625 C 82.89131164550781 67.11147308349609 79.75458526611328 71.76370239257812 75.75914764404297 75.75914764404297 C 71.76370239257812 79.75458526611328 67.11147308349609 82.89131164550781 61.93170166015625 85.08217620849609 C 56.56977462768555 87.35007476806641 50.87312316894531 88.5 45 88.5 Z" stroke="none"/>
              <path d="M 45 3 C 39.32871246337891 3 33.82865524291992 4.110054016113281 28.65262985229492 6.299339294433594 C 23.65165710449219 8.414573669433594 19.15968322753906 11.44334411621094 15.301513671875 15.301513671875 C 11.44334411621094 19.15968322753906 8.414573669433594 23.65165710449219 6.299339294433594 28.65262985229492 C 4.110054016113281 33.82865524291992 3 39.32871246337891 3 45 C 3 50.67128753662109 4.110054016113281 56.17134475708008 6.299339294433594 61.34737396240234 C 8.414573669433594 66.34834289550781 11.44334411621094 70.84031677246094 15.301513671875 74.698486328125 C 19.15968322753906 78.55665588378906 23.65165710449219 81.58542633056641 28.65262985229492 83.70066070556641 C 33.82865524291992 85.88994598388672 39.32871246337891 87 45 87 C 50.67128753662109 87 56.17134475708008 85.88994598388672 61.34737396240234 83.70066070556641 C 66.34834289550781 81.58542633056641 70.84031677246094 78.55665588378906 74.698486328125 74.698486328125 C 78.55665588378906 70.84031677246094 81.58542633056641 66.34834289550781 83.70066070556641 61.34737396240234 C 85.88994598388672 56.17134475708008 87 50.67128753662109 87 45 C 87 39.32871246337891 85.88994598388672 33.82865524291992 83.70066070556641 28.65262985229492 C 81.58542633056641 23.65165710449219 78.55665588378906 19.15968322753906 74.698486328125 15.301513671875 C 70.84031677246094 11.44334411621094 66.34834289550781 8.414573669433594 61.34737396240234 6.299339294433594 C 56.17134475708008 4.110054016113281 50.67128753662109 3 45 3 M 45 0 C 69.85281372070312 0 90 20.14718627929688 90 45 C 90 69.85281372070312 69.85281372070312 90 45 90 C 20.14718627929688 90 0 69.85281372070312 0 45 C 0 20.14718627929688 20.14718627929688 0 45 0 Z" stroke="none" fill="#ffc403"/>
            </g>
          </g>
        </g>
      </g>
    </g>
    <g id="Grupo_1150985" data-name="Grupo 1150985" transform="translate(204.634 4561.136)">
      <g id="Grupo_1150984" data-name="Grupo 1150984" transform="translate(4.303 4.059)" clip-path="url(#clip-path)">
        <path id="Trazado_990036" data-name="Trazado 990036" d="M21.351,13.134c2.637-.242,5.323-.355,7.927-.757L29.3,8.794C28.238,7.6,27.548,6.35,28.013,4.705A29.015,29.015,0,0,1,30.474.4,1,1,0,0,1,31.768.126a36.527,36.527,0,0,1,2.414,3.925c.846,1.932.261,3.272-1.054,4.742l.017,3.583a1.828,1.828,0,0,0,.639.169c5.2.512,11.032,1.258,16.193,1.47,1.048.043.9-.153,1.648-.409,2.188-.749,3.68,1.124,2.848,3.153,2.214,4.357,5.318,8.346,7.651,12.64.069,5.17-6.36,6.809-10.537,6.567-3.695-.214-9-2.19-8.6-6.7l7.5-12.006L33.411,18.794c-.148.1-.147.282-.145.445.07,6.747.442,13.569.6,20.322.035,1.468-.263,4.446.063,5.68a12.764,12.764,0,0,0,1.283,2.1A30.176,30.176,0,0,0,39.9,52.522c3.169.534,6.909-1.314,8.245,2.648.33.977,1.014,3.427-.661,3.326-8.121-.032-16.246.02-24.366-.007-2.513-.008-5.934.278-8.318,0-.273-.031-.684-.1-.783-.395a6.335,6.335,0,0,1,.45-3.33c1.342-2.959,3.907-2.089,6.591-2.168.939-.028,1.2.183,1.99-.439,1.241-.97,5.194-5.609,5.483-7.031a35.636,35.636,0,0,0,.027-4.685c.185-6.471.251-12.955.441-19.437a5.663,5.663,0,0,0,.089-2.139c-2.963-.484-6.048-.607-9.061-.874-2.743-.243-5.485-.614-8.241-.736L18.7,28.3c.067.437.466.672.553.992a4.338,4.338,0,0,1-.848,2.983C15.73,36.4,7.966,36.791,3.882,34.808,1.865,33.828-.2,31.832.016,29.412L7.789,16.778A2.184,2.184,0,0,1,10.5,13.606c.74.253.619.454,1.656.417,2.943-.107,6.221-.616,9.192-.889m10.006-10.6-.3.09c-.524,1.31-2.334,2.909-1.084,4.316a1.684,1.684,0,0,0,2.741-.329c.8-1.5-.918-2.743-1.356-4.077m.15,6.625h-.589V12.1h.589Zm-.625,4.6c-2.219.363-1.856,3.873.391,3.789,2.536-.1,2.336-4.235-.391-3.789m-2.908.411-15.158,1.47,15.159,1.325a3.713,3.713,0,0,1,0-2.8m21.341,1.326L34.451,14.165a5.129,5.129,0,0,1,.146,2.8ZM9.531,15.064a.541.541,0,1,0,.392,1c.521-.174.173-1.137-.392-1m42.62.17c-.548.547.451,1.17.78.706s-.3-1.184-.78-.706m7.615,13.508L53.127,18.082,52.2,17.7,45.341,28.743Zm-57.254,0H16.788L9.948,17.836l-.828.105Zm27.67,16.051h2.06L31.57,19.165l-.8.005c-.163,4.691-.305,9.371-.288,14.069ZM17.377,30.363H1.775c1.562,3.876,7.309,4.484,10.893,3.609,1.8-.439,4.37-1.633,4.709-3.609m42.977,0h-15.6c.922,3.123,5.612,4.122,8.47,3.983,2.508-.121,6.389-1.321,7.131-3.983M37.246,52.6c.064-.257-.106-.294-.22-.443-.837-1.093-1.919-2.089-2.781-3.255-.349-.472-1.239-2.119-1.486-2.342a8.36,8.36,0,0,0-3.021-.074,27.676,27.676,0,0,1-2.5,3.679c-.536.664-1.348,1.353-1.836,1.991-.113.149-.284.186-.22.443Zm9.567,4.27c-.01-.908-.725-2.487-1.7-2.642l-28.139.1a3.354,3.354,0,0,0-1.362,2.539Z" transform="translate(0 0)" fill="#070005"/>
        <path id="Trazado_990037" data-name="Trazado 990037" d="M90.253,207.77H59.05a3.354,3.354,0,0,1,1.362-2.539l28.139-.1c.976.155,1.691,1.734,1.7,2.642" transform="translate(-43.44 -150.902)" fill="#77c1d4"/>
        <path id="Trazado_990038" data-name="Trazado 990038" d="M184.89,114.857c-.743,2.662-4.624,3.862-7.131,3.983-2.858.139-7.548-.86-8.47-3.983Z" transform="translate(-124.537 -84.494)" fill="#fde275"/>
        <path id="Trazado_990039" data-name="Trazado 990039" d="M22.315,114.857c-.339,1.976-2.913,3.17-4.709,3.609-3.583.875-9.331.267-10.893-3.609Z" transform="translate(-4.939 -84.494)" fill="#fde275"/>
        <path id="Trazado_990040" data-name="Trazado 990040" d="M107.269,181.67H95.2c-.064-.257.106-.294.22-.443.488-.638,1.3-1.327,1.836-1.991a27.677,27.677,0,0,0,2.5-3.679,8.355,8.355,0,0,1,3.021.074c.248.223,1.137,1.87,1.486,2.342.862,1.166,1.945,2.161,2.781,3.255.114.149.284.186.22.443" transform="translate(-70.023 -129.072)" fill="#fefeff"/>
        <path id="Trazado_990041" data-name="Trazado 990041" d="M114.169,98.128l.3-11.553c-.018-4.7.125-9.378.288-14.069l.8-.005.672,25.628Z" transform="translate(-83.988 -53.334)" fill="#fefeff"/>
        <path id="Trazado_990042" data-name="Trazado 990042" d="M63.632,53.587a3.715,3.715,0,0,0,0,2.8L48.474,55.057Z" transform="translate(-35.66 -39.421)" fill="#fefeff"/>
        <path id="Trazado_990043" data-name="Trazado 990043" d="M145.183,54.913l-14.718,1.471a5.13,5.13,0,0,0-.146-2.8Z" transform="translate(-95.869 -39.421)" fill="#fefeff"/>
        <path id="Trazado_990044" data-name="Trazado 990044" d="M113.557,9.583c.438,1.334,2.157,2.575,1.356,4.077a1.684,1.684,0,0,1-2.741.329c-1.25-1.406.56-3.006,1.084-4.316Z" transform="translate(-82.201 -7.05)" fill="#77c1d4"/>
        <path id="Trazado_990045" data-name="Trazado 990045" d="M112.668,51.938c2.727-.447,2.927,3.693.391,3.789-2.248.085-2.61-3.425-.391-3.789" transform="translate(-81.787 -38.183)" fill="#f4a1a6"/>
        <rect id="Rect치ngulo_409119" data-name="Rect치ngulo 409119" width="0.589" height="2.945" transform="translate(30.917 9.158)" fill="#fefeff"/>
        <path id="Trazado_990046" data-name="Trazado 990046" d="M34.922,56.947c.565-.141.913.822.392,1a.541.541,0,1,1-.392-1" transform="translate(-25.391 -41.882)" fill="#fefeff"/>
        <path id="Trazado_990047" data-name="Trazado 990047" d="M196.826,57.2c.478-.478,1.1.251.78.706s-1.328-.158-.78-.706" transform="translate(-144.675 -41.961)" fill="#fefeff"/>
      </g>
    </g>
  </g>
</svg>
