<svg xmlns="http://www.w3.org/2000/svg" xmlns:xlink="http://www.w3.org/1999/xlink" width="903.166" height="317.503" viewBox="0 0 903.166 317.503">
  <defs>
    <clipPath id="clip-path">
      <rect id="Rectángulo_409836" data-name="Rectángulo 409836" width="903.166" height="206.755" fill="none"/>
    </clipPath>
    <clipPath id="clip-path-2">
      <path id="Trazado_1012745" data-name="Trazado 1012745" d="M62.315,29.866a87.987,87.987,0,0,0-42.87,74.525,86.894,86.894,0,0,0,3.4,25.412,88.2,88.2,0,0,0,84.759,63.765,88.094,88.094,0,1,0-45.29-163.7" transform="translate(-19.436 -17.381)" fill="none"/>
    </clipPath>
    <radialGradient id="radial-gradient" cx="0.499" cy="0.5" r="0.5" gradientTransform="matrix(0.996, 0, 0, -1, -0.001, 2)" gradientUnits="objectBoundingBox">
      <stop offset="0" stop-color="#fff"/>
      <stop offset="0.513" stop-color="#fdfdfd"/>
      <stop offset="0.699" stop-color="#f6f6f6"/>
      <stop offset="0.832" stop-color="#eaeaea"/>
      <stop offset="0.939" stop-color="#d9d9d9"/>
      <stop offset="1" stop-color="#ccc"/>
    </radialGradient>
    <clipPath id="clip-path-4">
      <path id="Trazado_1012748" data-name="Trazado 1012748" d="M247.466,29.866a87.987,87.987,0,0,0-42.87,74.525A86.951,86.951,0,0,0,208,129.8a88.2,88.2,0,0,0,84.761,63.765,88.094,88.094,0,1,0-45.29-163.7" transform="translate(-204.587 -17.381)" fill="none"/>
    </clipPath>
    <radialGradient id="radial-gradient-2" cx="0.499" r="0.5" gradientTransform="matrix(0.996, 0, 0, -1, -0.007, 2)" xlink:href="#radial-gradient"/>
    <clipPath id="clip-path-6">
      <path id="Trazado_1012751" data-name="Trazado 1012751" d="M432.617,29.866a87.993,87.993,0,0,0-42.872,74.525,86.956,86.956,0,0,0,3.4,25.412,88.21,88.21,0,0,0,84.761,63.765,88.094,88.094,0,1,0-45.29-163.7" transform="translate(-389.736 -17.381)" fill="none"/>
    </clipPath>
    <radialGradient id="radial-gradient-3" cx="0.499" r="0.5" gradientTransform="matrix(0.996, 0, 0, -1, -0.014, 2)" xlink:href="#radial-gradient"/>
    <clipPath id="clip-path-7">
      <rect id="Rectángulo_405855" data-name="Rectángulo 405855" width="82.392" height="82.389" fill="none"/>
    </clipPath>
  </defs>
  <g id="Grupo_1157260" data-name="Grupo 1157260" transform="translate(-348 -1149.25)">
    <g id="Grupo_1157259" data-name="Grupo 1157259">
      <g id="Grupo_1157247" data-name="Grupo 1157247" transform="translate(348 1149.25)">
        <g id="Grupo_1157236" data-name="Grupo 1157236" transform="translate(0 0)">
          <g id="Grupo_1157235" data-name="Grupo 1157235" clip-path="url(#clip-path)">
            <path id="Trazado_1012743" data-name="Trazado 1012743" d="M222.182,108.321a91.561,91.561,0,0,1-170.1,43.651,92.264,92.264,0,0,1-9.427-21.685,90.4,90.4,0,0,1-3.535-26.416,91.565,91.565,0,1,1,183.064,4.45" transform="translate(29.672 10.183)" fill="#fcee9a"/>
            <path id="Trazado_1012744" data-name="Trazado 1012744" d="M183.073,94.9a91.561,91.561,0,0,1-170.1,43.651,92.263,92.263,0,0,1-9.427-21.685A90.4,90.4,0,0,1,.009,90.45,91.565,91.565,0,1,1,183.073,94.9" transform="translate(0 0)" fill="#bcaf71"/>
          </g>
        </g>
        <g id="Grupo_1157238" data-name="Grupo 1157238" transform="translate(34.182 30.568)">
          <g id="Grupo_1157237" data-name="Grupo 1157237" clip-path="url(#clip-path-2)">
            <rect id="Rectángulo_409837" data-name="Rectángulo 409837" width="176.831" height="176.187" transform="translate(-0.111 0)" fill="url(#radial-gradient)"/>
          </g>
        </g>
        <g id="Grupo_1157240" data-name="Grupo 1157240" transform="translate(0 0)">
          <g id="Grupo_1157239" data-name="Grupo 1157239" clip-path="url(#clip-path)">
            <path id="Trazado_1012746" data-name="Trazado 1012746" d="M407.332,108.321a91.561,91.561,0,0,1-170.1,43.651,92.263,92.263,0,0,1-9.427-21.685,90.4,90.4,0,0,1-3.535-26.416,91.565,91.565,0,1,1,183.064,4.45" transform="translate(170.147 10.183)" fill="#cdc5ef"/>
            <path id="Trazado_1012747" data-name="Trazado 1012747" d="M368.223,94.9a91.561,91.561,0,0,1-170.1,43.651,92.263,92.263,0,0,1-9.427-21.685,90.4,90.4,0,0,1-3.535-26.416A91.565,91.565,0,1,1,368.223,94.9" transform="translate(140.474 0)" fill="#765b99"/>
          </g>
        </g>
        <g id="Grupo_1157242" data-name="Grupo 1157242" transform="translate(359.808 30.568)">
          <g id="Grupo_1157241" data-name="Grupo 1157241" clip-path="url(#clip-path-4)">
            <rect id="Rectángulo_409839" data-name="Rectángulo 409839" width="176.829" height="176.187" transform="translate(-0.111 0)" fill="url(#radial-gradient-2)"/>
          </g>
        </g>
        <g id="Grupo_1157244" data-name="Grupo 1157244" transform="translate(0 0)">
          <g id="Grupo_1157243" data-name="Grupo 1157243" clip-path="url(#clip-path)">
            <path id="Trazado_1012749" data-name="Trazado 1012749" d="M592.483,108.321a91.561,91.561,0,0,1-170.1,43.651,92.262,92.262,0,0,1-9.427-21.685,90.4,90.4,0,0,1-3.535-26.416,91.565,91.565,0,1,1,183.064,4.45" transform="translate(310.622 10.183)" fill="#95adf9"/>
            <path id="Trazado_1012750" data-name="Trazado 1012750" d="M553.374,94.9a91.561,91.561,0,0,1-170.1,43.651,92.269,92.269,0,0,1-9.428-21.685A90.4,90.4,0,0,1,370.31,90.45,91.565,91.565,0,1,1,553.374,94.9" transform="translate(280.95 0)" fill="#3559ef"/>
          </g>
        </g>
        <g id="Grupo_1157246" data-name="Grupo 1157246" transform="translate(685.431 30.568)">
          <g id="Grupo_1157245" data-name="Grupo 1157245" clip-path="url(#clip-path-6)">
            <rect id="Rectángulo_409841" data-name="Rectángulo 409841" width="176.829" height="176.187" transform="translate(-0.109 0)" fill="url(#radial-gradient-3)"/>
          </g>
        </g>
      </g>
      <g id="Grupo_9" data-name="Grupo 9" transform="translate(739.33 1214.437)">
        <g id="justice_3292568" transform="translate(16.405 15.405)">
          <path id="Trazado_978713" data-name="Trazado 978713" d="M436.654,294.5l-7.154,7.154h4.77a7.154,7.154,0,0,0,7.154-7.154Z" transform="translate(-361.217 -247.68)" fill="#ffbb6e"/>
          <path id="Trazado_978714" data-name="Trazado 978714" d="M341.2,294.5H316a7.154,7.154,0,0,0,7.154,7.154h10.89A7.154,7.154,0,0,0,341.2,294.5Z" transform="translate(-265.762 -247.68)" fill="#ffd478"/>
          <path id="Trazado_978715" data-name="Trazado 978715" d="M128.154,294.5,121,301.654h4.769a7.154,7.154,0,0,0,7.154-7.154Z" transform="translate(-101.763 -247.68)" fill="#ffbb6e"/>
          <path id="Trazado_978716" data-name="Trazado 978716" d="M32.7,294.5H7.5a7.154,7.154,0,0,0,7.154,7.154h10.89A7.154,7.154,0,0,0,32.7,294.5Z" transform="translate(-6.308 -247.68)" fill="#ffd478"/>
          <path id="Trazado_978717" data-name="Trazado 978717" d="M301,384.5h7.154v11.924H301Z" transform="translate(-253.146 -323.371)" fill="#ff8053"/>
          <path id="Trazado_978718" data-name="Trazado 978718" d="M166,384.5h23.847v11.924H166Z" transform="translate(-139.609 -323.371)" fill="#ffa061"/>
          <path id="Trazado_978719" data-name="Trazado 978719" d="M107.218,429.5H63.9l-3.447,5.17a4.456,4.456,0,0,1-3.707,1.984v2.385h60.488Z" transform="translate(-47.728 -361.217)" fill="#ffd478"/>
          <path id="Trazado_978720" data-name="Trazado 978720" d="M383.374,434.67l-3.447-5.17H374.2l3.447,5.17a4.456,4.456,0,0,0,3.707,1.984l2.866,2.385,2.866-2.385A4.456,4.456,0,0,1,383.374,434.67Z" transform="translate(-314.705 -361.217)" fill="#ffbb6e"/>
          <path id="Trazado_978721" data-name="Trazado 978721" d="M241,67.5h7.154V79.424H241Z" transform="translate(-202.685 -56.769)" fill="#ff8053"/>
          <path id="Trazado_978722" data-name="Trazado 978722" d="M226,67.5h4.769V79.424H226Z" transform="translate(-190.07 -56.769)" fill="#ffa061"/>
          <path id="Trazado_978723" data-name="Trazado 978723" d="M241,142.5h7.154v38.474H241Z" transform="translate(-202.685 -119.845)" fill="#ffe7ad"/>
          <path id="Trazado_978724" data-name="Trazado 978724" d="M226,142.5h4.769v38.474H226Z" transform="translate(-190.07 -119.845)" fill="#fff5de"/>
          <path id="Trazado_978725" data-name="Trazado 978725" d="M260.769,127.5H256v4.769h4.769a2.385,2.385,0,1,0,0-4.769Z" transform="translate(-215.301 -107.23)" fill="#ffbb6e"/>
          <path id="Trazado_978726" data-name="Trazado 978726" d="M220.539,129.885a2.385,2.385,0,0,0-2.385-2.385h-4.769a2.385,2.385,0,1,0,0,4.769h4.769A2.385,2.385,0,0,0,220.539,129.885Z" transform="translate(-177.455 -107.23)" fill="#ffd478"/>
          <path id="Trazado_978727" data-name="Trazado 978727" d="M320.769,369.5H316v4.769h4.769a2.385,2.385,0,1,0,0-4.769Z" transform="translate(-265.762 -310.756)" fill="#ffbb6e"/>
          <path id="Trazado_978728" data-name="Trazado 978728" d="M179.617,371.885a2.385,2.385,0,0,0-2.385-2.385H153.385a2.385,2.385,0,1,0,0,4.769h23.847A2.385,2.385,0,0,0,179.617,371.885Z" transform="translate(-126.994 -310.756)" fill="#ffd478"/>
          <path id="Trazado_978729" data-name="Trazado 978729" d="M385.019,37.5H380.25v4.769h4.769a2.385,2.385,0,1,0,0-4.769Z" transform="translate(-319.797 -31.538)" fill="#ffbb6e"/>
          <path id="Trazado_978730" data-name="Trazado 978730" d="M135.8,39.885a2.385,2.385,0,0,0-2.385-2.385H89.135a2.385,2.385,0,0,0,0,4.769h44.276A2.385,2.385,0,0,0,135.8,39.885Z" transform="translate(-72.958 -31.538)" fill="#ffd478"/>
          <path id="Trazado_978731" data-name="Trazado 978731" d="M430.019,474.5H425.25l4.769,4.769h4.769A4.769,4.769,0,0,0,430.019,474.5Z" transform="translate(-357.643 -399.063)" fill="#ffd478"/>
          <path id="Trazado_978732" data-name="Trazado 978732" d="M90.1,474.5H31.519a4.769,4.769,0,0,0-4.769,4.769H94.874A4.769,4.769,0,0,0,90.1,474.5Z" transform="translate(-22.497 -399.063)" fill="#ffe7ad"/>
          <circle id="Elipse_11622" data-name="Elipse 11622" cx="7.154" cy="7.154" r="7.154" transform="translate(33.545 1.192)" fill="#ffe7ad"/>
          <circle id="Elipse_11623" data-name="Elipse 11623" cx="2.385" cy="2.385" r="2.385" transform="translate(38.315 5.962)" fill="#ffd478"/>
          <circle id="Elipse_11624" data-name="Elipse 11624" cx="2.385" cy="2.385" r="2.385" transform="translate(13.792 10.731)" fill="#ffe7ad"/>
          <circle id="Elipse_11625" data-name="Elipse 11625" cx="2.385" cy="2.385" r="2.385" transform="translate(62.838 10.731)" fill="#ffe7ad"/>
          <path id="Trazado_978733" data-name="Trazado 978733" d="M49.046,46.82a8.356,8.356,0,0,0,8.347,8.347h15.66A8.356,8.356,0,0,0,81.4,46.82a1.194,1.194,0,0,0-.117-.515L66.911,16.268a3.573,3.573,0,0,0,.974-5.537,3.575,3.575,0,0,0-2.663-5.962H48.239a8.344,8.344,0,0,0-15.079,0H16.176a3.575,3.575,0,0,0-2.663,5.962,3.573,3.573,0,0,0,.974,5.537L.117,46.306A1.194,1.194,0,0,0,0,46.82a8.356,8.356,0,0,0,8.347,8.347h15.66a8.356,8.356,0,0,0,8.347-8.347,1.194,1.194,0,0,0-.117-.515L17.865,16.268a3.574,3.574,0,0,0,1.683-4.345H33.16a8.379,8.379,0,0,0,1.578,2.256v5.1a3.576,3.576,0,0,0,0,6.744V57.551H26.391A3.577,3.577,0,0,0,25.2,64.5V67.09H16.176a1.192,1.192,0,0,0-.992.531l-3.447,5.17a3.257,3.257,0,0,1-2.715,1.453A5.968,5.968,0,0,0,3.06,80.206,1.192,1.192,0,0,0,4.253,81.4H77.146a1.192,1.192,0,0,0,1.192-1.192,5.968,5.968,0,0,0-5.962-5.962,3.257,3.257,0,0,1-2.715-1.453l-3.447-5.17a1.192,1.192,0,0,0-.992-.531H56.2V64.5a3.577,3.577,0,0,0-1.192-6.949H46.661V26.027a3.576,3.576,0,0,0,0-6.744v-5.1a8.384,8.384,0,0,0,1.578-2.256H61.85a3.574,3.574,0,0,0,1.683,4.345L49.163,46.306A1.193,1.193,0,0,0,49.046,46.82Zm24.006,5.962H57.392a5.971,5.971,0,0,1-5.841-4.769H78.893A5.971,5.971,0,0,1,73.052,52.782ZM52.13,45.628,65.222,18.264,78.314,45.628ZM16.176,18.264,29.268,45.628H3.085Zm7.83,34.518H8.347a5.971,5.971,0,0,1-5.841-4.769H29.847A5.971,5.971,0,0,1,24.006,52.782ZM17.369,13.116a1.192,1.192,0,1,1-1.192-1.192A1.194,1.194,0,0,1,17.369,13.116ZM16.176,9.539a1.192,1.192,0,1,1,0-2.385H32.439a8.262,8.262,0,0,0,0,2.385Zm20.946,9.539V15.886a8.331,8.331,0,0,0,7.154,0v3.192ZM75.749,79.014H5.649a3.583,3.583,0,0,1,3.373-2.385H72.377A3.583,3.583,0,0,1,75.749,79.014Zm-8.072-4.9c.03.045.062.087.093.131H13.629c.031-.044.063-.086.093-.131l3.093-4.639h47.77ZM56.2,61.129a1.194,1.194,0,0,1-1.192,1.192H31.16a1.192,1.192,0,1,0,0,2.385H53.815V67.09H27.583V63.513a1.192,1.192,0,0,0-1.192-1.192,1.192,1.192,0,1,1,0-2.385H55.008A1.194,1.194,0,0,1,56.2,61.129ZM37.122,57.551V26.232h7.154V57.551Zm8.347-33.7H35.93a1.192,1.192,0,1,1,0-2.385h9.539a1.192,1.192,0,0,1,0,2.385ZM40.7,14.308a5.962,5.962,0,1,1,5.962-5.962A5.968,5.968,0,0,1,40.7,14.308Zm8.26-7.154H65.222a1.192,1.192,0,1,1,0,2.385H48.959a8.263,8.263,0,0,0,0-2.385Zm17.455,5.962a1.192,1.192,0,1,1-1.192-1.192A1.194,1.194,0,0,1,66.415,13.116Z" transform="translate(0 0)"/>
          <path id="Trazado_978734" data-name="Trazado 978734" d="M237.077,30a3.577,3.577,0,1,0,3.577,3.577A3.581,3.581,0,0,0,237.077,30Zm0,4.769a1.192,1.192,0,1,1,1.192-1.192A1.194,1.194,0,0,1,237.077,34.769Z" transform="translate(-196.378 -25.231)"/>
        </g>
      </g>
      <g id="Grupo_1150971" data-name="Grupo 1150971" transform="translate(1070.659 1214.167)">
        <g id="users_391194" transform="translate(8.813 15.627)">
          <path id="Trazado_903443" data-name="Trazado 903443" d="M50.187,29.77h0a20.3,20.3,0,0,0-20.3,20.3V59.3H70.484V50.067A20.3,20.3,0,0,0,50.187,29.77Z" transform="translate(-24.898 -28.46)" fill="#515262"/>
          <path id="Trazado_903444" data-name="Trazado 903444" d="M129.511,29.079h.01a20.507,20.507,0,0,0-4.38.53,20.355,20.355,0,0,1,15.916,19.882v9.1h8.732v-9.1A20.379,20.379,0,0,0,129.511,29.079Z" transform="translate(-104.242 -27.884)" opacity="0.1"/>
          <path id="Trazado_903445" data-name="Trazado 903445" d="M22.731,174.69a4.985,4.985,0,0,0-4.985,4.985h0a4.985,4.985,0,0,0,4.985,4.985h2.424V174.69H22.731Z" transform="translate(-14.783 -149.178)" fill="#e6b696"/>
          <path id="Trazado_903446" data-name="Trazado 903446" d="M55.8,378.893A25.947,25.947,0,0,0,41.231,364.5l-.1-.04H22.518A25.946,25.946,0,0,0,7.844,378.893H55.8Z" transform="translate(-6.534 -307.26)" fill="#ff6465"/>
          <path id="Trazado_903447" data-name="Trazado 903447" d="M110.294,310.649v-9.365H99.743v9.365a25.725,25.725,0,0,0-4.028,1.185,9.652,9.652,0,0,0,18.608,0A25.739,25.739,0,0,0,110.294,310.649Z" transform="translate(-79.731 -254.631)" fill="#e6b696"/>
          <path id="Trazado_903448" data-name="Trazado 903448" d="M216.99,378.893A25.947,25.947,0,0,1,231.56,364.5l.1-.04h18.608a25.947,25.947,0,0,1,14.675,14.429H216.99Z" transform="translate(-180.753 -307.26)" fill="#a5eb78"/>
          <path id="Trazado_903449" data-name="Trazado 903449" d="M308.891,310.649v-9.365h10.551v9.365a25.725,25.725,0,0,1,4.028,1.185,9.652,9.652,0,0,1-18.608,0A25.739,25.739,0,0,1,308.891,310.649Z" transform="translate(-253.951 -254.631)" fill="#e6b696"/>
          <path id="Trazado_903450" data-name="Trazado 903450" d="M120.056,299.923v8.862a22.3,22.3,0,0,0,10.478,0v-8.862H120.056Z" transform="translate(-100.007 -253.497)" opacity="0.1"/>
          <path id="Trazado_903451" data-name="Trazado 903451" d="M329.2,299.924v8.862a22.3,22.3,0,0,0,10.478,0v-8.862H329.2Z" transform="translate(-274.226 -253.498)" opacity="0.1"/>
          <path id="Trazado_903452" data-name="Trazado 903452" d="M77.333,110.338a3.125,3.125,0,0,1-3.125-3.125,3.125,3.125,0,0,1-6.249,0,3.125,3.125,0,0,1-6.249,0,3.125,3.125,0,0,1-6.249,0,3.122,3.122,0,0,1-5.6,1.905,15.934,15.934,0,0,0-2.389,8.415v8.749a17.36,17.36,0,0,0,34.721,0v-8.749a15.934,15.934,0,0,0-2.389-8.415A3.117,3.117,0,0,1,77.333,110.338Z" transform="translate(-39.546 -92.97)" fill="#f0c5a6"/>
          <path id="Trazado_903453" data-name="Trazado 903453" d="M259.335,29.77h0a20.3,20.3,0,0,0-20.3,20.3V59.3h40.594V50.067A20.3,20.3,0,0,0,259.335,29.77Z" transform="translate(-199.119 -28.46)" fill="#ffd782"/>
          <path id="Trazado_903454" data-name="Trazado 903454" d="M338.657,29.079h.009a20.507,20.507,0,0,0-4.38.53A20.355,20.355,0,0,1,350.2,49.491v9.1h8.732v-9.1A20.379,20.379,0,0,0,338.657,29.079Z" transform="translate(-278.46 -27.884)" opacity="0.1"/>
          <path id="Trazado_903455" data-name="Trazado 903455" d="M452.318,174.69a4.985,4.985,0,0,1,4.985,4.985h0a4.984,4.984,0,0,1-4.985,4.985h-2.424V174.69h2.424Z" transform="translate(-374.762 -149.178)" fill="#e6b696"/>
          <path id="Trazado_903456" data-name="Trazado 903456" d="M261.479,110.338a3.125,3.125,0,0,0,3.125-3.125,3.125,3.125,0,0,0,6.25,0,3.125,3.125,0,0,0,6.25,0,3.125,3.125,0,1,0,6.249,0,3.122,3.122,0,0,0,5.6,1.905,15.935,15.935,0,0,1,2.388,8.415v8.749a17.36,17.36,0,0,1-34.721,0v-8.749a15.933,15.933,0,0,1,2.389-8.415A3.118,3.118,0,0,0,261.479,110.338Z" transform="translate(-213.762 -92.97)" fill="#f0c5a6"/>
          <path id="Trazado_903457" data-name="Trazado 903457" d="M154.761,61.142h0a20.3,20.3,0,0,0-20.3,20.3v9.235h40.594V81.439A20.3,20.3,0,0,0,154.761,61.142Z" transform="translate(-112.009 -54.593)" fill="#5a4146"/>
          <path id="Trazado_903458" data-name="Trazado 903458" d="M234.084,60.451h.01a20.508,20.508,0,0,0-4.38.53,20.355,20.355,0,0,1,15.916,19.882v9.1h8.732v-9.1A20.379,20.379,0,0,0,234.084,60.451Z" transform="translate(-191.351 -54.017)" opacity="0.1"/>
          <g id="Grupo_1143006" data-name="Grupo 1143006" transform="translate(20.427 30.751)">
            <path id="Trazado_903459" data-name="Trazado 903459" d="M127.3,206.062a4.985,4.985,0,0,0-4.985,4.985h0a4.985,4.985,0,0,0,4.985,4.985h2.424v-9.969H127.3Z" transform="translate(-122.319 -206.062)" fill="#e6b273"/>
            <path id="Trazado_903460" data-name="Trazado 903460" d="M347.744,206.062a4.985,4.985,0,0,1,4.985,4.985h0a4.985,4.985,0,0,1-4.985,4.985H345.32v-9.969h2.424Z" transform="translate(-308.079 -206.062)" fill="#e6b273"/>
          </g>
          <path id="Trazado_903461" data-name="Trazado 903461" d="M160.375,410.265a25.946,25.946,0,0,0-14.57-14.389l-.1-.04H127.093a25.947,25.947,0,0,0-14.675,14.429h47.957Z" transform="translate(-93.644 -333.393)" fill="#6ab2cc"/>
          <path id="Trazado_903462" data-name="Trazado 903462" d="M214.868,342.022v-9.365H204.317v9.365a25.717,25.717,0,0,0-4.028,1.185,9.652,9.652,0,0,0,18.608,0A25.7,25.7,0,0,0,214.868,342.022Z" transform="translate(-166.841 -280.765)" fill="#f0c087"/>
          <path id="Trazado_903463" data-name="Trazado 903463" d="M224.629,331.3v8.862a22.3,22.3,0,0,0,10.478,0V331.3H224.629Z" transform="translate(-187.116 -279.63)" opacity="0.1"/>
          <path id="Trazado_903464" data-name="Trazado 903464" d="M181.906,141.71a3.125,3.125,0,0,1-3.125-3.125,3.125,3.125,0,1,1-6.249,0,3.125,3.125,0,1,1-6.249,0,3.125,3.125,0,0,1-6.249,0,3.122,3.122,0,0,1-5.6,1.905,15.934,15.934,0,0,0-2.389,8.415v8.749a17.361,17.361,0,0,0,34.721,0v-8.749a15.936,15.936,0,0,0-2.388-8.415A3.118,3.118,0,0,1,181.906,141.71Z" transform="translate(-126.655 -119.103)" fill="#f0c087"/>
          <path id="Trazado_903468" data-name="Trazado 903468" d="M85.409,93.066A27.157,27.157,0,0,0,66.8,76.9V72.708A18.735,18.735,0,0,0,78.577,58.632,6.288,6.288,0,0,0,81.823,47.8v-4.27a21.649,21.649,0,0,0-7.132-16.041,1.31,1.31,0,0,0-1.756,1.944,19.024,19.024,0,0,1,6.268,14.1v2.813q-.158-.043-.318-.077c0-.067,0-.133-.006-.2A17.508,17.508,0,0,0,77.419,39.5,16.73,16.73,0,0,0,76.3,37.384a1.31,1.31,0,0,0-2.15-.111A1.812,1.812,0,0,1,70.9,36.168a1.31,1.31,0,0,0-2.62,0,1.815,1.815,0,0,1-3.63,0,1.31,1.31,0,0,0-2.62,0,1.8,1.8,0,0,1-.194.807,1.853,1.853,0,0,1-.538.641l-.027.02A21.575,21.575,0,0,0,58.409,33.9l-.044-.046a21.646,21.646,0,0,0-8.388-5.443c-.113-.04-.772-.345-.856-.284a19.007,19.007,0,0,1,19.71-1.515,1.31,1.31,0,0,0,1.19-2.333,21.617,21.617,0,0,0-24.163,3.115,21.626,21.626,0,0,0-6.211,0,21.6,21.6,0,0,0-26.941-1.422,1.31,1.31,0,1,0,1.527,2.128,18.993,18.993,0,0,1,22.151.028,21.626,21.626,0,0,0-8.7,5.183,22.024,22.024,0,0,0-2.343,2.681,19.1,19.1,0,0,0-1.1,1.65l-.027-.02a1.851,1.851,0,0,1-.732-1.448,1.31,1.31,0,1,0-2.62,0,1.815,1.815,0,0,1-3.63,0,1.31,1.31,0,1,0-2.62,0,1.813,1.813,0,0,1-3.251,1.105,1.31,1.31,0,0,0-2.15.111,17.141,17.141,0,0,0-2.417,6.706,18.161,18.161,0,0,0-.16,1.978c0,.066-.005.133-.006.2-.107.023-.213.049-.318.077V43.531a19.014,19.014,0,0,1,4.346-12.089,1.31,1.31,0,1,0-2.019-1.669A21.639,21.639,0,0,0,3.683,43.531V47.8A6.288,6.288,0,0,0,6.929,58.632,18.734,18.734,0,0,0,18.7,72.707V76.9a26.987,26.987,0,0,0-9.613,4.552,1.31,1.31,0,0,0,1.563,2.1,24.566,24.566,0,0,1,4.556-2.682c-.353.159,2.4,3.511,2.678,3.766a10.961,10.961,0,0,0,7.4,2.885l.194,0a27.284,27.284,0,0,0-4.5,4.727H3.341a24.552,24.552,0,0,1,3.643-5.342,1.31,1.31,0,0,0-1.952-1.746A27.1,27.1,0,0,0,.1,93.065a1.31,1.31,0,0,0,1.214,1.8H19.25A26.967,26.967,0,0,0,17.56,98.3a1.31,1.31,0,0,0,1.214,1.8H66.731a1.31,1.31,0,0,0,1.214-1.8,26.935,26.935,0,0,0-1.69-3.437H84.195a1.31,1.31,0,0,0,1.214-1.8ZM64.182,73.485v4.459a1.309,1.309,0,0,0,1.044,1.282,24.454,24.454,0,0,1,2.623.7l-.036.082a8.276,8.276,0,0,1-2.132,2.851,8.343,8.343,0,0,1-13.061-2.851l-.036-.082a24.482,24.482,0,0,1,2.623-.7,1.31,1.31,0,0,0,1.044-1.282V73.485l.2.041a18.719,18.719,0,0,0,7.59-.012ZM50.288,85.377a8.34,8.34,0,0,1-15.167-.213l.075-.024a24.839,24.839,0,0,1,2.548-.675,1.31,1.31,0,0,0,1.044-1.282V78.724l.141.028a18.732,18.732,0,0,0,7.48.035c.1-.02.208-.041.311-.063v4.459a1.309,1.309,0,0,0,1.044,1.282,24.2,24.2,0,0,1,2.54.672l.082.027-.035.08C50.329,85.289,50.309,85.333,50.288,85.377ZM24.093,61.091a3.672,3.672,0,0,1-.757-6.457,3.768,3.768,0,0,1,.73-.39l.017-.007v6.24c0,.191,0,.381.01.571C24.092,61.062,24.092,61.077,24.093,61.091Zm6.161-15.249a4.42,4.42,0,0,0,3.125-1.291,4.427,4.427,0,0,0,6.25,0A4.423,4.423,0,0,0,42.3,45.819a4.474,4.474,0,0,0,.451.023,4.42,4.42,0,0,0,3.125-1.291,4.428,4.428,0,0,0,6.25,0,4.435,4.435,0,0,0,5.21.772,14.677,14.677,0,0,1,1.466,6.4v8.75c0,.476-.023.954-.064,1.428l-.006.071a16.147,16.147,0,0,1-4.164,9.351l-.351.369a16.066,16.066,0,0,1-7.052,4.213l-.025.007a16.094,16.094,0,0,1-8.777,0l-.025-.007A16.306,16.306,0,0,1,26.855,62.685l0-.025a15.962,15.962,0,0,1-.149-2.183v-8.75a14.681,14.681,0,0,1,1.466-6.4,4.365,4.365,0,0,0,.742.313A4.442,4.442,0,0,0,30.254,45.842Zm20.2,36.6q-.557-.165-1.12-.305V81.25q.4-.2.8-.379c-.039.018.778,1.486.884,1.65.026.039.05.08.076.119l-.069-.021Q50.745,82.529,50.459,82.444Zm-.008-4.54h0l-.117.044c-.332.13-.663.27-.993.415v-.416a18.642,18.642,0,0,0,4.293-2.305V76.9A27.14,27.14,0,0,0,50.451,77.9ZM61.414,61.04c.006-.187.009-.375.009-.563v-6.24l.017.006a3.711,3.711,0,0,1,.686.36l.045.031a3.672,3.672,0,0,1-.758,6.457C61.414,61.074,61.413,61.057,61.414,61.04Zm-29.539,14.6a18.645,18.645,0,0,0,4.293,2.305v.416c-.333-.145-.667-.287-1.005-.419l-.1-.04h0a27.1,27.1,0,0,0-3.179-1V75.642h0Zm4.293,6.5q-.854.213-1.692.482l-.067.02c.184-.274.355-.561.513-.851s.314-.606.447-.918q.4.182.8.378v.889ZM78.877,55.852c0-.017,0-.034,0-.051.006-.187.009-.375.009-.563V49L78.9,49a3.688,3.688,0,0,1,.686.36l.044.03a3.671,3.671,0,0,1-.758,6.457ZM66.466,40.6a4.421,4.421,0,0,0,3.125-1.291,4.434,4.434,0,0,0,5.21.772,14.682,14.682,0,0,1,1.466,6.405v8.75c0,.633-.052,1.259-.112,1.888A16.093,16.093,0,0,1,64.678,70.657l-.074.022a16.223,16.223,0,0,1-6.507.47l-.022,0a18.652,18.652,0,0,0,1.3-2.166l.009-.017a18.759,18.759,0,0,0,1.7-4.92l.007-.037c.009-.045.018-.089.026-.133a6.288,6.288,0,0,0,3.246-10.831v-4.27a21.541,21.541,0,0,0-.89-6.141l-.007-.023a21.836,21.836,0,0,0-.974-2.639l.022-.014a7.073,7.073,0,0,0,.826-.648,4.434,4.434,0,0,0,3.13,1.3ZM47,30.263q.861.2,1.7.477a19.24,19.24,0,0,1,7.837,4.99,19.032,19.032,0,0,1,4.31,7.293l.016.05a19.1,19.1,0,0,1,.792,3.94l0,.048c.052.569.078,1.14.078,1.711v2.813c-.105-.028-.211-.054-.318-.077,0-.067,0-.133-.006-.2a17.26,17.26,0,0,0-2.577-8.684,1.31,1.31,0,0,0-2.15-.111,1.813,1.813,0,0,1-3.251-1.105,1.31,1.31,0,1,0-2.62,0,1.815,1.815,0,0,1-3.63,0,1.31,1.31,0,1,0-2.62,0,1.815,1.815,0,0,1-3.63,0,1.31,1.31,0,1,0-2.62,0,1.815,1.815,0,0,1-3.63,0,1.31,1.31,0,1,0-2.62,0,1.812,1.812,0,0,1-3.251,1.105,1.31,1.31,0,0,0-2.15.111,16.956,16.956,0,0,0-1.625,3.42,18.013,18.013,0,0,0-.773,3.152,17,17,0,0,0-.18,2.126c0,.062,0,.124-.005.186-.107.023-.213.049-.318.077V48.771a18.986,18.986,0,0,1,1.32-6.957A19.248,19.248,0,0,1,35.762,31.12,18.905,18.905,0,0,1,47,30.263ZM6.629,55.852a3.681,3.681,0,0,1-2.355-3.43A3.726,3.726,0,0,1,6.6,49L6.619,49v6.24c0,.188,0,.376.009.563C6.629,55.818,6.628,55.835,6.629,55.852ZM9.35,57.126a16.173,16.173,0,0,1-.112-1.888v-8.75a14.681,14.681,0,0,1,1.466-6.4,4.435,4.435,0,0,0,5.21-.772,4.427,4.427,0,0,0,6.255-.006,8.145,8.145,0,0,0,.766.609l.06.039.022.014c-.189.423-.362.853-.522,1.288s-.316.9-.451,1.351l-.007.023a21.54,21.54,0,0,0-.89,6.141v4.27a6.288,6.288,0,0,0,3.246,10.831c.009.048.018.1.027.143l0,.019a18.769,18.769,0,0,0,3.007,7.112l-.022,0A16.047,16.047,0,0,1,9.35,57.126Zm10.929,22.1a1.31,1.31,0,0,0,1.044-1.282V73.485l.136.028a18.757,18.757,0,0,0,7.8-.028v4.459A1.309,1.309,0,0,0,30.3,79.226a13.08,13.08,0,0,1,2.624.709,8.718,8.718,0,0,1-5.175,4.6,8.309,8.309,0,0,1-2.458.373,8.451,8.451,0,0,1-6.536-3.164,5.688,5.688,0,0,1-1.084-1.814A17.2,17.2,0,0,1,20.28,79.226Zm.526,18.262a24.73,24.73,0,0,1,9.526-10.163l.014-.008a25.166,25.166,0,0,1,2.33-1.2,14.674,14.674,0,0,0,.949,1.759,10.97,10.97,0,0,0,19.206-1.76c.642.289,1.273.605,1.887.948a24.741,24.741,0,0,1,7.125,6.007q.424.523.818,1.069a24.552,24.552,0,0,1,2.04,3.349H20.806Zm43.721-5.239a27.265,27.265,0,0,0-4.5-4.727l.195,0a11.1,11.1,0,0,0,8.68-4.276,10.96,10.96,0,0,0,1.4-2.375A24.7,24.7,0,0,1,82.164,92.248Z" transform="translate(-0.001 -21.925)"/>
        </g>
      </g>
      <g id="Grupo_1145593" data-name="Grupo 1145593" transform="translate(437.433 1224.106)">
        <g id="Grupo_1145592" data-name="Grupo 1145592" clip-path="url(#clip-path-7)">
          <path id="Trazado_979859" data-name="Trazado 979859" d="M60.5,27.519a1.719,1.719,0,0,1-1.326-.846L59.045,3.958C58.647,2.4,57.239,2.774,56,2.742c-11.3-.29-22.646.218-33.948,0V16.5l-.23,1.378A5.831,5.831,0,0,1,16.5,22.048H2.742V78.6c0,.356,1.047,1.232,1.521,1.053,17.228-.346,34.514.435,51.734-.008,1.242-.032,2.651.341,3.048-1.216l.132-22.715A1.632,1.632,0,0,1,60.5,54.87a1.548,1.548,0,0,1,1.29,1.364l0,22.529a4.2,4.2,0,0,1-3.775,3.626L3.093,82.272A4.24,4.24,0,0,1,0,78.608V21.639a4.208,4.208,0,0,1,.888-2.491L19.149.888A4.209,4.209,0,0,1,21.64,0L58.17.006a4.231,4.231,0,0,1,3.62,3.62l0,22.529a1.554,1.554,0,0,1-1.29,1.364M4.834,19.152H17.3a3.991,3.991,0,0,0,1.85-1.85V4.834Z" fill="#010101"/>
          <path id="Trazado_979860" data-name="Trazado 979860" d="M77.793,100.813c-1.453,1.007-2.891,2.056-4.344,3.057-4.989,3.437-9.955,7-15.008,10.333a12.293,12.293,0,0,1-2.4,1.461c-4.705,1.589-10.367,2.174-15.174,3.65l-14.314,0a1.39,1.39,0,0,1,.166-2.722l11.011-.009a2.762,2.762,0,0,1,.577-1.757c2.338-4.314,6.3-8.592,8.837-12.883C56,95.87,64.775,89.689,73.61,83.6c1.457-1,2.891-2.057,4.344-3.057,3.543-2.438,7.136-4.814,10.67-7.269a5.949,5.949,0,0,1,5.473.378c1.41.957,5.239,6.5,5.5,8.171a5.583,5.583,0,0,1-2.264,5.475q-9.795,6.726-19.545,13.518m12.389-25.1a1.464,1.464,0,0,0-.631.248l-6.78,4.668c1.476,2.261,2.977,4.521,4.544,6.718.364.51.948,1.106,1.258,1.558.231.337-.1.924.8.556,1.918-1.571,4.379-2.795,6.269-4.35a2.719,2.719,0,0,0,.95-3.658,35.845,35.845,0,0,0-4-5.488,2.51,2.51,0,0,0-2.4-.253M78.919,83.437c-.232.154-1.7.9-1.751.984l.006.353c1.942,2.611,3.637,5.406,5.606,7.995.157.206.329.859.7.792.384-.49,3.213-1.988,3.14-2.451L80.615,82.46c-.5-.392-1.339.74-1.7.977M73.288,87.3c-7.811,5.137-15.385,10.643-23.1,15.927l.006.478c1.9,2.5,3.54,5.2,5.392,7.729.259.354.428,1.018.959.724L81,95.33l-6.1-9.087c-.275-.162-1.365.894-1.611,1.056M46.741,107.409c-.651.93-1.333,1.846-1.933,2.813l3.158,4.555c1.083-.293,2.193-.5,3.28-.771a12.61,12.61,0,0,1,2.253-.483l-5.39-8.04c-.207-.007-1.174,1.65-1.368,1.927m-3.62,5.313-2.576,3.855c.506-.2,4.421-.909,4.423-1.2Z" transform="translate(-17.291 -49.322)" fill="#030202"/>
          <path id="Trazado_979861" data-name="Trazado 979861" d="M178.246,33.248c.1,1.2-.207,2.557.161,3.7-1.453,1-2.887,2.052-4.344,3.057l.007-30.173-.328-1.361c1.242.032,2.65-.341,3.048,1.216L176.92,32.4a1.719,1.719,0,0,0,1.326.846" transform="translate(-117.744 -5.729)" fill="#ccd5d7"/>
          <path id="Trazado_979862" data-name="Trazado 979862" d="M178.246,163.139a1.632,1.632,0,0,0-1.326.846l-.131,22.715c-.4,1.557-1.806,1.184-3.048,1.216l.328-1.361c-.086-7.617.091-15.239,0-22.855,0-.272.1-.716-.164-.882,1.453-1,2.891-2.05,4.344-3.057Z" transform="translate(-117.744 -108.269)" fill="#cfd7da"/>
          <path id="Trazado_979863" data-name="Trazado 979863" d="M15,29.316,29.316,15V27.466a3.991,3.991,0,0,1-1.85,1.85Z" transform="translate(-10.163 -10.163)" fill="#cdd6d9"/>
          <path id="Trazado_979864" data-name="Trazado 979864" d="M107.478,141.962c-1.852-2.531-3.492-5.228-5.392-7.729l-.007-.478c7.712-5.284,15.286-10.79,23.1-15.927l5.4,8.367Z" transform="translate(-69.179 -79.852)" fill="#f24234"/>
          <path id="Trazado_979865" data-name="Trazado 979865" d="M210.574,81.888c1.148,2.093,4.167,4.834,4.025,7.315-.179,3.11-3.707,4.035-5.634,5.878-.31-.452-.894-1.048-1.258-1.558-1.567-2.2-3.069-4.458-4.544-6.718l6.779-4.668a1.463,1.463,0,0,1,.631-.248" transform="translate(-137.683 -55.495)" fill="#e71e62"/>
          <path id="Trazado_979866" data-name="Trazado 979866" d="M136.527,115.574c.246-.162,1.337-1.217,1.611-1.056l6.1,9.087-24.453,16.826c-.531.293-.7-.371-.959-.724l23.1-15.766Z" transform="translate(-80.53 -77.598)" fill="#c51e1d"/>
          <path id="Trazado_979867" data-name="Trazado 979867" d="M222.773,81.495a2.511,2.511,0,0,1,2.4.253,35.869,35.869,0,0,1,4,5.488,2.719,2.719,0,0,1-.95,3.658c-1.89,1.555-4.352,2.779-6.269,4.35-.9.368-.566-.219-.8-.556,1.927-1.843,5.456-2.768,5.634-5.878.142-2.481-2.877-5.222-4.025-7.315" transform="translate(-149.882 -55.102)" fill="#aa1456"/>
          <path id="Trazado_979868" data-name="Trazado 979868" d="M195.074,112.954c.384-.27,1.72-.8,1.585-1.33l-5.447-8c.357-.237,1.2-1.368,1.7-.977l6.007,8.649c.073.463-2.755,1.962-3.14,2.451-.372.067-.544-.586-.7-.792" transform="translate(-129.584 -69.507)" fill="#f9be09"/>
          <path id="Trazado_979869" data-name="Trazado 979869" d="M91.814,186.823c-1.087.268-2.2.478-3.28.771l-3.158-4.555c.6-.967,1.282-1.882,1.933-2.813.344,0,.439.2.618.427,1.042,1.318,2.278,3.234,3.214,4.67.3.462.757.9.673,1.5" transform="translate(-57.859 -122.139)" fill="#fbddae"/>
          <path id="Trazado_979870" data-name="Trazado 979870" d="M187.531,105.848l5.447,8c.134.526-1.2,1.061-1.585,1.33-1.969-2.588-3.664-5.384-5.606-8l-.006-.353c.051-.086,1.519-.83,1.751-.984" transform="translate(-125.903 -71.733)" fill="#fbd800"/>
          <path id="Trazado_979871" data-name="Trazado 979871" d="M91.374,176.174c.194-.277,1.161-1.934,1.368-1.927l5.39,8.04a12.618,12.618,0,0,0-2.253.484c.084-.6-.372-1.037-.673-1.5-.936-1.437-2.172-3.352-3.214-4.67-.179-.227-.274-.432-.618-.428" transform="translate(-61.924 -118.087)" fill="#dac099"/>
          <path id="Trazado_979872" data-name="Trazado 979872" d="M74.725,196.71l1.847,2.652c0,.294-3.917,1-4.423,1.2Z" transform="translate(-48.895 -133.31)" fill="#50585d"/>
          <path id="Trazado_979873" data-name="Trazado 979873" d="M26.408,85.41l43.248-.037c1.877.387,1.417,2.808-.48,2.744h-42c-1.725.036-2.355-1.932-.764-2.707" transform="translate(-17.277 -57.857)" fill="#040404"/>
          <path id="Trazado_979874" data-name="Trazado 979874" d="M26.71,106.466l33.306.083c1.658.978.777,2.855-1,2.78H27.309c-2.024.038-2.624-2.314-.6-2.865" transform="translate(-17.253 -72.152)" fill="#050505"/>
          <path id="Trazado_979875" data-name="Trazado 979875" d="M26.58,127.918l23.657.087c1.137.483.862,2.615-.519,2.618H26.864a1.369,1.369,0,0,1-.284-2.7" transform="translate(-17.288 -86.69)" fill="#010101"/>
          <path id="Trazado_979876" data-name="Trazado 979876" d="M147.457,211.351v-5.712a4.83,4.83,0,0,1,.488-.8,1.5,1.5,0,0,1,2.214.511l.042,7.7-.656.953-8.088.051a1.5,1.5,0,0,1-.511-2.214,4.816,4.816,0,0,1,.8-.488Z" transform="translate(-95.322 -138.622)" fill="#040404"/>
          <path id="Trazado_979877" data-name="Trazado 979877" d="M128.7,21.528,140.57,21.5a1.405,1.405,0,0,1-.475,2.735c-3.4.407-7.606-.3-11.1-.013a1.391,1.391,0,0,1-.3-2.692" transform="translate(-86.588 -14.568)" fill="#040404"/>
          <path id="Trazado_979878" data-name="Trazado 979878" d="M26.42,166.3l11.059-.024A1.376,1.376,0,0,1,37.167,169c-3.241.364-7.136-.264-10.448-.009a1.4,1.4,0,0,1-.3-2.693" transform="translate(-17.29 -112.686)" fill="#030303"/>
          <path id="Trazado_979879" data-name="Trazado 979879" d="M141.61,38.564h7.655a1.38,1.38,0,0,1-.3,2.69,46.288,46.288,0,0,1-7.192-.028,1.373,1.373,0,0,1-.165-2.663" transform="translate(-95.314 -26.135)" fill="#030303"/>
          <path id="Trazado_979880" data-name="Trazado 979880" d="M26.706,187.07a36.537,36.537,0,0,1,6.039,0,1.44,1.44,0,0,1-.134,2.849,36.148,36.148,0,0,1-5.9-.028,1.42,1.42,0,0,1,0-2.82" transform="translate(-17.249 -126.692)" fill="#0b0b0b"/>
        </g>
      </g>
      <g id="Grupo_1157248" data-name="Grupo 1157248" transform="translate(358 1379.104)">
        <path id="Contenido" d="M108.41,23.527q-4.058,0-5.691-2.842t-1.633-8.1q0-5.259,1.633-8.115t5.691-2.856q4.058,0,5.7,2.856t1.626,8.115q0,5.259-1.633,8.1T108.41,23.527Zm2.446-5.347a20.9,20.9,0,0,0,.571-5.6,20.5,20.5,0,0,0-.579-5.684,2.364,2.364,0,0,0-2.439-1.846A2.4,2.4,0,0,0,105.949,6.9a19.784,19.784,0,0,0-.6,5.684,20.007,20.007,0,0,0,.6,5.6,2.52,2.52,0,0,0,4.907-.007ZM128.185,23h-4.277V8.352h-5V5.51a18.5,18.5,0,0,0,2.769-.264,3.9,3.9,0,0,0,2.051-1.113,3.665,3.665,0,0,0,.82-1.523,3.5,3.5,0,0,0,.161-.85h3.472Zm7.207-4.365h4.438V23h-4.438Z" transform="translate(0 -0.104)" fill="#212429"/>
        <path id="Contenido-2" data-name="Contenido" d="M13.756,1.089h2.5L19.97,12,23.653,1.089h2.479V14H24.47V6.38q0-.4.018-1.31t.018-1.96L20.823,14H19.091L15.382,3.11v.4q0,.475.022,1.446t.022,1.428V14h-1.67ZM32.505,4.376a4.294,4.294,0,0,1,1.942.47A3.582,3.582,0,0,1,35.88,6.063a4.2,4.2,0,0,1,.633,1.661A10.868,10.868,0,0,1,36.654,9.8h-6.9a4.026,4.026,0,0,0,.677,2.3,2.266,2.266,0,0,0,1.96.866,2.534,2.534,0,0,0,1.978-.817,2.755,2.755,0,0,0,.6-1.1h1.556a3.276,3.276,0,0,1-.409,1.156,4.111,4.111,0,0,1-.778,1.042,3.687,3.687,0,0,1-1.784.949,5.42,5.42,0,0,1-1.292.141,3.964,3.964,0,0,1-2.979-1.279,4.976,4.976,0,0,1-1.222-3.582,5.41,5.41,0,0,1,1.23-3.683A4.059,4.059,0,0,1,32.505,4.376Zm2.522,4.166A4.1,4.1,0,0,0,34.579,6.9a2.3,2.3,0,0,0-2.171-1.143,2.406,2.406,0,0,0-1.828.787,2.972,2.972,0,0,0-.782,2Zm7.2-4.228a4.1,4.1,0,0,1,2.588.773,3.705,3.705,0,0,1,1.2,2.663H44.478a2.839,2.839,0,0,0-.642-1.446,2.027,2.027,0,0,0-1.608-.576,2.222,2.222,0,0,0-2.162,1.477,5.865,5.865,0,0,0-.422,2.364,4.449,4.449,0,0,0,.6,2.382,2.317,2.317,0,0,0,3.441.365,3.311,3.311,0,0,0,.8-1.648h1.538A4.129,4.129,0,0,1,44.7,13.407a4.113,4.113,0,0,1-2.7.866,3.6,3.6,0,0,1-2.944-1.349,5.164,5.164,0,0,1-1.1-3.371,5.678,5.678,0,0,1,1.2-3.858A3.891,3.891,0,0,1,42.228,4.314ZM48.812,11.5a1.3,1.3,0,0,0,.5,1.081,1.857,1.857,0,0,0,1.187.4,3.608,3.608,0,0,0,1.617-.387,2.176,2.176,0,0,0,1.318-2.1V9.21a2.707,2.707,0,0,1-.747.308,6.366,6.366,0,0,1-.9.176l-.958.123a3.664,3.664,0,0,0-1.292.36A1.4,1.4,0,0,0,48.812,11.5Zm3.832-3.2a.859.859,0,0,0,.729-.457,1.391,1.391,0,0,0,.105-.606A1.285,1.285,0,0,0,52.9,6.059a3.089,3.089,0,0,0-1.648-.365,2.094,2.094,0,0,0-1.758.668,2.2,2.2,0,0,0-.378,1.1H47.643A2.718,2.718,0,0,1,48.773,5.04a4.637,4.637,0,0,1,2.518-.681,5.124,5.124,0,0,1,2.7.633A2.147,2.147,0,0,1,55.017,6.96v5.423a.694.694,0,0,0,.1.4.487.487,0,0,0,.426.149q.105,0,.237-.013t.281-.04v1.169a4.406,4.406,0,0,1-.562.132,4.111,4.111,0,0,1-.527.026,1.3,1.3,0,0,1-1.187-.58,2.239,2.239,0,0,1-.272-.87,4.025,4.025,0,0,1-1.389,1.1,4.3,4.3,0,0,1-2,.466,2.967,2.967,0,0,1-2.14-.8,2.642,2.642,0,0,1-.831-1.991,2.564,2.564,0,0,1,.817-2.03,3.889,3.889,0,0,1,2.145-.888Zm4.968-3.709h1.5V5.923A4.215,4.215,0,0,1,60.53,4.736a3.773,3.773,0,0,1,1.661-.36,2.739,2.739,0,0,1,2.707,1.4,4.962,4.962,0,0,1,.387,2.188V14H63.677V8.067a3.212,3.212,0,0,0-.255-1.389A1.545,1.545,0,0,0,61.892,5.8a3.114,3.114,0,0,0-.923.114,2.377,2.377,0,0,0-1.143.773,2.329,2.329,0,0,0-.514.962,6.478,6.478,0,0,0-.119,1.419V14H57.612Zm10.013.044h1.608V14H67.625Zm0-3.542h1.608V2.882H67.625Zm4.941,9.958a2.3,2.3,0,0,0,.4,1.213,2.485,2.485,0,0,0,2.074.765,3.059,3.059,0,0,0,1.547-.382,1.27,1.27,0,0,0,.668-1.182,1.011,1.011,0,0,0-.536-.923,6.374,6.374,0,0,0-1.354-.448L74.1,9.772A6.131,6.131,0,0,1,72.329,9.1a2,2,0,0,1-1.02-1.775,2.713,2.713,0,0,1,.962-2.162,3.839,3.839,0,0,1,2.588-.826,3.593,3.593,0,0,1,3.067,1.248A2.708,2.708,0,0,1,78.5,7.294H77a1.83,1.83,0,0,0-.378-.976,2.41,2.41,0,0,0-1.89-.624,2.259,2.259,0,0,0-1.358.343,1.074,1.074,0,0,0-.461.905,1.114,1.114,0,0,0,.606.984,3.644,3.644,0,0,0,1.037.387l1.046.255a8.087,8.087,0,0,1,2.285.8,2.118,2.118,0,0,1,.923,1.907,2.906,2.906,0,0,1-.954,2.171,4.059,4.059,0,0,1-2.9.914,3.9,3.9,0,0,1-2.975-.954,3.606,3.606,0,0,1-.936-2.36Zm8.061-6.46h1.564V5.923a5.258,5.258,0,0,1,1.02-1.011,3.066,3.066,0,0,1,1.775-.536A2.794,2.794,0,0,1,86.8,4.93a2.894,2.894,0,0,1,.7.932A3.419,3.419,0,0,1,88.74,4.741a3.457,3.457,0,0,1,1.6-.365,2.616,2.616,0,0,1,2.584,1.371,4.482,4.482,0,0,1,.369,1.986V14H91.649V7.461a1.523,1.523,0,0,0-.47-1.292,1.861,1.861,0,0,0-1.147-.352,2.277,2.277,0,0,0-1.6.624,2.74,2.74,0,0,0-.672,2.083V14H86.147V7.856a3.192,3.192,0,0,0-.229-1.4A1.394,1.394,0,0,0,84.574,5.8a2.32,2.32,0,0,0-1.63.694,3.4,3.4,0,0,0-.734,2.514V14H80.627ZM99.359,12.98a2.182,2.182,0,0,0,2.158-1.191,5.933,5.933,0,0,0,.584-2.65A4.718,4.718,0,0,0,101.679,7a2.373,2.373,0,0,0-2.3-1.3A2.271,2.271,0,0,0,97.267,6.8a5.133,5.133,0,0,0-.659,2.672,4.465,4.465,0,0,0,.659,2.5A2.322,2.322,0,0,0,99.359,12.98Zm.062-8.666A4.262,4.262,0,0,1,102.5,5.527,4.736,4.736,0,0,1,103.753,9.1a6.122,6.122,0,0,1-1.107,3.762,4.006,4.006,0,0,1-3.437,1.485,3.88,3.88,0,0,1-3.085-1.314A5.19,5.19,0,0,1,94.982,9.5a5.615,5.615,0,0,1,1.2-3.779A4.041,4.041,0,0,1,99.42,4.314Zm7.156,6.732a2.3,2.3,0,0,0,.4,1.213,2.485,2.485,0,0,0,2.074.765,3.059,3.059,0,0,0,1.547-.382,1.27,1.27,0,0,0,.668-1.182,1.011,1.011,0,0,0-.536-.923,6.374,6.374,0,0,0-1.354-.448l-1.257-.316a6.131,6.131,0,0,1-1.775-.668,2,2,0,0,1-1.02-1.775,2.713,2.713,0,0,1,.962-2.162,3.839,3.839,0,0,1,2.588-.826,3.593,3.593,0,0,1,3.067,1.248,2.708,2.708,0,0,1,.571,1.705h-1.494a1.83,1.83,0,0,0-.378-.976,2.41,2.41,0,0,0-1.89-.624,2.259,2.259,0,0,0-1.358.343,1.074,1.074,0,0,0-.461.905,1.114,1.114,0,0,0,.606.984,3.644,3.644,0,0,0,1.037.387l1.046.255a8.087,8.087,0,0,1,2.285.8,2.118,2.118,0,0,1,.923,1.907,2.906,2.906,0,0,1-.954,2.171,4.059,4.059,0,0,1-2.9.914,3.9,3.9,0,0,1-2.975-.954,3.606,3.606,0,0,1-.936-2.36Zm17.037,1.89a2.257,2.257,0,0,0,1.841-.927,4.413,4.413,0,0,0,.734-2.773,5.176,5.176,0,0,0-.325-1.934,2.383,2.383,0,0,0-4.5.088,6.514,6.514,0,0,0-.325,2.232,4.732,4.732,0,0,0,.325,1.854A2.243,2.243,0,0,0,123.613,12.937Zm-4.1-8.306h1.538V5.879a3.84,3.84,0,0,1,1.037-.993,3.338,3.338,0,0,1,1.881-.527,3.537,3.537,0,0,1,2.716,1.226,5.023,5.023,0,0,1,1.116,3.5q0,3.076-1.608,4.395a3.634,3.634,0,0,1-2.373.835,3.221,3.221,0,0,1-1.784-.466,4.111,4.111,0,0,1-.94-.905v4.808h-1.582Zm10.18-.044h1.5V6.213a3.592,3.592,0,0,1,.905-1.156,2.347,2.347,0,0,1,1.661-.681q.044,0,.149.009t.36.035V6.09a2.363,2.363,0,0,0-.259-.035q-.119-.009-.259-.009a2.258,2.258,0,0,0-1.837.769,2.684,2.684,0,0,0-.642,1.771V14H129.7Zm5.952.044h1.608V14h-1.608Zm0-3.542h1.608V2.882h-1.608Zm4,3.5h1.5V5.923a4.215,4.215,0,0,1,1.415-1.187,3.773,3.773,0,0,1,1.661-.36,2.739,2.739,0,0,1,2.707,1.4,4.962,4.962,0,0,1,.387,2.188V14h-1.608V8.067a3.212,3.212,0,0,0-.255-1.389A1.545,1.545,0,0,0,143.93,5.8a3.114,3.114,0,0,0-.923.114,2.377,2.377,0,0,0-1.143.773,2.329,2.329,0,0,0-.514.962,6.478,6.478,0,0,0-.119,1.419V14H139.65Zm13.642-.272a4.1,4.1,0,0,1,2.588.773,3.705,3.705,0,0,1,1.2,2.663h-1.538a2.839,2.839,0,0,0-.642-1.446,2.027,2.027,0,0,0-1.608-.576,2.222,2.222,0,0,0-2.162,1.477,5.865,5.865,0,0,0-.422,2.364,4.449,4.449,0,0,0,.6,2.382,2.317,2.317,0,0,0,3.441.365,3.311,3.311,0,0,0,.8-1.648h1.538a4.129,4.129,0,0,1-1.318,2.738,4.113,4.113,0,0,1-2.7.866,3.6,3.6,0,0,1-2.944-1.349,5.164,5.164,0,0,1-1.1-3.371,5.678,5.678,0,0,1,1.2-3.858A3.891,3.891,0,0,1,153.292,4.314Zm5.372.316h1.608V14h-1.608Zm0-3.542h1.608V2.882h-1.608Zm7.973,11.848a2.257,2.257,0,0,0,1.841-.927,4.413,4.413,0,0,0,.734-2.773,5.176,5.176,0,0,0-.325-1.934,2.383,2.383,0,0,0-4.5.088,6.514,6.514,0,0,0-.325,2.232,4.732,4.732,0,0,0,.325,1.854A2.243,2.243,0,0,0,166.637,12.937Zm-4.1-8.306h1.538V5.879a3.84,3.84,0,0,1,1.037-.993A3.338,3.338,0,0,1,167,4.358a3.537,3.537,0,0,1,2.716,1.226,5.023,5.023,0,0,1,1.116,3.5q0,3.076-1.608,4.395a3.634,3.634,0,0,1-2.373.835,3.221,3.221,0,0,1-1.784-.466,4.111,4.111,0,0,1-.94-.905v4.808h-1.582ZM173.89,11.5a1.3,1.3,0,0,0,.5,1.081,1.857,1.857,0,0,0,1.187.4,3.608,3.608,0,0,0,1.617-.387,2.176,2.176,0,0,0,1.318-2.1V9.21a2.707,2.707,0,0,1-.747.308,6.366,6.366,0,0,1-.9.176l-.958.123a3.664,3.664,0,0,0-1.292.36A1.4,1.4,0,0,0,173.89,11.5Zm3.832-3.2a.859.859,0,0,0,.729-.457,1.391,1.391,0,0,0,.105-.606,1.285,1.285,0,0,0-.576-1.173,3.089,3.089,0,0,0-1.648-.365,2.094,2.094,0,0,0-1.758.668,2.2,2.2,0,0,0-.378,1.1h-1.477a2.718,2.718,0,0,1,1.129-2.421,4.637,4.637,0,0,1,2.518-.681,5.124,5.124,0,0,1,2.7.633A2.147,2.147,0,0,1,180.1,6.96v5.423a.694.694,0,0,0,.1.4.487.487,0,0,0,.426.149q.105,0,.237-.013t.281-.04v1.169a4.406,4.406,0,0,1-.562.132,4.111,4.111,0,0,1-.527.026,1.3,1.3,0,0,1-1.187-.58,2.239,2.239,0,0,1-.272-.87,4.025,4.025,0,0,1-1.389,1.1,4.3,4.3,0,0,1-2,.466,2.967,2.967,0,0,1-2.14-.8,2.642,2.642,0,0,1-.831-1.991,2.564,2.564,0,0,1,.817-2.03,3.889,3.889,0,0,1,2.145-.888Zm5.012-7.207h1.582V14h-1.582Zm7.877,3.287a4.294,4.294,0,0,1,1.942.47,3.582,3.582,0,0,1,1.433,1.217,4.2,4.2,0,0,1,.633,1.661,10.868,10.868,0,0,1,.141,2.074h-6.9a4.026,4.026,0,0,0,.677,2.3,2.266,2.266,0,0,0,1.96.866,2.534,2.534,0,0,0,1.978-.817,2.755,2.755,0,0,0,.6-1.1h1.556a3.276,3.276,0,0,1-.409,1.156,4.111,4.111,0,0,1-.778,1.042,3.687,3.687,0,0,1-1.784.949,5.42,5.42,0,0,1-1.292.141,3.964,3.964,0,0,1-2.979-1.279,4.976,4.976,0,0,1-1.222-3.582,5.41,5.41,0,0,1,1.23-3.683A4.059,4.059,0,0,1,190.611,4.376Zm2.522,4.166a4.1,4.1,0,0,0-.448-1.644,2.3,2.3,0,0,0-2.171-1.143,2.406,2.406,0,0,0-1.828.787,2.972,2.972,0,0,0-.782,2Zm4.511,2.5a2.3,2.3,0,0,0,.4,1.213,2.485,2.485,0,0,0,2.074.765,3.059,3.059,0,0,0,1.547-.382,1.27,1.27,0,0,0,.668-1.182,1.011,1.011,0,0,0-.536-.923,6.374,6.374,0,0,0-1.354-.448l-1.257-.316a6.131,6.131,0,0,1-1.775-.668,2,2,0,0,1-1.02-1.775,2.713,2.713,0,0,1,.962-2.162,3.839,3.839,0,0,1,2.588-.826A3.593,3.593,0,0,1,203,5.589a2.708,2.708,0,0,1,.571,1.705h-1.494a1.83,1.83,0,0,0-.378-.976,2.41,2.41,0,0,0-1.89-.624,2.259,2.259,0,0,0-1.358.343,1.074,1.074,0,0,0-.461.905,1.114,1.114,0,0,0,.606.984,3.644,3.644,0,0,0,1.037.387l1.046.255a8.087,8.087,0,0,1,2.285.8,2.118,2.118,0,0,1,.923,1.907,2.906,2.906,0,0,1-.954,2.171,4.059,4.059,0,0,1-2.9.914,3.9,3.9,0,0,1-2.975-.954,3.606,3.606,0,0,1-.936-2.36ZM211.71,9.4a4.666,4.666,0,0,0,.642,2.531,2.248,2.248,0,0,0,2.057,1.02,2.166,2.166,0,0,0,1.806-.945,4.462,4.462,0,0,0,.708-2.711,4.009,4.009,0,0,0-.729-2.641,2.276,2.276,0,0,0-1.8-.857,2.378,2.378,0,0,0-1.938.914A4.186,4.186,0,0,0,211.71,9.4Zm2.382-4.983a3.349,3.349,0,0,1,1.811.457,4.253,4.253,0,0,1,.958.923V1.045h1.521V14h-1.424V12.69a3.423,3.423,0,0,1-1.31,1.257,3.748,3.748,0,0,1-1.731.387,3.506,3.506,0,0,1-2.725-1.323,5.172,5.172,0,0,1-1.151-3.52,6.076,6.076,0,0,1,1.05-3.564A3.439,3.439,0,0,1,214.092,4.42Zm10.549-.044a4.294,4.294,0,0,1,1.942.47,3.582,3.582,0,0,1,1.433,1.217,4.2,4.2,0,0,1,.633,1.661,10.868,10.868,0,0,1,.141,2.074h-6.9a4.026,4.026,0,0,0,.677,2.3,2.266,2.266,0,0,0,1.96.866,2.534,2.534,0,0,0,1.978-.817,2.755,2.755,0,0,0,.6-1.1h1.556a3.276,3.276,0,0,1-.409,1.156,4.111,4.111,0,0,1-.778,1.042,3.687,3.687,0,0,1-1.784.949,5.42,5.42,0,0,1-1.292.141,3.964,3.964,0,0,1-2.979-1.279,4.976,4.976,0,0,1-1.222-3.582,5.41,5.41,0,0,1,1.23-3.683A4.059,4.059,0,0,1,224.64,4.376Zm2.522,4.166a4.1,4.1,0,0,0-.448-1.644,2.3,2.3,0,0,0-2.171-1.143,2.406,2.406,0,0,0-1.828.787,2.972,2.972,0,0,0-.782,2ZM75.594,39.937a2.257,2.257,0,0,0,1.841-.927,4.413,4.413,0,0,0,.734-2.773,5.176,5.176,0,0,0-.325-1.934,2.383,2.383,0,0,0-4.5.088,6.514,6.514,0,0,0-.325,2.232,4.732,4.732,0,0,0,.325,1.854A2.243,2.243,0,0,0,75.594,39.937Zm-4.1-8.306h1.538v1.248a3.84,3.84,0,0,1,1.037-.993,3.338,3.338,0,0,1,1.881-.527,3.537,3.537,0,0,1,2.716,1.226,5.023,5.023,0,0,1,1.116,3.5q0,3.076-1.608,4.395a3.634,3.634,0,0,1-2.373.835,3.221,3.221,0,0,1-1.784-.466,4.111,4.111,0,0,1-.94-.905v4.808H71.5ZM82.846,38.5a1.3,1.3,0,0,0,.5,1.081,1.857,1.857,0,0,0,1.187.4,3.608,3.608,0,0,0,1.617-.387,2.176,2.176,0,0,0,1.318-2.1V36.21a2.707,2.707,0,0,1-.747.308,6.366,6.366,0,0,1-.9.176l-.958.123a3.664,3.664,0,0,0-1.292.36A1.4,1.4,0,0,0,82.846,38.5Zm3.832-3.2a.859.859,0,0,0,.729-.457,1.391,1.391,0,0,0,.105-.606,1.285,1.285,0,0,0-.576-1.173,3.089,3.089,0,0,0-1.648-.365,2.094,2.094,0,0,0-1.758.668,2.2,2.2,0,0,0-.378,1.1H81.678a2.718,2.718,0,0,1,1.129-2.421,4.637,4.637,0,0,1,2.518-.681,5.124,5.124,0,0,1,2.7.633,2.147,2.147,0,0,1,1.028,1.969v5.423a.694.694,0,0,0,.1.4.487.487,0,0,0,.426.149q.105,0,.237-.013t.281-.04v1.169a4.406,4.406,0,0,1-.562.132,4.111,4.111,0,0,1-.527.026,1.3,1.3,0,0,1-1.187-.58,2.239,2.239,0,0,1-.272-.87,4.025,4.025,0,0,1-1.389,1.1,4.3,4.3,0,0,1-2,.466,2.967,2.967,0,0,1-2.14-.8,2.642,2.642,0,0,1-.831-1.991,2.564,2.564,0,0,1,.817-2.03,3.889,3.889,0,0,1,2.145-.888Zm5.012-3.709h1.5v1.626a3.592,3.592,0,0,1,.905-1.156,2.347,2.347,0,0,1,1.661-.681q.044,0,.149.009t.36.035v1.67a2.363,2.363,0,0,0-.259-.035q-.119-.009-.259-.009a2.258,2.258,0,0,0-1.837.769,2.684,2.684,0,0,0-.642,1.771V41H91.69Zm6.268-2.628h1.6v2.628h1.5v1.292h-1.5v6.144a.665.665,0,0,0,.334.659,1.42,1.42,0,0,0,.615.1q.114,0,.246,0t.308-.022V41a3.532,3.532,0,0,1-.567.114,5.39,5.39,0,0,1-.637.035,1.717,1.717,0,0,1-1.5-.567,2.519,2.519,0,0,1-.4-1.472V32.879H96.684V31.587h1.274Zm4.686,2.672h1.608V41h-1.608Zm0-3.542h1.608v1.793h-1.608Zm7.631,3.226a4.1,4.1,0,0,1,2.588.773,3.705,3.705,0,0,1,1.2,2.663h-1.538a2.839,2.839,0,0,0-.642-1.446,2.027,2.027,0,0,0-1.608-.576,2.222,2.222,0,0,0-2.162,1.477,5.865,5.865,0,0,0-.422,2.364,4.449,4.449,0,0,0,.6,2.382,2.317,2.317,0,0,0,3.441.365,3.311,3.311,0,0,0,.8-1.648h1.538a3.72,3.72,0,0,1-4.017,3.6,3.6,3.6,0,0,1-2.944-1.349,5.164,5.164,0,0,1-1.1-3.371,5.678,5.678,0,0,1,1.2-3.858A3.891,3.891,0,0,1,110.276,31.314Zm5.372.316h1.608V41h-1.608Zm0-3.542h1.608v1.793h-1.608Zm7.973,11.848a2.257,2.257,0,0,0,1.841-.927,4.413,4.413,0,0,0,.734-2.773,5.176,5.176,0,0,0-.325-1.934,2.383,2.383,0,0,0-4.5.088,6.514,6.514,0,0,0-.325,2.232,4.732,4.732,0,0,0,.325,1.854A2.243,2.243,0,0,0,123.621,39.937Zm-4.1-8.306h1.538v1.248a3.84,3.84,0,0,1,1.037-.993,3.338,3.338,0,0,1,1.881-.527,3.537,3.537,0,0,1,2.716,1.226,5.023,5.023,0,0,1,1.116,3.5q0,3.076-1.608,4.395a3.634,3.634,0,0,1-2.373.835,3.221,3.221,0,0,1-1.784-.466,4.111,4.111,0,0,1-.94-.905v4.808h-1.582ZM130.874,38.5a1.3,1.3,0,0,0,.5,1.081,1.857,1.857,0,0,0,1.187.4,3.608,3.608,0,0,0,1.617-.387,2.176,2.176,0,0,0,1.318-2.1V36.21a2.707,2.707,0,0,1-.747.308,6.366,6.366,0,0,1-.9.176l-.958.123a3.664,3.664,0,0,0-1.292.36A1.4,1.4,0,0,0,130.874,38.5Zm3.832-3.2a.859.859,0,0,0,.729-.457,1.391,1.391,0,0,0,.105-.606,1.285,1.285,0,0,0-.576-1.173,3.089,3.089,0,0,0-1.648-.365,2.094,2.094,0,0,0-1.758.668,2.2,2.2,0,0,0-.378,1.1H129.7a2.718,2.718,0,0,1,1.129-2.421,4.637,4.637,0,0,1,2.518-.681,5.124,5.124,0,0,1,2.7.633,2.147,2.147,0,0,1,1.028,1.969v5.423a.694.694,0,0,0,.1.4.487.487,0,0,0,.426.149q.105,0,.237-.013t.281-.04v1.169a4.406,4.406,0,0,1-.562.132,4.111,4.111,0,0,1-.527.026,1.3,1.3,0,0,1-1.187-.58,2.239,2.239,0,0,1-.272-.87,4.025,4.025,0,0,1-1.389,1.1,4.3,4.3,0,0,1-2,.466,2.967,2.967,0,0,1-2.14-.8,2.642,2.642,0,0,1-.831-1.991,2.564,2.564,0,0,1,.817-2.03,3.889,3.889,0,0,1,2.145-.888Zm8.6-3.981a4.1,4.1,0,0,1,2.588.773,3.705,3.705,0,0,1,1.2,2.663h-1.538a2.839,2.839,0,0,0-.642-1.446,2.027,2.027,0,0,0-1.608-.576,2.222,2.222,0,0,0-2.162,1.477,5.865,5.865,0,0,0-.422,2.364,4.449,4.449,0,0,0,.6,2.382,2.317,2.317,0,0,0,3.441.365,3.311,3.311,0,0,0,.8-1.648h1.538a3.72,3.72,0,0,1-4.017,3.6,3.6,3.6,0,0,1-2.944-1.349,5.164,5.164,0,0,1-1.1-3.371,5.678,5.678,0,0,1,1.2-3.858A3.891,3.891,0,0,1,143.3,31.314Zm5.372.316h1.608V41h-1.608Zm0-3.542h1.608v1.793h-1.608Zm7.736,11.892a2.182,2.182,0,0,0,2.158-1.191,5.933,5.933,0,0,0,.584-2.65A4.718,4.718,0,0,0,158.732,34a2.373,2.373,0,0,0-2.3-1.3A2.271,2.271,0,0,0,154.32,33.8a5.133,5.133,0,0,0-.659,2.672,4.465,4.465,0,0,0,.659,2.5A2.322,2.322,0,0,0,156.411,39.98Zm.062-8.666a4.262,4.262,0,0,1,3.076,1.213,4.736,4.736,0,0,1,1.257,3.568,6.122,6.122,0,0,1-1.107,3.762,4.006,4.006,0,0,1-3.437,1.485,3.88,3.88,0,0,1-3.085-1.314,5.19,5.19,0,0,1-1.143-3.529,5.615,5.615,0,0,1,1.2-3.779A4.041,4.041,0,0,1,156.473,31.314ZM158.31,27.8l-2.347,2.54H154.75l1.608-2.54Zm4.379,3.788h1.5v1.336a4.215,4.215,0,0,1,1.415-1.187,3.773,3.773,0,0,1,1.661-.36,2.739,2.739,0,0,1,2.707,1.4,4.962,4.962,0,0,1,.387,2.188V41h-1.608V35.067a3.212,3.212,0,0,0-.255-1.389,1.545,1.545,0,0,0-1.529-.879,3.114,3.114,0,0,0-.923.114,2.377,2.377,0,0,0-1.143.773,2.329,2.329,0,0,0-.514.962,6.478,6.478,0,0,0-.119,1.419V41h-1.582Z" transform="translate(0 42.896)" fill="#212429"/>
      </g>
      <g id="Grupo_1157249" data-name="Grupo 1157249" transform="translate(712 1379.104)">
        <path id="Contenido-3" data-name="Contenido" d="M78.91,23.527q-4.058,0-5.691-2.842t-1.633-8.1q0-5.259,1.633-8.115T78.91,1.613q4.058,0,5.7,2.856t1.626,8.115q0,5.259-1.633,8.1T78.91,23.527Zm2.446-5.347a20.9,20.9,0,0,0,.571-5.6A20.5,20.5,0,0,0,81.349,6.9,2.364,2.364,0,0,0,78.91,5.056,2.4,2.4,0,0,0,76.449,6.9a19.784,19.784,0,0,0-.6,5.684,20.007,20.007,0,0,0,.6,5.6,2.52,2.52,0,0,0,4.907-.007Zm16.406-12.1a3.046,3.046,0,0,0-4.731.527,7.047,7.047,0,0,0-.469,2.607H88.5a10.261,10.261,0,0,1,.981-4.38q1.67-3.179,5.933-3.179a7.523,7.523,0,0,1,5.361,1.868,6.458,6.458,0,0,1,1.992,4.944,6.693,6.693,0,0,1-1.406,4.189,14.01,14.01,0,0,1-3.032,2.71l-1.67,1.187q-1.567,1.113-2.146,1.611a4.722,4.722,0,0,0-.974,1.157h9.272V23H88.27a9.981,9.981,0,0,1,.981-4.175q.894-2.124,4.219-4.5a30.938,30.938,0,0,0,3.735-2.959,4.373,4.373,0,0,0,1.3-3.047A3.375,3.375,0,0,0,97.762,6.081Zm8.13,12.554h4.438V23h-4.438Z" transform="translate(0 -0.104)" fill="#212429"/>
        <path id="Contenido-4" data-name="Contenido" d="M38.888,1.089h1.767V6.424h6.715V1.089h1.767V14H47.369V7.962H40.654V14H38.888ZM55.553,4.376a4.294,4.294,0,0,1,1.942.47,3.582,3.582,0,0,1,1.433,1.217,4.2,4.2,0,0,1,.633,1.661A10.868,10.868,0,0,1,59.7,9.8H52.8a4.026,4.026,0,0,0,.677,2.3,2.266,2.266,0,0,0,1.96.866,2.534,2.534,0,0,0,1.978-.817,2.755,2.755,0,0,0,.6-1.1H59.57a3.276,3.276,0,0,1-.409,1.156,4.111,4.111,0,0,1-.778,1.042,3.687,3.687,0,0,1-1.784.949,5.42,5.42,0,0,1-1.292.141,3.964,3.964,0,0,1-2.979-1.279,4.976,4.976,0,0,1-1.222-3.582,5.41,5.41,0,0,1,1.23-3.683A4.059,4.059,0,0,1,55.553,4.376Zm2.522,4.166A4.1,4.1,0,0,0,57.628,6.9a2.3,2.3,0,0,0-2.171-1.143,2.406,2.406,0,0,0-1.828.787,2.972,2.972,0,0,0-.782,2ZM61.69,4.587h1.5V6.213A3.592,3.592,0,0,1,64.1,5.057a2.347,2.347,0,0,1,1.661-.681q.044,0,.149.009t.36.035V6.09a2.363,2.363,0,0,0-.259-.035q-.119-.009-.259-.009a2.258,2.258,0,0,0-1.837.769,2.684,2.684,0,0,0-.642,1.771V14H61.69Zm6,0h1.5V6.213a3.592,3.592,0,0,1,.905-1.156,2.347,2.347,0,0,1,1.661-.681q.044,0,.149.009t.36.035V6.09a2.363,2.363,0,0,0-.259-.035q-.119-.009-.259-.009a2.258,2.258,0,0,0-1.837.769,2.684,2.684,0,0,0-.642,1.771V14H67.686ZM74.851,11.5a1.3,1.3,0,0,0,.5,1.081,1.857,1.857,0,0,0,1.187.4,3.608,3.608,0,0,0,1.617-.387,2.176,2.176,0,0,0,1.318-2.1V9.21a2.707,2.707,0,0,1-.747.308,6.366,6.366,0,0,1-.9.176l-.958.123a3.664,3.664,0,0,0-1.292.36A1.4,1.4,0,0,0,74.851,11.5Zm3.832-3.2a.859.859,0,0,0,.729-.457,1.391,1.391,0,0,0,.105-.606,1.285,1.285,0,0,0-.576-1.173,3.089,3.089,0,0,0-1.648-.365,2.094,2.094,0,0,0-1.758.668,2.2,2.2,0,0,0-.378,1.1H73.682A2.718,2.718,0,0,1,74.811,5.04a4.637,4.637,0,0,1,2.518-.681,5.124,5.124,0,0,1,2.7.633A2.147,2.147,0,0,1,81.056,6.96v5.423a.694.694,0,0,0,.1.4.487.487,0,0,0,.426.149q.105,0,.237-.013t.281-.04v1.169a4.406,4.406,0,0,1-.562.132,4.111,4.111,0,0,1-.527.026,1.3,1.3,0,0,1-1.187-.58,2.239,2.239,0,0,1-.272-.87,4.025,4.025,0,0,1-1.389,1.1,4.3,4.3,0,0,1-2,.466,2.967,2.967,0,0,1-2.14-.8A2.642,2.642,0,0,1,73.2,11.53a2.564,2.564,0,0,1,.817-2.03,3.889,3.889,0,0,1,2.145-.888ZM83.65,4.587h1.564V5.923a5.258,5.258,0,0,1,1.02-1.011,3.066,3.066,0,0,1,1.775-.536,2.794,2.794,0,0,1,1.811.554,2.894,2.894,0,0,1,.7.932,3.419,3.419,0,0,1,1.239-1.121,3.457,3.457,0,0,1,1.6-.365,2.616,2.616,0,0,1,2.584,1.371,4.482,4.482,0,0,1,.369,1.986V14H94.672V7.461a1.523,1.523,0,0,0-.47-1.292,1.861,1.861,0,0,0-1.147-.352,2.277,2.277,0,0,0-1.6.624,2.74,2.74,0,0,0-.672,2.083V14H89.17V7.856a3.192,3.192,0,0,0-.229-1.4A1.394,1.394,0,0,0,87.6,5.8a2.32,2.32,0,0,0-1.63.694,3.4,3.4,0,0,0-.734,2.514V14H83.65Zm15,.044h1.608V14H98.646Zm0-3.542h1.608V2.882H98.646Zm7.921,3.287a4.294,4.294,0,0,1,1.942.47,3.582,3.582,0,0,1,1.433,1.217,4.2,4.2,0,0,1,.633,1.661,10.868,10.868,0,0,1,.141,2.074h-6.9a4.026,4.026,0,0,0,.677,2.3,2.266,2.266,0,0,0,1.96.866,2.534,2.534,0,0,0,1.978-.817,2.755,2.755,0,0,0,.6-1.1h1.556a3.276,3.276,0,0,1-.409,1.156,4.111,4.111,0,0,1-.778,1.042,3.687,3.687,0,0,1-1.784.949,5.42,5.42,0,0,1-1.292.141,3.964,3.964,0,0,1-2.979-1.279,4.976,4.976,0,0,1-1.222-3.582,5.41,5.41,0,0,1,1.23-3.683A4.059,4.059,0,0,1,106.567,4.376Zm2.522,4.166a4.1,4.1,0,0,0-.448-1.644,2.3,2.3,0,0,0-2.171-1.143,2.406,2.406,0,0,0-1.828.787,2.972,2.972,0,0,0-.782,2Zm3.57-3.955h1.5V5.923a4.215,4.215,0,0,1,1.415-1.187,3.773,3.773,0,0,1,1.661-.36,2.739,2.739,0,0,1,2.707,1.4,4.962,4.962,0,0,1,.387,2.188V14h-1.608V8.067a3.212,3.212,0,0,0-.255-1.389A1.545,1.545,0,0,0,116.94,5.8a3.114,3.114,0,0,0-.923.114,2.377,2.377,0,0,0-1.143.773,2.329,2.329,0,0,0-.514.962,6.478,6.478,0,0,0-.119,1.419V14H112.66Zm10.329-2.628h1.6V4.587h1.5V5.879h-1.5v6.144a.665.665,0,0,0,.334.659,1.42,1.42,0,0,0,.615.1q.114,0,.246,0t.308-.022V14a3.532,3.532,0,0,1-.567.114,5.39,5.39,0,0,1-.637.035,1.717,1.717,0,0,1-1.5-.567,2.519,2.519,0,0,1-.4-1.472V5.879h-1.274V4.587h1.274Zm5.9,9.536a1.3,1.3,0,0,0,.5,1.081,1.857,1.857,0,0,0,1.187.4,3.608,3.608,0,0,0,1.617-.387,2.176,2.176,0,0,0,1.318-2.1V9.21a2.707,2.707,0,0,1-.747.308,6.366,6.366,0,0,1-.9.176l-.958.123a3.664,3.664,0,0,0-1.292.36A1.4,1.4,0,0,0,128.888,11.5Zm3.832-3.2a.859.859,0,0,0,.729-.457,1.391,1.391,0,0,0,.105-.606,1.285,1.285,0,0,0-.576-1.173,3.089,3.089,0,0,0-1.648-.365,2.094,2.094,0,0,0-1.758.668,2.2,2.2,0,0,0-.378,1.1h-1.477a2.718,2.718,0,0,1,1.129-2.421,4.637,4.637,0,0,1,2.518-.681,5.124,5.124,0,0,1,2.7.633,2.147,2.147,0,0,1,1.028,1.969v5.423a.694.694,0,0,0,.1.4.487.487,0,0,0,.426.149q.105,0,.237-.013t.281-.04v1.169a4.406,4.406,0,0,1-.562.132,4.111,4.111,0,0,1-.527.026,1.3,1.3,0,0,1-1.187-.58,2.239,2.239,0,0,1-.272-.87,4.025,4.025,0,0,1-1.389,1.1,4.3,4.3,0,0,1-2,.466,2.967,2.967,0,0,1-2.14-.8,2.642,2.642,0,0,1-.831-1.991,2.564,2.564,0,0,1,.817-2.03,3.889,3.889,0,0,1,2.145-.888Zm5.908,2.751a2.3,2.3,0,0,0,.4,1.213,2.485,2.485,0,0,0,2.074.765,3.059,3.059,0,0,0,1.547-.382,1.27,1.27,0,0,0,.668-1.182,1.011,1.011,0,0,0-.536-.923,6.374,6.374,0,0,0-1.354-.448l-1.257-.316a6.131,6.131,0,0,1-1.775-.668,2,2,0,0,1-1.02-1.775,2.713,2.713,0,0,1,.962-2.162,3.839,3.839,0,0,1,2.588-.826,3.593,3.593,0,0,1,3.067,1.248,2.708,2.708,0,0,1,.571,1.705h-1.494a1.83,1.83,0,0,0-.378-.976,2.41,2.41,0,0,0-1.89-.624,2.259,2.259,0,0,0-1.358.343,1.074,1.074,0,0,0-.461.905,1.114,1.114,0,0,0,.606.984,3.644,3.644,0,0,0,1.037.387l1.046.255a8.087,8.087,0,0,1,2.285.8,2.118,2.118,0,0,1,.923,1.907,2.906,2.906,0,0,1-.954,2.171,4.059,4.059,0,0,1-2.9.914,3.9,3.9,0,0,1-2.975-.954,3.606,3.606,0,0,1-.936-2.36ZM27.749,31.314a4.1,4.1,0,0,1,2.588.773,3.705,3.705,0,0,1,1.2,2.663H30a2.839,2.839,0,0,0-.642-1.446,2.027,2.027,0,0,0-1.608-.576,2.222,2.222,0,0,0-2.162,1.477,5.865,5.865,0,0,0-.422,2.364,4.449,4.449,0,0,0,.6,2.382,2.317,2.317,0,0,0,3.441.365,3.311,3.311,0,0,0,.8-1.648h1.538a3.72,3.72,0,0,1-4.017,3.6,3.6,3.6,0,0,1-2.944-1.349,5.164,5.164,0,0,1-1.1-3.371,5.678,5.678,0,0,1,1.2-3.858A3.891,3.891,0,0,1,27.749,31.314Zm9.107,8.666a2.182,2.182,0,0,0,2.158-1.191,5.933,5.933,0,0,0,.584-2.65A4.718,4.718,0,0,0,39.177,34a2.373,2.373,0,0,0-2.3-1.3A2.271,2.271,0,0,0,34.765,33.8a5.133,5.133,0,0,0-.659,2.672,4.465,4.465,0,0,0,.659,2.5A2.322,2.322,0,0,0,36.856,39.98Zm.062-8.666a4.262,4.262,0,0,1,3.076,1.213A4.736,4.736,0,0,1,41.251,36.1a6.122,6.122,0,0,1-1.107,3.762,4.006,4.006,0,0,1-3.437,1.485,3.88,3.88,0,0,1-3.085-1.314A5.19,5.19,0,0,1,32.479,36.5a5.615,5.615,0,0,1,1.2-3.779A4.041,4.041,0,0,1,36.918,31.314Zm6.216.272H44.7v1.336a5.258,5.258,0,0,1,1.02-1.011,3.066,3.066,0,0,1,1.775-.536,2.794,2.794,0,0,1,1.811.554,2.894,2.894,0,0,1,.7.932,3.419,3.419,0,0,1,1.239-1.121,3.457,3.457,0,0,1,1.6-.365,2.616,2.616,0,0,1,2.584,1.371,4.482,4.482,0,0,1,.369,1.986V41H54.155V34.461a1.523,1.523,0,0,0-.47-1.292,1.861,1.861,0,0,0-1.147-.352,2.277,2.277,0,0,0-1.6.624,2.74,2.74,0,0,0-.672,2.083V41H48.653V34.856a3.192,3.192,0,0,0-.229-1.4A1.394,1.394,0,0,0,47.08,32.8a2.32,2.32,0,0,0-1.63.694,3.4,3.4,0,0,0-.734,2.514V41H43.134ZM62.1,39.937a2.257,2.257,0,0,0,1.841-.927,4.413,4.413,0,0,0,.734-2.773,5.176,5.176,0,0,0-.325-1.934,2.383,2.383,0,0,0-4.5.088,6.514,6.514,0,0,0-.325,2.232,4.732,4.732,0,0,0,.325,1.854A2.243,2.243,0,0,0,62.1,39.937Zm-4.1-8.306h1.538v1.248a3.84,3.84,0,0,1,1.037-.993,3.338,3.338,0,0,1,1.881-.527,3.537,3.537,0,0,1,2.716,1.226,5.023,5.023,0,0,1,1.116,3.5q0,3.076-1.608,4.395a3.634,3.634,0,0,1-2.373.835,3.221,3.221,0,0,1-1.784-.466,4.111,4.111,0,0,1-.94-.905v4.808H58.006Zm10.18-3.542h1.582V41H68.186Zm7.877,3.287a4.294,4.294,0,0,1,1.942.47,3.582,3.582,0,0,1,1.433,1.217,4.2,4.2,0,0,1,.633,1.661,10.868,10.868,0,0,1,.141,2.074h-6.9a4.026,4.026,0,0,0,.677,2.3,2.266,2.266,0,0,0,1.96.866,2.534,2.534,0,0,0,1.978-.817,2.755,2.755,0,0,0,.6-1.1h1.556a3.276,3.276,0,0,1-.409,1.156,4.111,4.111,0,0,1-.778,1.042,3.687,3.687,0,0,1-1.784.949,5.42,5.42,0,0,1-1.292.141,3.964,3.964,0,0,1-2.979-1.279,4.976,4.976,0,0,1-1.222-3.582,5.41,5.41,0,0,1,1.23-3.683A4.059,4.059,0,0,1,76.063,31.376Zm2.522,4.166a4.1,4.1,0,0,0-.448-1.644,2.3,2.3,0,0,0-2.171-1.143,2.406,2.406,0,0,0-1.828.787,2.972,2.972,0,0,0-.782,2Zm3.57-3.955H83.72v1.336a5.258,5.258,0,0,1,1.02-1.011,3.066,3.066,0,0,1,1.775-.536,2.794,2.794,0,0,1,1.811.554,2.894,2.894,0,0,1,.7.932,3.419,3.419,0,0,1,1.239-1.121,3.457,3.457,0,0,1,1.6-.365,2.616,2.616,0,0,1,2.584,1.371,4.482,4.482,0,0,1,.369,1.986V41H93.177V34.461a1.523,1.523,0,0,0-.47-1.292,1.861,1.861,0,0,0-1.147-.352,2.277,2.277,0,0,0-1.6.624,2.74,2.74,0,0,0-.672,2.083V41H87.675V34.856a3.192,3.192,0,0,0-.229-1.4A1.394,1.394,0,0,0,86.1,32.8a2.32,2.32,0,0,0-1.63.694,3.4,3.4,0,0,0-.734,2.514V41H82.155Zm18.916-.211a4.294,4.294,0,0,1,1.942.47,3.582,3.582,0,0,1,1.433,1.217,4.2,4.2,0,0,1,.633,1.661,10.868,10.868,0,0,1,.141,2.074h-6.9A4.026,4.026,0,0,0,99,39.1a2.266,2.266,0,0,0,1.96.866,2.534,2.534,0,0,0,1.978-.817,2.755,2.755,0,0,0,.6-1.1h1.556a3.276,3.276,0,0,1-.409,1.156,4.111,4.111,0,0,1-.778,1.042,3.687,3.687,0,0,1-1.784.949,5.42,5.42,0,0,1-1.292.141,3.964,3.964,0,0,1-2.979-1.279,4.976,4.976,0,0,1-1.222-3.582,5.41,5.41,0,0,1,1.23-3.683A4.059,4.059,0,0,1,101.071,31.376Zm2.522,4.166a4.1,4.1,0,0,0-.448-1.644,2.3,2.3,0,0,0-2.171-1.143,2.406,2.406,0,0,0-1.828.787,2.972,2.972,0,0,0-.782,2Zm3.57-3.955h1.5v1.336a4.215,4.215,0,0,1,1.415-1.187,3.773,3.773,0,0,1,1.661-.36,2.739,2.739,0,0,1,2.707,1.4,4.962,4.962,0,0,1,.387,2.188V41h-1.608V35.067a3.212,3.212,0,0,0-.255-1.389,1.545,1.545,0,0,0-1.529-.879,3.114,3.114,0,0,0-.923.114,2.377,2.377,0,0,0-1.143.773,2.329,2.329,0,0,0-.514.962,6.478,6.478,0,0,0-.119,1.419V41h-1.582Zm10.329-2.628h1.6v2.628h1.5v1.292h-1.5v6.144a.665.665,0,0,0,.334.659,1.42,1.42,0,0,0,.615.1q.114,0,.246,0t.308-.022V41a3.532,3.532,0,0,1-.567.114,5.39,5.39,0,0,1-.637.035,1.717,1.717,0,0,1-1.5-.567,2.519,2.519,0,0,1-.4-1.472V32.879h-1.274V31.587h1.274Zm5.9,9.536a1.3,1.3,0,0,0,.5,1.081,1.857,1.857,0,0,0,1.187.4,3.608,3.608,0,0,0,1.617-.387,2.176,2.176,0,0,0,1.318-2.1V36.21a2.707,2.707,0,0,1-.747.308,6.366,6.366,0,0,1-.9.176l-.958.123a3.664,3.664,0,0,0-1.292.36A1.4,1.4,0,0,0,123.392,38.5Zm3.832-3.2a.859.859,0,0,0,.729-.457,1.39,1.39,0,0,0,.105-.606,1.285,1.285,0,0,0-.576-1.173,3.089,3.089,0,0,0-1.648-.365,2.094,2.094,0,0,0-1.758.668,2.2,2.2,0,0,0-.378,1.1h-1.477a2.718,2.718,0,0,1,1.129-2.421,4.637,4.637,0,0,1,2.518-.681,5.124,5.124,0,0,1,2.7.633A2.147,2.147,0,0,1,129.6,33.96v5.423a.694.694,0,0,0,.1.4.487.487,0,0,0,.426.149q.105,0,.237-.013t.281-.04v1.169a4.406,4.406,0,0,1-.562.132,4.111,4.111,0,0,1-.527.026,1.3,1.3,0,0,1-1.187-.58,2.239,2.239,0,0,1-.272-.87,4.025,4.025,0,0,1-1.389,1.1,4.3,4.3,0,0,1-2,.466,2.967,2.967,0,0,1-2.14-.8,2.642,2.642,0,0,1-.831-1.991,2.564,2.564,0,0,1,.817-2.03,3.889,3.889,0,0,1,2.145-.888Zm5.012-3.709h1.5v1.626a3.592,3.592,0,0,1,.905-1.156,2.347,2.347,0,0,1,1.661-.681q.044,0,.149.009t.36.035v1.67a2.363,2.363,0,0,0-.259-.035q-.119-.009-.259-.009a2.258,2.258,0,0,0-1.837.769,2.684,2.684,0,0,0-.642,1.771V41h-1.582Zm5.952.044H139.8V41h-1.608Zm0-3.542H139.8v1.793h-1.608ZM143.4,38.5a1.3,1.3,0,0,0,.5,1.081,1.857,1.857,0,0,0,1.187.4,3.608,3.608,0,0,0,1.617-.387,2.176,2.176,0,0,0,1.318-2.1V36.21a2.707,2.707,0,0,1-.747.308,6.366,6.366,0,0,1-.9.176l-.958.123a3.664,3.664,0,0,0-1.292.36A1.4,1.4,0,0,0,143.4,38.5Zm3.832-3.2a.859.859,0,0,0,.729-.457,1.391,1.391,0,0,0,.105-.606,1.285,1.285,0,0,0-.576-1.173,3.089,3.089,0,0,0-1.648-.365,2.094,2.094,0,0,0-1.758.668,2.2,2.2,0,0,0-.378,1.1h-1.477a2.718,2.718,0,0,1,1.129-2.421,4.637,4.637,0,0,1,2.518-.681,5.124,5.124,0,0,1,2.7.633,2.147,2.147,0,0,1,1.028,1.969v5.423a.694.694,0,0,0,.1.4.487.487,0,0,0,.426.149q.105,0,.237-.013t.281-.04v1.169a4.406,4.406,0,0,1-.562.132,4.111,4.111,0,0,1-.527.026,1.3,1.3,0,0,1-1.187-.58,2.239,2.239,0,0,1-.272-.87,4.025,4.025,0,0,1-1.389,1.1,4.3,4.3,0,0,1-2,.466,2.967,2.967,0,0,1-2.14-.8,2.642,2.642,0,0,1-.831-1.991,2.564,2.564,0,0,1,.817-2.03,3.889,3.889,0,0,1,2.145-.888Zm5.908,2.751a2.3,2.3,0,0,0,.4,1.213,2.485,2.485,0,0,0,2.074.765,3.059,3.059,0,0,0,1.547-.382,1.27,1.27,0,0,0,.668-1.182,1.011,1.011,0,0,0-.536-.923,6.374,6.374,0,0,0-1.354-.448l-1.257-.316A6.131,6.131,0,0,1,152.9,36.1a2,2,0,0,1-1.02-1.775,2.713,2.713,0,0,1,.962-2.162,3.839,3.839,0,0,1,2.588-.826,3.593,3.593,0,0,1,3.067,1.248,2.708,2.708,0,0,1,.571,1.705H157.58a1.83,1.83,0,0,0-.378-.976,2.41,2.41,0,0,0-1.89-.624,2.259,2.259,0,0,0-1.358.343,1.074,1.074,0,0,0-.461.905,1.114,1.114,0,0,0,.606.984,3.644,3.644,0,0,0,1.037.387l1.046.255a8.087,8.087,0,0,1,2.285.8,2.118,2.118,0,0,1,.923,1.907,2.906,2.906,0,0,1-.954,2.171,4.059,4.059,0,0,1-2.9.914,3.9,3.9,0,0,1-2.975-.954,3.606,3.606,0,0,1-.936-2.36Z" transform="translate(0 42.896)" fill="#212429"/>
      </g>
      <g id="Grupo_1157250" data-name="Grupo 1157250" transform="translate(968 1379.104)">
        <path id="Contenido-5" data-name="Contenido" d="M144.41,23.527q-4.058,0-5.691-2.842t-1.633-8.1q0-5.259,1.633-8.115t5.691-2.856q4.058,0,5.7,2.856t1.626,8.115q0,5.259-1.633,8.1T144.41,23.527Zm2.446-5.347a20.9,20.9,0,0,0,.571-5.6,20.5,20.5,0,0,0-.579-5.684,2.364,2.364,0,0,0-2.439-1.846A2.4,2.4,0,0,0,141.949,6.9a19.784,19.784,0,0,0-.6,5.684,20.007,20.007,0,0,0,.6,5.6,2.52,2.52,0,0,0,4.907-.007ZM158.575,5.993a3.948,3.948,0,0,0-.674,2.5H154a10.477,10.477,0,0,1,.542-3,6.759,6.759,0,0,1,1.611-2.3,5.614,5.614,0,0,1,1.948-1.143,8.431,8.431,0,0,1,2.769-.4,7.368,7.368,0,0,1,4.915,1.575,5.245,5.245,0,0,1,1.868,4.226,4.672,4.672,0,0,1-1.113,3.164,3.8,3.8,0,0,1-1.465,1.1,3.013,3.013,0,0,1,1.641.981,5.241,5.241,0,0,1,1.6,4.043,6.81,6.81,0,0,1-1.868,4.739,7.119,7.119,0,0,1-5.53,2.043q-4.512,0-6.27-2.944a8.739,8.739,0,0,1-1.025-4.1h4.1a4.775,4.775,0,0,0,.41,2.109,2.81,2.81,0,0,0,2.769,1.538,3.068,3.068,0,0,0,2.146-.842,3.13,3.13,0,0,0,.916-2.424,2.731,2.731,0,0,0-1.7-2.8,8.626,8.626,0,0,0-3.047-.4V10.681a7.905,7.905,0,0,0,2.842-.4,2.443,2.443,0,0,0,1.392-2.49,2.783,2.783,0,0,0-.71-1.978,2.6,2.6,0,0,0-2-.762A2.51,2.51,0,0,0,158.575,5.993Zm12.817,12.642h4.438V23h-4.438Z" transform="translate(0 -0.104)" fill="#212429"/>
        <path id="Contenido-6" data-name="Contenido" d="M10.949,1.089h9.413V2.671H12.654v3.92h7.128V8.085H12.654v4.377h7.84V14H10.949Zm12.57,9.958a2.3,2.3,0,0,0,.4,1.213,2.485,2.485,0,0,0,2.074.765,3.059,3.059,0,0,0,1.547-.382A1.27,1.27,0,0,0,28.2,11.46a1.011,1.011,0,0,0-.536-.923,6.374,6.374,0,0,0-1.354-.448l-1.257-.316A6.131,6.131,0,0,1,23.282,9.1a2,2,0,0,1-1.02-1.775,2.713,2.713,0,0,1,.962-2.162,3.839,3.839,0,0,1,2.588-.826A3.593,3.593,0,0,1,28.88,5.589a2.708,2.708,0,0,1,.571,1.705H27.957a1.83,1.83,0,0,0-.378-.976,2.41,2.41,0,0,0-1.89-.624,2.259,2.259,0,0,0-1.358.343,1.074,1.074,0,0,0-.461.905,1.114,1.114,0,0,0,.606.984,3.644,3.644,0,0,0,1.037.387l1.046.255a8.087,8.087,0,0,1,2.285.8,2.118,2.118,0,0,1,.923,1.907,2.906,2.906,0,0,1-.954,2.171,4.059,4.059,0,0,1-2.9.914,3.9,3.9,0,0,1-2.975-.954A3.606,3.606,0,0,1,22,11.047ZM31.9,1.959h1.6V4.587H35V5.879H33.5v6.144a.665.665,0,0,0,.334.659,1.42,1.42,0,0,0,.615.1q.114,0,.246,0T35,12.752V14a3.532,3.532,0,0,1-.567.114,5.39,5.39,0,0,1-.637.035,1.717,1.717,0,0,1-1.5-.567,2.519,2.519,0,0,1-.4-1.472V5.879H30.622V4.587H31.9ZM37.8,11.5a1.3,1.3,0,0,0,.5,1.081,1.857,1.857,0,0,0,1.187.4,3.608,3.608,0,0,0,1.617-.387,2.176,2.176,0,0,0,1.318-2.1V9.21a2.707,2.707,0,0,1-.747.308,6.366,6.366,0,0,1-.9.176l-.958.123a3.664,3.664,0,0,0-1.292.36A1.4,1.4,0,0,0,37.8,11.5Zm3.832-3.2a.859.859,0,0,0,.729-.457,1.391,1.391,0,0,0,.105-.606,1.285,1.285,0,0,0-.576-1.173,3.089,3.089,0,0,0-1.648-.365,2.094,2.094,0,0,0-1.758.668,2.2,2.2,0,0,0-.378,1.1H36.627A2.718,2.718,0,0,1,37.756,5.04a4.637,4.637,0,0,1,2.518-.681,5.124,5.124,0,0,1,2.7.633A2.147,2.147,0,0,1,44,6.96v5.423a.694.694,0,0,0,.1.4.487.487,0,0,0,.426.149q.105,0,.237-.013t.281-.04v1.169a4.406,4.406,0,0,1-.562.132,4.111,4.111,0,0,1-.527.026,1.3,1.3,0,0,1-1.187-.58,2.239,2.239,0,0,1-.272-.87,4.025,4.025,0,0,1-1.389,1.1,4.3,4.3,0,0,1-2,.466,2.967,2.967,0,0,1-2.14-.8,2.642,2.642,0,0,1-.831-1.991,2.564,2.564,0,0,1,.817-2.03,3.889,3.889,0,0,1,2.145-.888ZM42.3.8l-2.347,2.54H38.736L40.345.8Zm4.3,3.788h1.5V5.923a4.215,4.215,0,0,1,1.415-1.187,3.773,3.773,0,0,1,1.661-.36,2.739,2.739,0,0,1,2.707,1.4,4.962,4.962,0,0,1,.387,2.188V14H52.66V8.067a3.212,3.212,0,0,0-.255-1.389A1.545,1.545,0,0,0,50.876,5.8a3.114,3.114,0,0,0-.923.114,2.377,2.377,0,0,0-1.143.773,2.329,2.329,0,0,0-.514.962,6.478,6.478,0,0,0-.119,1.419V14H46.6ZM57.61,9.4a4.666,4.666,0,0,0,.642,2.531,2.248,2.248,0,0,0,2.057,1.02,2.166,2.166,0,0,0,1.806-.945A4.462,4.462,0,0,0,62.822,9.3a4.009,4.009,0,0,0-.729-2.641,2.276,2.276,0,0,0-1.8-.857,2.378,2.378,0,0,0-1.938.914A4.186,4.186,0,0,0,57.61,9.4ZM59.992,4.42a3.349,3.349,0,0,1,1.811.457,4.253,4.253,0,0,1,.958.923V1.045h1.521V14H62.857V12.69a3.423,3.423,0,0,1-1.31,1.257,3.748,3.748,0,0,1-1.731.387,3.506,3.506,0,0,1-2.725-1.323,5.172,5.172,0,0,1-1.151-3.52,6.076,6.076,0,0,1,1.05-3.564A3.439,3.439,0,0,1,59.992,4.42ZM67.834,11.5a1.3,1.3,0,0,0,.5,1.081,1.857,1.857,0,0,0,1.187.4,3.608,3.608,0,0,0,1.617-.387,2.176,2.176,0,0,0,1.318-2.1V9.21a2.707,2.707,0,0,1-.747.308,6.366,6.366,0,0,1-.9.176l-.958.123a3.664,3.664,0,0,0-1.292.36A1.4,1.4,0,0,0,67.834,11.5Zm3.832-3.2a.859.859,0,0,0,.729-.457,1.391,1.391,0,0,0,.105-.606,1.285,1.285,0,0,0-.576-1.173,3.089,3.089,0,0,0-1.648-.365,2.094,2.094,0,0,0-1.758.668,2.2,2.2,0,0,0-.378,1.1H66.665A2.718,2.718,0,0,1,67.794,5.04a4.637,4.637,0,0,1,2.518-.681,5.124,5.124,0,0,1,2.7.633A2.147,2.147,0,0,1,74.039,6.96v5.423a.694.694,0,0,0,.1.4.487.487,0,0,0,.426.149q.105,0,.237-.013t.281-.04v1.169a4.406,4.406,0,0,1-.562.132,4.111,4.111,0,0,1-.527.026,1.3,1.3,0,0,1-1.187-.58,2.239,2.239,0,0,1-.272-.87,4.025,4.025,0,0,1-1.389,1.1,4.3,4.3,0,0,1-2,.466,2.967,2.967,0,0,1-2.14-.8,2.642,2.642,0,0,1-.831-1.991A2.564,2.564,0,0,1,67,9.5a3.889,3.889,0,0,1,2.145-.888Zm5.012-3.709h1.5V6.213a3.592,3.592,0,0,1,.905-1.156,2.347,2.347,0,0,1,1.661-.681q.044,0,.149.009t.36.035V6.09A2.363,2.363,0,0,0,81,6.055q-.119-.009-.259-.009a2.258,2.258,0,0,0-1.837.769,2.684,2.684,0,0,0-.642,1.771V14H76.677Zm9.872-.211a4.294,4.294,0,0,1,1.942.47,3.582,3.582,0,0,1,1.433,1.217,4.2,4.2,0,0,1,.633,1.661A10.868,10.868,0,0,1,90.7,9.8H83.8a4.026,4.026,0,0,0,.677,2.3,2.266,2.266,0,0,0,1.96.866,2.534,2.534,0,0,0,1.978-.817,2.755,2.755,0,0,0,.6-1.1h1.556a3.276,3.276,0,0,1-.409,1.156,4.111,4.111,0,0,1-.778,1.042,3.687,3.687,0,0,1-1.784.949,5.42,5.42,0,0,1-1.292.141,3.964,3.964,0,0,1-2.979-1.279A4.976,4.976,0,0,1,82.1,9.474a5.41,5.41,0,0,1,1.23-3.683A4.059,4.059,0,0,1,86.549,4.376Zm2.522,4.166A4.1,4.1,0,0,0,88.623,6.9a2.3,2.3,0,0,0-2.171-1.143,2.406,2.406,0,0,0-1.828.787,2.972,2.972,0,0,0-.782,2Zm4.511,2.5a2.3,2.3,0,0,0,.4,1.213,2.485,2.485,0,0,0,2.074.765,3.059,3.059,0,0,0,1.547-.382,1.27,1.27,0,0,0,.668-1.182,1.011,1.011,0,0,0-.536-.923,6.374,6.374,0,0,0-1.354-.448L95.12,9.772A6.131,6.131,0,0,1,93.345,9.1a2,2,0,0,1-1.02-1.775,2.713,2.713,0,0,1,.962-2.162,3.839,3.839,0,0,1,2.588-.826,3.593,3.593,0,0,1,3.067,1.248,2.708,2.708,0,0,1,.571,1.705H98.021a1.83,1.83,0,0,0-.378-.976,2.41,2.41,0,0,0-1.89-.624,2.259,2.259,0,0,0-1.358.343,1.074,1.074,0,0,0-.461.905,1.114,1.114,0,0,0,.606.984,3.644,3.644,0,0,0,1.037.387l1.046.255a8.087,8.087,0,0,1,2.285.8,2.118,2.118,0,0,1,.923,1.907,2.906,2.906,0,0,1-.954,2.171,4.059,4.059,0,0,1-2.9.914A3.9,3.9,0,0,1,93,13.407a3.606,3.606,0,0,1-.936-2.36Zm13.064-6.416h1.608V14h-1.608Zm0-3.542h1.608V2.882h-1.608Zm4,3.5h1.5V5.923a4.215,4.215,0,0,1,1.415-1.187,3.773,3.773,0,0,1,1.661-.36,2.739,2.739,0,0,1,2.707,1.4,4.962,4.962,0,0,1,.387,2.188V14h-1.608V8.067a3.212,3.212,0,0,0-.255-1.389,1.545,1.545,0,0,0-1.529-.879,3.114,3.114,0,0,0-.923.114,2.377,2.377,0,0,0-1.143.773,2.329,2.329,0,0,0-.514.962,6.478,6.478,0,0,0-.119,1.419V14h-1.582Zm10.329-2.628h1.6V4.587h1.5V5.879h-1.5v6.144a.665.665,0,0,0,.334.659,1.42,1.42,0,0,0,.615.1q.114,0,.246,0t.308-.022V14a3.532,3.532,0,0,1-.567.114,5.39,5.39,0,0,1-.637.035,1.717,1.717,0,0,1-1.5-.567,2.519,2.519,0,0,1-.4-1.472V5.879H119.7V4.587h1.274Zm8.606,2.417a4.294,4.294,0,0,1,1.942.47,3.582,3.582,0,0,1,1.433,1.217,4.2,4.2,0,0,1,.633,1.661,10.868,10.868,0,0,1,.141,2.074h-6.9a4.026,4.026,0,0,0,.677,2.3,2.266,2.266,0,0,0,1.96.866,2.534,2.534,0,0,0,1.978-.817,2.755,2.755,0,0,0,.6-1.1H133.6a3.276,3.276,0,0,1-.409,1.156,4.111,4.111,0,0,1-.778,1.042,3.687,3.687,0,0,1-1.784.949,5.42,5.42,0,0,1-1.292.141,3.964,3.964,0,0,1-2.979-1.279,4.976,4.976,0,0,1-1.222-3.582,5.41,5.41,0,0,1,1.23-3.683A4.059,4.059,0,0,1,129.582,4.376ZM132.1,8.542a4.1,4.1,0,0,0-.448-1.644,2.3,2.3,0,0,0-2.171-1.143,2.406,2.406,0,0,0-1.828.787,2.972,2.972,0,0,0-.782,2Zm3.614-3.955h1.5V6.213a3.592,3.592,0,0,1,.905-1.156,2.347,2.347,0,0,1,1.661-.681q.044,0,.149.009t.36.035V6.09a2.363,2.363,0,0,0-.259-.035q-.119-.009-.259-.009a2.258,2.258,0,0,0-1.837.769,2.684,2.684,0,0,0-.642,1.771V14h-1.582Zm5.952,0h1.5V5.923a4.215,4.215,0,0,1,1.415-1.187,3.773,3.773,0,0,1,1.661-.36,2.739,2.739,0,0,1,2.707,1.4,4.962,4.962,0,0,1,.387,2.188V14h-1.608V8.067a3.212,3.212,0,0,0-.255-1.389,1.545,1.545,0,0,0-1.529-.879,3.114,3.114,0,0,0-.923.114,2.377,2.377,0,0,0-1.143.773,2.329,2.329,0,0,0-.514.962,6.478,6.478,0,0,0-.119,1.419V14h-1.582ZM152.9,11.5a1.3,1.3,0,0,0,.5,1.081,1.857,1.857,0,0,0,1.187.4,3.608,3.608,0,0,0,1.617-.387,2.176,2.176,0,0,0,1.318-2.1V9.21a2.707,2.707,0,0,1-.747.308,6.366,6.366,0,0,1-.9.176l-.958.123a3.664,3.664,0,0,0-1.292.36A1.4,1.4,0,0,0,152.9,11.5Zm3.832-3.2a.859.859,0,0,0,.729-.457,1.391,1.391,0,0,0,.105-.606,1.285,1.285,0,0,0-.576-1.173,3.089,3.089,0,0,0-1.648-.365,2.094,2.094,0,0,0-1.758.668,2.2,2.2,0,0,0-.378,1.1h-1.477a2.718,2.718,0,0,1,1.129-2.421,4.637,4.637,0,0,1,2.518-.681,5.124,5.124,0,0,1,2.7.633A2.147,2.147,0,0,1,159.1,6.96v5.423a.694.694,0,0,0,.1.4.487.487,0,0,0,.426.149q.105,0,.237-.013t.281-.04v1.169a4.406,4.406,0,0,1-.562.132,4.111,4.111,0,0,1-.527.026,1.3,1.3,0,0,1-1.187-.58,2.239,2.239,0,0,1-.272-.87,4.025,4.025,0,0,1-1.389,1.1,4.3,4.3,0,0,1-2,.466,2.967,2.967,0,0,1-2.14-.8,2.642,2.642,0,0,1-.831-1.991,2.564,2.564,0,0,1,.817-2.03,3.889,3.889,0,0,1,2.145-.888Zm8.6-3.981a4.1,4.1,0,0,1,2.588.773,3.705,3.705,0,0,1,1.2,2.663h-1.538a2.839,2.839,0,0,0-.642-1.446,2.027,2.027,0,0,0-1.608-.576,2.222,2.222,0,0,0-2.162,1.477,5.865,5.865,0,0,0-.422,2.364,4.449,4.449,0,0,0,.6,2.382,2.317,2.317,0,0,0,3.441.365,3.311,3.311,0,0,0,.8-1.648h1.538a4.129,4.129,0,0,1-1.318,2.738,4.113,4.113,0,0,1-2.7.866,3.6,3.6,0,0,1-2.944-1.349,5.164,5.164,0,0,1-1.1-3.371,5.678,5.678,0,0,1,1.2-3.858A3.891,3.891,0,0,1,165.326,4.314Zm5.372.316h1.608V14H170.7Zm0-3.542h1.608V2.882H170.7Zm7.736,11.892a2.182,2.182,0,0,0,2.158-1.191,5.933,5.933,0,0,0,.584-2.65A4.718,4.718,0,0,0,180.754,7a2.373,2.373,0,0,0-2.3-1.3A2.271,2.271,0,0,0,176.342,6.8a5.133,5.133,0,0,0-.659,2.672,4.465,4.465,0,0,0,.659,2.5A2.322,2.322,0,0,0,178.434,12.98Zm.062-8.666a4.262,4.262,0,0,1,3.076,1.213A4.736,4.736,0,0,1,182.828,9.1a6.122,6.122,0,0,1-1.107,3.762,4.006,4.006,0,0,1-3.437,1.485,3.88,3.88,0,0,1-3.085-1.314A5.19,5.19,0,0,1,174.057,9.5a5.615,5.615,0,0,1,1.2-3.779A4.041,4.041,0,0,1,178.5,4.314Zm6.216.272h1.5V5.923a4.215,4.215,0,0,1,1.415-1.187,3.773,3.773,0,0,1,1.661-.36A2.739,2.739,0,0,1,192,5.773a4.962,4.962,0,0,1,.387,2.188V14h-1.608V8.067a3.212,3.212,0,0,0-.255-1.389,1.545,1.545,0,0,0-1.529-.879,3.114,3.114,0,0,0-.923.114,2.377,2.377,0,0,0-1.143.773,2.329,2.329,0,0,0-.514.962,6.478,6.478,0,0,0-.119,1.419V14h-1.582ZM195.937,11.5a1.3,1.3,0,0,0,.5,1.081,1.857,1.857,0,0,0,1.187.4,3.608,3.608,0,0,0,1.617-.387,2.176,2.176,0,0,0,1.318-2.1V9.21a2.707,2.707,0,0,1-.747.308,6.366,6.366,0,0,1-.9.176l-.958.123a3.664,3.664,0,0,0-1.292.36A1.4,1.4,0,0,0,195.937,11.5Zm3.832-3.2a.859.859,0,0,0,.729-.457,1.391,1.391,0,0,0,.105-.606,1.285,1.285,0,0,0-.576-1.173,3.089,3.089,0,0,0-1.648-.365,2.094,2.094,0,0,0-1.758.668,2.2,2.2,0,0,0-.378,1.1h-1.477A2.718,2.718,0,0,1,195.9,5.04a4.637,4.637,0,0,1,2.518-.681,5.124,5.124,0,0,1,2.7.633,2.147,2.147,0,0,1,1.028,1.969v5.423a.694.694,0,0,0,.1.4.487.487,0,0,0,.426.149q.105,0,.237-.013t.281-.04v1.169a4.406,4.406,0,0,1-.562.132,4.111,4.111,0,0,1-.527.026,1.3,1.3,0,0,1-1.187-.58,2.239,2.239,0,0,1-.272-.87,4.025,4.025,0,0,1-1.389,1.1,4.3,4.3,0,0,1-2,.466,2.967,2.967,0,0,1-2.14-.8,2.642,2.642,0,0,1-.831-1.991A2.564,2.564,0,0,1,195.1,9.5a3.889,3.889,0,0,1,2.145-.888Zm5.012-7.207h1.582V14H204.78Zm7.877,3.287a4.294,4.294,0,0,1,1.942.47,3.582,3.582,0,0,1,1.433,1.217,4.2,4.2,0,0,1,.633,1.661,10.868,10.868,0,0,1,.141,2.074h-6.9a4.026,4.026,0,0,0,.677,2.3,2.266,2.266,0,0,0,1.96.866,2.534,2.534,0,0,0,1.978-.817,2.755,2.755,0,0,0,.6-1.1h1.556a3.276,3.276,0,0,1-.409,1.156,4.111,4.111,0,0,1-.778,1.042,3.687,3.687,0,0,1-1.784.949,5.42,5.42,0,0,1-1.292.141,3.964,3.964,0,0,1-2.979-1.279,4.976,4.976,0,0,1-1.222-3.582,5.41,5.41,0,0,1,1.23-3.683A4.059,4.059,0,0,1,212.657,4.376Zm2.522,4.166a4.1,4.1,0,0,0-.448-1.644,2.3,2.3,0,0,0-2.171-1.143,2.406,2.406,0,0,0-1.828.787,2.972,2.972,0,0,0-.782,2Zm4.511,2.5a2.3,2.3,0,0,0,.4,1.213,2.485,2.485,0,0,0,2.074.765,3.059,3.059,0,0,0,1.547-.382,1.27,1.27,0,0,0,.668-1.182,1.011,1.011,0,0,0-.536-.923,6.374,6.374,0,0,0-1.354-.448l-1.257-.316a6.131,6.131,0,0,1-1.775-.668,2,2,0,0,1-1.02-1.775,2.713,2.713,0,0,1,.962-2.162,3.839,3.839,0,0,1,2.588-.826,3.593,3.593,0,0,1,3.067,1.248,2.708,2.708,0,0,1,.571,1.705h-1.494a1.83,1.83,0,0,0-.378-.976,2.41,2.41,0,0,0-1.89-.624,2.259,2.259,0,0,0-1.358.343,1.074,1.074,0,0,0-.461.905,1.114,1.114,0,0,0,.606.984,3.644,3.644,0,0,0,1.037.387l1.046.255a8.087,8.087,0,0,1,2.285.8,2.118,2.118,0,0,1,.923,1.907,2.906,2.906,0,0,1-.954,2.171,4.059,4.059,0,0,1-2.9.914,3.9,3.9,0,0,1-2.975-.954,3.606,3.606,0,0,1-.936-2.36ZM82.34,38.5a1.3,1.3,0,0,0,.5,1.081,1.857,1.857,0,0,0,1.187.4,3.608,3.608,0,0,0,1.617-.387,2.176,2.176,0,0,0,1.318-2.1V36.21a2.707,2.707,0,0,1-.747.308,6.366,6.366,0,0,1-.9.176l-.958.123a3.664,3.664,0,0,0-1.292.36A1.4,1.4,0,0,0,82.34,38.5Zm3.832-3.2a.859.859,0,0,0,.729-.457,1.391,1.391,0,0,0,.105-.606,1.285,1.285,0,0,0-.576-1.173,3.089,3.089,0,0,0-1.648-.365,2.094,2.094,0,0,0-1.758.668,2.2,2.2,0,0,0-.378,1.1H81.171A2.718,2.718,0,0,1,82.3,32.04a4.637,4.637,0,0,1,2.518-.681,5.124,5.124,0,0,1,2.7.633,2.147,2.147,0,0,1,1.028,1.969v5.423a.694.694,0,0,0,.1.4.487.487,0,0,0,.426.149q.105,0,.237-.013t.281-.04v1.169a4.406,4.406,0,0,1-.562.132,4.111,4.111,0,0,1-.527.026,1.3,1.3,0,0,1-1.187-.58,2.239,2.239,0,0,1-.272-.87,4.025,4.025,0,0,1-1.389,1.1,4.3,4.3,0,0,1-2,.466,2.967,2.967,0,0,1-2.14-.8,2.642,2.642,0,0,1-.831-1.991,2.564,2.564,0,0,1,.817-2.03,3.889,3.889,0,0,1,2.145-.888Zm8.94,4.641a2.257,2.257,0,0,0,1.841-.927,4.413,4.413,0,0,0,.734-2.773,5.176,5.176,0,0,0-.325-1.934,2.383,2.383,0,0,0-4.5.088,6.514,6.514,0,0,0-.325,2.232,4.732,4.732,0,0,0,.325,1.854A2.243,2.243,0,0,0,95.112,39.937Zm-4.1-8.306h1.538v1.248a3.84,3.84,0,0,1,1.037-.993,3.338,3.338,0,0,1,1.881-.527,3.537,3.537,0,0,1,2.716,1.226,5.023,5.023,0,0,1,1.116,3.5q0,3.076-1.608,4.395a3.634,3.634,0,0,1-2.373.835,3.221,3.221,0,0,1-1.784-.466,4.111,4.111,0,0,1-.94-.905v4.808H91.017Zm10.18-3.542h1.582V41H101.2Zm3.957,3.542h1.608V41h-1.608Zm0-3.542h1.608v1.793h-1.608Zm7.631,3.226a4.1,4.1,0,0,1,2.588.773,3.705,3.705,0,0,1,1.2,2.663h-1.538a2.839,2.839,0,0,0-.642-1.446,2.027,2.027,0,0,0-1.608-.576,2.222,2.222,0,0,0-2.162,1.477,5.865,5.865,0,0,0-.422,2.364,4.449,4.449,0,0,0,.6,2.382,2.317,2.317,0,0,0,3.441.365,3.311,3.311,0,0,0,.8-1.648h1.538a3.72,3.72,0,0,1-4.017,3.6,3.6,3.6,0,0,1-2.944-1.349,5.164,5.164,0,0,1-1.1-3.371,5.678,5.678,0,0,1,1.2-3.858A3.891,3.891,0,0,1,112.784,31.314Zm6.585,7.181a1.3,1.3,0,0,0,.5,1.081,1.857,1.857,0,0,0,1.187.4,3.608,3.608,0,0,0,1.617-.387,2.176,2.176,0,0,0,1.318-2.1V36.21a2.707,2.707,0,0,1-.747.308,6.366,6.366,0,0,1-.9.176l-.958.123a3.664,3.664,0,0,0-1.292.36A1.4,1.4,0,0,0,119.368,38.5Zm3.832-3.2a.859.859,0,0,0,.729-.457,1.391,1.391,0,0,0,.105-.606,1.285,1.285,0,0,0-.576-1.173,3.089,3.089,0,0,0-1.648-.365,2.094,2.094,0,0,0-1.758.668,2.2,2.2,0,0,0-.378,1.1H118.2a2.718,2.718,0,0,1,1.129-2.421,4.637,4.637,0,0,1,2.518-.681,5.124,5.124,0,0,1,2.7.633,2.147,2.147,0,0,1,1.028,1.969v5.423a.694.694,0,0,0,.1.4.487.487,0,0,0,.426.149q.105,0,.237-.013t.281-.04v1.169a4.406,4.406,0,0,1-.562.132,4.111,4.111,0,0,1-.527.026,1.3,1.3,0,0,1-1.187-.58,2.239,2.239,0,0,1-.272-.87,4.025,4.025,0,0,1-1.389,1.1,4.3,4.3,0,0,1-2,.466,2.967,2.967,0,0,1-2.14-.8,2.642,2.642,0,0,1-.831-1.991,2.564,2.564,0,0,1,.817-2.03,3.889,3.889,0,0,1,2.145-.888Zm5.97,1.107a4.666,4.666,0,0,0,.642,2.531,2.248,2.248,0,0,0,2.057,1.02,2.166,2.166,0,0,0,1.806-.945,4.462,4.462,0,0,0,.708-2.711,4.009,4.009,0,0,0-.729-2.641,2.276,2.276,0,0,0-1.8-.857,2.378,2.378,0,0,0-1.938.914A4.186,4.186,0,0,0,129.17,36.4Zm2.382-4.983a3.349,3.349,0,0,1,1.811.457,4.253,4.253,0,0,1,.958.923V28.045h1.521V41h-1.424V39.69a3.423,3.423,0,0,1-1.31,1.257,3.748,3.748,0,0,1-1.731.387,3.506,3.506,0,0,1-2.725-1.323,5.172,5.172,0,0,1-1.151-3.52,6.076,6.076,0,0,1,1.05-3.564A3.439,3.439,0,0,1,131.552,31.42Zm10.364,8.561a2.182,2.182,0,0,0,2.158-1.191,5.933,5.933,0,0,0,.584-2.65A4.718,4.718,0,0,0,144.236,34a2.373,2.373,0,0,0-2.3-1.3,2.271,2.271,0,0,0-2.109,1.107,5.133,5.133,0,0,0-.659,2.672,4.465,4.465,0,0,0,.659,2.5A2.322,2.322,0,0,0,141.916,39.98Zm.062-8.666a4.262,4.262,0,0,1,3.076,1.213,4.736,4.736,0,0,1,1.257,3.568,6.122,6.122,0,0,1-1.107,3.762,4.006,4.006,0,0,1-3.437,1.485,3.88,3.88,0,0,1-3.085-1.314,5.19,5.19,0,0,1-1.143-3.529,5.615,5.615,0,0,1,1.2-3.779A4.041,4.041,0,0,1,141.978,31.314Zm7.156,6.732a2.3,2.3,0,0,0,.4,1.213,2.485,2.485,0,0,0,2.074.765,3.059,3.059,0,0,0,1.547-.382,1.27,1.27,0,0,0,.668-1.182,1.011,1.011,0,0,0-.536-.923,6.374,6.374,0,0,0-1.354-.448l-1.257-.316A6.131,6.131,0,0,1,148.9,36.1a2,2,0,0,1-1.02-1.775,2.713,2.713,0,0,1,.962-2.162,3.839,3.839,0,0,1,2.588-.826,3.593,3.593,0,0,1,3.067,1.248,2.708,2.708,0,0,1,.571,1.705h-1.494a1.83,1.83,0,0,0-.378-.976,2.41,2.41,0,0,0-1.89-.624,2.259,2.259,0,0,0-1.358.343,1.074,1.074,0,0,0-.461.905,1.114,1.114,0,0,0,.606.984,3.644,3.644,0,0,0,1.037.387l1.046.255a8.087,8.087,0,0,1,2.285.8,2.118,2.118,0,0,1,.923,1.907,2.906,2.906,0,0,1-.954,2.171,4.059,4.059,0,0,1-2.9.914,3.9,3.9,0,0,1-2.975-.954,3.606,3.606,0,0,1-.936-2.36Z" transform="translate(39 42.896)" fill="#212429"/>
      </g>
    </g>
  </g>
</svg>
