<svg xmlns="http://www.w3.org/2000/svg" xmlns:xlink="http://www.w3.org/1999/xlink" width="108" height="108" viewBox="0 0 108 108">
  <defs>
    <filter id="Trazado_1012752" x="0" y="0" width="108" height="108" filterUnits="userSpaceOnUse">
      <feOffset dy="3" input="SourceAlpha"/>
      <feGaussianBlur stdDeviation="3" result="blur"/>
      <feFlood flood-opacity="0.161"/>
      <feComposite operator="in" in2="blur"/>
      <feComposite in="SourceGraphic"/>
    </filter>
  </defs>
  <g id="Grupo_1156662" data-name="Grupo 1156662" transform="translate(-166 -6926)">
    <g transform="matrix(1, 0, 0, 1, 166, 6926)" filter="url(#Trazado_1012752)">
      <g id="Trazado_1012752-2" data-name="Trazado 1012752" transform="translate(9 6)" fill="#f5e9a1">
        <path d="M 45 88.5 C 39.12687683105469 88.5 33.43022537231445 87.35007476806641 28.06830024719238 85.08217620849609 C 22.88852500915527 82.89131164550781 18.23629951477051 79.75458526611328 14.2408504486084 75.75914764404297 C 10.24541282653809 71.76370239257812 7.108687400817871 67.11147308349609 4.917825222015381 61.93170166015625 C 2.649924993515015 56.56977462768555 1.5 50.87312316894531 1.5 45 C 1.5 39.12687683105469 2.649924993515015 33.43022537231445 4.917825222015381 28.06830024719238 C 7.108687400817871 22.88852500915527 10.24541282653809 18.23629951477051 14.2408504486084 14.2408504486084 C 18.23629951477051 10.24541282653809 22.88852500915527 7.108687400817871 28.06830024719238 4.917825222015381 C 33.43022537231445 2.649924993515015 39.12687683105469 1.5 45 1.5 C 50.87312316894531 1.5 56.56977462768555 2.649924993515015 61.93170166015625 4.917825222015381 C 67.11147308349609 7.108687400817871 71.76370239257812 10.24541282653809 75.75914764404297 14.2408504486084 C 79.75458526611328 18.23629951477051 82.89131164550781 22.88852500915527 85.08217620849609 28.06830024719238 C 87.35007476806641 33.43022537231445 88.5 39.12687683105469 88.5 45 C 88.5 50.87312316894531 87.35007476806641 56.56977462768555 85.08217620849609 61.93170166015625 C 82.89131164550781 67.11147308349609 79.75458526611328 71.76370239257812 75.75914764404297 75.75914764404297 C 71.76370239257812 79.75458526611328 67.11147308349609 82.89131164550781 61.93170166015625 85.08217620849609 C 56.56977462768555 87.35007476806641 50.87312316894531 88.5 45 88.5 Z" stroke="none"/>
        <path d="M 45 3 C 39.32871246337891 3 33.82865524291992 4.110054016113281 28.65262985229492 6.299339294433594 C 23.65165710449219 8.414573669433594 19.15968322753906 11.44334411621094 15.301513671875 15.301513671875 C 11.44334411621094 19.15968322753906 8.414573669433594 23.65165710449219 6.299339294433594 28.65262985229492 C 4.110054016113281 33.82865524291992 3 39.32871246337891 3 45 C 3 50.67128753662109 4.110054016113281 56.17134475708008 6.299339294433594 61.34737396240234 C 8.414573669433594 66.34834289550781 11.44334411621094 70.84031677246094 15.301513671875 74.698486328125 C 19.15968322753906 78.55665588378906 23.65165710449219 81.58542633056641 28.65262985229492 83.70066070556641 C 33.82865524291992 85.88994598388672 39.32871246337891 87 45 87 C 50.67128753662109 87 56.17134475708008 85.88994598388672 61.34737396240234 83.70066070556641 C 66.34834289550781 81.58542633056641 70.84031677246094 78.55665588378906 74.698486328125 74.698486328125 C 78.55665588378906 70.84031677246094 81.58542633056641 66.34834289550781 83.70066070556641 61.34737396240234 C 85.88994598388672 56.17134475708008 87 50.67128753662109 87 45 C 87 39.32871246337891 85.88994598388672 33.82865524291992 83.70066070556641 28.65262985229492 C 81.58542633056641 23.65165710449219 78.55665588378906 19.15968322753906 74.698486328125 15.301513671875 C 70.84031677246094 11.44334411621094 66.34834289550781 8.414573669433594 61.34737396240234 6.299339294433594 C 56.17134475708008 4.110054016113281 50.67128753662109 3 45 3 M 45 0 C 69.85281372070312 0 90 20.14718627929688 90 45 C 90 69.85281372070312 69.85281372070312 90 45 90 C 20.14718627929688 90 0 69.85281372070312 0 45 C 0 20.14718627929688 20.14718627929688 0 45 0 Z" stroke="none" fill="#bcac89"/>
      </g>
    </g>
    <g id="administrar" transform="translate(187.497 6913.896)">
      <g id="Grupo_1156565" data-name="Grupo 1156565" transform="translate(5.59 43.56)">
        <path id="Trazado_990783" data-name="Trazado 990783" d="M59.142,94.442V90.248H45.929a1.9,1.9,0,0,0-1.9,1.9v4.441H56.867Z" transform="translate(-44.025 -90.248)" fill="#02c7dd"/>
        <path id="Trazado_990784" data-name="Trazado 990784" d="M331.716,92.284a7.881,7.881,0,0,1,.267-2.037h-7.357v4.194l2.275,2.151H333A7.834,7.834,0,0,1,331.716,92.284Z" transform="translate(-289 -90.247)" fill="#02c7dd"/>
      </g>
      <path id="Trazado_990785" data-name="Trazado 990785" d="M50.5,92.152a1.9,1.9,0,0,1,1.9-1.9H45.929a1.9,1.9,0,0,0-1.9,1.9v4.441H50.5Z" transform="translate(-38.435 -46.688)" fill="#07b2cd"/>
      <path id="Trazado_990786" data-name="Trazado 990786" d="M94.615,143.788a7.865,7.865,0,0,1-6.589-3.565H79.651v9.307l-5.584,4.823-4.3-4.337a.525.525,0,0,0-.746,0l-4.3,4.337-5.584-4.823v-9.307H44.025v31.911a1.9,1.9,0,0,0,1.9,1.9H54.8v-1.286a.436.436,0,0,1,.436-.436H68.471a.436.436,0,0,1,.436.436v1.286h7.325l.923-.923a1.269,1.269,0,0,0,.275-1.383l-.256-.618A1.27,1.27,0,0,0,76,170.329H73.677a1.27,1.27,0,0,1-1.27-1.27v-3.035a1.27,1.27,0,0,1,1.27-1.27H76a1.27,1.27,0,0,0,1.173-.784l.256-.618a1.27,1.27,0,0,0-.275-1.383l-1.644-1.644a1.27,1.27,0,0,1,0-1.8l2.146-2.146a1.27,1.27,0,0,1,1.8,0l1.644,1.644a1.27,1.27,0,0,0,1.383.275l.618-.256a1.27,1.27,0,0,0,.784-1.173v-2.325a1.27,1.27,0,0,1,1.27-1.27h3.035a1.27,1.27,0,0,1,1.27,1.27v2.325a1.27,1.27,0,0,0,.784,1.173l.618.256a1.27,1.27,0,0,0,1.383-.275l1.644-1.644a1.265,1.265,0,0,1,.882-.371V143.785c-.051,0-.1,0-.153,0Z" transform="translate(-38.435 -90.318)" fill="#eaf9fa"/>
      <g id="Grupo_1156566" data-name="Grupo 1156566" transform="translate(5.59 49.905)">
        <path id="Trazado_990787" data-name="Trazado 990787" d="M44.025,140.223H50.5v14.588H44.025Z" transform="translate(-44.025 -140.223)" fill="#d4f2f6"/>
        <path id="Trazado_990788" data-name="Trazado 990788" d="M50.5,367.5V364H44.025v3.5a1.9,1.9,0,0,0,1.9,1.9H52.4A1.9,1.9,0,0,1,50.5,367.5Z" transform="translate(-44.025 -335.588)" fill="#d4f2f6"/>
      </g>
      <g id="Grupo_1156569" data-name="Grupo 1156569" transform="translate(14.373 38.297)">
        <g id="Grupo_1156567" data-name="Grupo 1156567" transform="translate(0 0)">
          <path id="Trazado_990789" data-name="Trazado 990789" d="M219.487,52.482l-3.711-3.509a.635.635,0,0,0-.872,0l-3.711,3.509Z" transform="translate(-198.752 -48.799)" fill="#ffe177"/>
          <path id="Trazado_990790" data-name="Trazado 990790" d="M140.046,123.282V134.74l-5.584,4.823-4.3-4.337a.525.525,0,0,0-.746,0l-4.3,4.337-5.584-4.823V123.282L113.2,129.27v10.751H119.7a.635.635,0,0,1,.635.635V151.59H132.8v-.355a1.27,1.27,0,0,1,1.27-1.27H136.4a1.27,1.27,0,0,0,1.173-.784l.256-.618a1.27,1.27,0,0,0-.275-1.383l-1.644-1.644a1.27,1.27,0,0,1,0-1.8l2.146-2.146a1.27,1.27,0,0,1,1.8,0l1.644,1.644a1.27,1.27,0,0,0,1.383.275l.618-.256a1.27,1.27,0,0,0,.784-1.173v-2.325a1.27,1.27,0,0,1,1.27-1.27h.833V129.27Z" transform="translate(-113.203 -113.825)" fill="#ffe177"/>
        </g>
        <path id="Trazado_990791" data-name="Trazado 990791" d="M168.673,99.857l4.3-4.337a.525.525,0,0,1,.746,0l4.3,4.337,5.584-4.823v-16.6a.635.635,0,0,0-.635-.635h-19.24a.635.635,0,0,0-.635.635v16.6Z" transform="translate(-156.755 -74.119)" fill="#eaf9fa"/>
        <path id="Trazado_990792" data-name="Trazado 990792" d="M167.395,98.752V78.436a.635.635,0,0,1,.635-.635h-4.306a.635.635,0,0,0-.635.635v16.6Z" transform="translate(-156.755 -74.119)" fill="#d4f2f6"/>
        <g id="Grupo_1156568" data-name="Grupo 1156568" transform="translate(0 15.445)">
          <path id="Trazado_990793" data-name="Trazado 990793" d="M113.2,181.2h6.493a.635.635,0,0,1,.635.635v3.741l4.79-4.834L113.2,170.448V181.2Z" transform="translate(-113.201 -170.448)" fill="#ffc344"/>
          <path id="Trazado_990794" data-name="Trazado 990794" d="M284.234,182.772a1.27,1.27,0,0,1,1.8,0l1.644,1.644a1.27,1.27,0,0,0,1.383.275l.618-.256a1.27,1.27,0,0,0,.784-1.173v-2.325a1.27,1.27,0,0,1,1.27-1.27h.833v-9.219l-11.918,10.293,2.8,2.823Z" transform="translate(-259.385 -170.448)" fill="#ffc344"/>
        </g>
        <path id="Trazado_990795" data-name="Trazado 990795" d="M169.343,232.654h12.471V232.3a1.27,1.27,0,0,1,1.27-1.27h2.325a1.27,1.27,0,0,0,1.173-.784l.256-.618a1.27,1.27,0,0,0-.275-1.383l-1.644-1.644a1.27,1.27,0,0,1,0-1.8l1.353-1.353-7.1-7.16a.525.525,0,0,0-.746,0l-9.087,9.17Z" transform="translate(-162.215 -194.889)" fill="#ffe177"/>
        <path id="Trazado_990796" data-name="Trazado 990796" d="M178.432,216.291l-9.087,9.17v4.33l11.606-11.712-1.772-1.789A.526.526,0,0,0,178.432,216.291Z" transform="translate(-162.216 -194.89)" fill="#ffd15b"/>
      </g>
      <g id="Grupo_1156573" data-name="Grupo 1156573" transform="translate(33.972 62.961)">
        <g id="Grupo_1156570" data-name="Grupo 1156570" transform="translate(0 0)">
          <path id="Trazado_990797" data-name="Trazado 990797" d="M294.823,254.535H292.5a1.27,1.27,0,0,1-1.173-.784l-.256-.618a1.27,1.27,0,0,1,.275-1.383l1.644-1.644a1.27,1.27,0,0,0,0-1.8l-2.146-2.146a1.27,1.27,0,0,0-1.8,0l-1.644,1.644a1.27,1.27,0,0,1-1.383.275l-.618-.256a1.27,1.27,0,0,1-.784-1.173v-2.325a1.27,1.27,0,0,0-1.27-1.27h-3.035a1.27,1.27,0,0,0-1.27,1.27v2.325a1.27,1.27,0,0,1-.784,1.173l-.618.256a1.27,1.27,0,0,1-1.383-.275l-1.644-1.644a1.27,1.27,0,0,0-1.8,0l-2.146,2.146a1.27,1.27,0,0,0,0,1.8l1.644,1.644a1.27,1.27,0,0,1,.275,1.383l-.256.618a1.27,1.27,0,0,1-1.173.784h-2.325a1.27,1.27,0,0,0-1.27,1.27v3.035a1.27,1.27,0,0,0,1.27,1.27h2.325a1.27,1.27,0,0,1,1.173.784l.256.618a1.269,1.269,0,0,1-.275,1.383l-1.644,1.644a1.27,1.27,0,0,0,0,1.8l2.146,2.146a1.27,1.27,0,0,0,1.8,0l1.644-1.644a1.27,1.27,0,0,1,1.383-.275l.618.256a1.27,1.27,0,0,1,.784,1.173v2.325a1.27,1.27,0,0,0,1.27,1.27h3.035a1.27,1.27,0,0,0,1.27-1.27v-2.325a1.27,1.27,0,0,1,.784-1.173l.618-.256a1.27,1.27,0,0,1,1.383.275l1.644,1.644a1.27,1.27,0,0,0,1.8,0l2.146-2.146a1.27,1.27,0,0,0,0-1.8l-1.644-1.644a1.269,1.269,0,0,1-.275-1.383l.256-.618a1.27,1.27,0,0,1,1.173-.784h2.325a1.27,1.27,0,0,0,1.27-1.27V255.8A1.27,1.27,0,0,0,294.823,254.535Z" transform="translate(-267.567 -243.059)" fill="#af66da"/>
        </g>
        <g id="Grupo_1156571" data-name="Grupo 1156571" transform="translate(0 0)">
          <path id="Trazado_990798" data-name="Trazado 990798" d="M275.806,257.322a12.418,12.418,0,0,1,8.81-11.882v-1.111a1.27,1.27,0,0,0-1.27-1.27h-3.035a1.27,1.27,0,0,0-1.27,1.27v2.325a1.27,1.27,0,0,1-.784,1.173l-.618.256a1.27,1.27,0,0,1-1.383-.275l-1.644-1.644a1.27,1.27,0,0,0-1.8,0l-2.146,2.146a1.27,1.27,0,0,0,0,1.8l1.644,1.644a1.27,1.27,0,0,1,.275,1.383l-.256.618a1.27,1.27,0,0,1-1.173.784h-2.325a1.27,1.27,0,0,0-1.27,1.27v3.035a1.27,1.27,0,0,0,1.27,1.27h2.325a1.27,1.27,0,0,1,1.173.784l.256.618a1.27,1.27,0,0,1-.275,1.383l-1.644,1.644a1.27,1.27,0,0,0,0,1.8l2.146,2.146a1.27,1.27,0,0,0,1.8,0l1.644-1.644a1.27,1.27,0,0,1,1.383-.275l.618.256a1.27,1.27,0,0,1,.784,1.173v2.325a1.27,1.27,0,0,0,1.27,1.27h3.035a1.27,1.27,0,0,0,1.27-1.27V269.2A12.418,12.418,0,0,1,275.806,257.322Z" transform="translate(-267.567 -243.059)" fill="#9857bd"/>
        </g>
        <g id="Grupo_1156572" data-name="Grupo 1156572" transform="translate(6.648 6.671)">
          <circle id="Elipse_11750" data-name="Elipse 11750" cx="6.33" cy="6.33" r="6.33" transform="translate(0 12.318) rotate(-76.7)" fill="#cb97e7"/>
        </g>
        <circle id="Elipse_11751" data-name="Elipse 11751" cx="2.229" cy="2.229" r="2.229" transform="translate(12.034 12.034)" fill="#fff"/>
      </g>
      <g id="Grupo_1156578" data-name="Grupo 1156578" transform="translate(48.306 37.722)">
        <g id="Grupo_1156574" data-name="Grupo 1156574" transform="translate(0 0)">
          <circle id="Elipse_11752" data-name="Elipse 11752" cx="7.874" cy="7.874" r="7.874" fill="#05e39c"/>
        </g>
        <g id="Grupo_1156575" data-name="Grupo 1156575" transform="translate(0 0)">
          <path id="Trazado_990799" data-name="Trazado 990799" d="M384.724,52.145a7.876,7.876,0,0,1,5.745-7.58,7.874,7.874,0,1,0,0,15.161,7.876,7.876,0,0,1-5.745-7.581Z" transform="translate(-380.466 -44.271)" fill="#0ed290"/>
        </g>
        <path id="Trazado_990800" data-name="Trazado 990800" d="M410.44,126.981a3.549,3.549,0,0,1-4.408,0,6.846,6.846,0,0,0-2.777,3.471,7.872,7.872,0,0,0,9.961,0A6.848,6.848,0,0,0,410.44,126.981Z" transform="translate(-400.362 -116.48)" fill="#814aa0"/>
        <g id="Grupo_1156576" data-name="Grupo 1156576" transform="translate(4.321 4.163)">
          <circle id="Elipse_11753" data-name="Elipse 11753" cx="3.553" cy="3.553" r="3.553" fill="#af66da"/>
        </g>
        <g id="Grupo_1156577" data-name="Grupo 1156577" transform="translate(4.321 4.163)">
          <path id="Trazado_990801" data-name="Trazado 990801" d="M417.23,80.611a3.554,3.554,0,0,1,2.188-3.281,3.553,3.553,0,1,0,0,6.562A3.554,3.554,0,0,1,417.23,80.611Z" transform="translate(-414.5 -77.058)" fill="#9857bd"/>
        </g>
      </g>
      <g id="Grupo_1156584" data-name="Grupo 1156584" transform="translate(0.952 64.493)">
        <g id="Grupo_1156579" data-name="Grupo 1156579" transform="translate(0 0)">
          <path id="Trazado_990802" data-name="Trazado 990802" d="M28.048,268.313V255.759a.635.635,0,0,0-.635-.635H8.135a.635.635,0,0,0-.635.635v12.554a.635.635,0,0,0,.635.635H27.414A.635.635,0,0,0,28.048,268.313Z" transform="translate(-7.5 -255.124)" fill="#fe7701"/>
        </g>
        <g id="Grupo_1156580" data-name="Grupo 1156580" transform="translate(0 0.169)">
          <path id="Trazado_990803" data-name="Trazado 990803" d="M7.707,256.454a.631.631,0,0,0-.207.466v12.554a.631.631,0,0,0,.2.461l8.022-6.928Z" transform="translate(-7.5 -256.454)" fill="#fe9738"/>
          <path id="Trazado_990804" data-name="Trazado 990804" d="M112.594,256.454l-8.016,6.553,8.022,6.928a.631.631,0,0,0,.2-.461V256.92A.632.632,0,0,0,112.594,256.454Z" transform="translate(-92.253 -256.454)" fill="#fe9738"/>
        </g>
        <g id="Grupo_1156582" data-name="Grupo 1156582" transform="translate(0 0)">
          <g id="Grupo_1156581" data-name="Grupo 1156581">
            <path id="Trazado_990805" data-name="Trazado 990805" d="M10.738,255.759a.635.635,0,0,1,.635-.635H8.135a.635.635,0,0,0-.635.635v12.554a.631.631,0,0,0,.2.461l3.037-2.623Z" transform="translate(-7.5 -255.124)" fill="#fe860a"/>
          </g>
        </g>
        <g id="Grupo_1156583" data-name="Grupo 1156583" transform="translate(0.207 0)">
          <path id="Trazado_990806" data-name="Trazado 990806" d="M19.195,263.523l10.068-8.23a.63.63,0,0,0-.428-.169H9.555a.63.63,0,0,0-.428.169Z" transform="translate(-9.127 -255.124)" fill="#fe7701"/>
        </g>
      </g>
      <g id="Grupo_1156588" data-name="Grupo 1156588" transform="translate(16.368 81.999)">
        <g id="Grupo_1156585" data-name="Grupo 1156585" transform="translate(0 0)">
          <path id="Trazado_990807" data-name="Trazado 990807" d="M143.019,402.052v-8.617a.436.436,0,0,0-.436-.436H129.351a.436.436,0,0,0-.436.436v8.617a.436.436,0,0,0,.436.436h13.232A.436.436,0,0,0,143.019,402.052Z" transform="translate(-128.915 -393)" fill="#ffd15b"/>
        </g>
        <g id="Grupo_1156586" data-name="Grupo 1156586" transform="translate(0 0.116)">
          <path id="Trazado_990808" data-name="Trazado 990808" d="M129.057,393.913a.433.433,0,0,0-.142.32v8.617a.433.433,0,0,0,.138.317l5.506-4.755Z" transform="translate(-128.915 -393.913)" fill="#ffc344"/>
          <path id="Trazado_990809" data-name="Trazado 990809" d="M201.049,393.913l-5.5,4.5,5.506,4.755a.433.433,0,0,0,.138-.317v-8.617A.433.433,0,0,0,201.049,393.913Z" transform="translate(-187.087 -393.913)" fill="#ffc344"/>
        </g>
        <g id="Grupo_1156587" data-name="Grupo 1156587" transform="translate(0.142 0)">
          <path id="Trazado_990810" data-name="Trazado 990810" d="M136.942,398.765l6.91-5.649a.433.433,0,0,0-.294-.116H130.326a.433.433,0,0,0-.294.116Z" transform="translate(-130.032 -393)" fill="#ffe177"/>
        </g>
      </g>
      <g id="Grupo_1156589" data-name="Grupo 1156589" transform="translate(0 36.77)">
        <path id="Trazado_990811" data-name="Trazado 990811" d="M196.331,116.152h10.406a.952.952,0,1,0,0-1.9H196.331a.952.952,0,1,0,0,1.9Z" transform="translate(-170.573 -104.411)"/>
        <path id="Trazado_990812" data-name="Trazado 990812" d="M196.331,148.222h10.406a.952.952,0,1,0,0-1.9H196.331a.952.952,0,1,0,0,1.9Z" transform="translate(-170.573 -132.409)"/>
        <path id="Trazado_990813" data-name="Trazado 990813" d="M203.994,179.34a.952.952,0,0,0-.952-.952h-6.711a.952.952,0,0,0,0,1.9h6.711A.952.952,0,0,0,203.994,179.34Z" transform="translate(-170.573 -160.408)"/>
        <path id="Trazado_990814" data-name="Trazado 990814" d="M334.943,303.66a.952.952,0,1,0,1.811-.588,7.281,7.281,0,1,0-.23,5.112.952.952,0,1,0-1.751-.75,5.378,5.378,0,1,1,.17-3.775Z" transform="translate(-281.594 -264.867)"/>
        <path id="Trazado_990815" data-name="Trazado 990815" d="M354.845,333.519a3.181,3.181,0,1,0,3.181-3.181A3.185,3.185,0,0,0,354.845,333.519Zm4.458,0a1.277,1.277,0,1,1-1.277-1.277A1.278,1.278,0,0,1,359.3,333.519Z" transform="translate(-309.792 -293.065)"/>
        <path id="Trazado_990816" data-name="Trazado 990816" d="M61.227,73.485H58.9a.317.317,0,0,1-.293-.2l-.256-.618a.316.316,0,0,1,.069-.346l1.644-1.644a2.225,2.225,0,0,0,0-3.142L57.92,65.393a2.207,2.207,0,0,0-.635-.441v-10.6a8.825,8.825,0,1,0-9.41-11.743H42.168a1.589,1.589,0,0,0-1.587-1.58H35.487l-3.436-3.248a1.588,1.588,0,0,0-2.181,0l-3.436,3.248H21.341a1.589,1.589,0,0,0-1.587,1.58H18.537a.952.952,0,1,0,0,1.9h1.217v2.832l-1.7,1.609H6.542V45.464a.953.953,0,0,1,.952-.952h6.6a.952.952,0,0,0,0-1.9h-6.6a2.86,2.86,0,0,0-2.857,2.857V63.541H1.587A1.589,1.589,0,0,0,0,65.128V77.682a1.589,1.589,0,0,0,1.587,1.587h3.05v2.547a2.86,2.86,0,0,0,2.857,2.857h7.922v6.379A1.39,1.39,0,0,0,16.8,92.439H30.036a1.39,1.39,0,0,0,1.388-1.388V84.672h4.432A2.223,2.223,0,0,0,36.4,86.91l2.146,2.146a2.225,2.225,0,0,0,3.142,0l1.644-1.644a.317.317,0,0,1,.346-.069l.618.256a.317.317,0,0,1,.2.294v2.325a2.224,2.224,0,0,0,2.222,2.222h3.034a2.224,2.224,0,0,0,2.222-2.222V87.892a.316.316,0,0,1,.2-.293l.619-.256a.316.316,0,0,1,.346.069l1.644,1.644a2.225,2.225,0,0,0,3.142,0l2.146-2.146a2.225,2.225,0,0,0,0-3.142l-1.644-1.644a.317.317,0,0,1-.069-.346l.256-.618a.316.316,0,0,1,.293-.2h2.325a2.224,2.224,0,0,0,2.222-2.222V75.707a2.225,2.225,0,0,0-2.222-2.222ZM49.751,62.009H48.5V53.742a.952.952,0,0,0-.3-.692l-2.32-2.193H49.1a8.825,8.825,0,0,0,6.283,3.527V64.966a2.207,2.207,0,0,0-.6.426l-1.644,1.644a.316.316,0,0,1-.346.069l-.618-.256a.317.317,0,0,1-.2-.293V64.231a2.224,2.224,0,0,0-2.222-2.222ZM42.168,49.965,46.13,53.71l-3.962,3.421ZM56.18,52.518a6.879,6.879,0,0,1-3.8-1.138,5.883,5.883,0,0,1,1.6-2.011,4.491,4.491,0,0,0,4.4,0,5.883,5.883,0,0,1,1.6,2.011,6.878,6.878,0,0,1-3.8,1.138Zm-2.6-7.08a2.6,2.6,0,1,1,2.6,2.6A2.6,2.6,0,0,1,53.579,45.438Zm2.6-6.763a6.916,6.916,0,0,1,5.259,11.415,7.741,7.741,0,0,0-1.62-2,4.505,4.505,0,1,0-7.279,0,7.741,7.741,0,0,0-1.62,2A6.916,6.916,0,0,1,56.18,38.675ZM48.018,48.953H43.87l-1.7-1.609V44.512h5.254a8.746,8.746,0,0,0,.6,4.441ZM46.6,55.823v6.192a2.223,2.223,0,0,0-2.1,2.216v2.325a.317.317,0,0,1-.2.293l-.619.256a.317.317,0,0,1-.346-.069l-1.644-1.644a2.225,2.225,0,0,0-3.142,0l-.116.116-1.406-1.419ZM30.961,39.369l1.754,1.658H29.207Zm-9.3,3.563H40.264V58.777l-4.582,3.957-3.671-3.7a1.477,1.477,0,0,0-2.1,0l-3.672,3.7-4.582-3.957V42.932ZM24.9,64.089l-2.444,2.466V65.128a1.589,1.589,0,0,0-1.587-1.587H15.325V55.823Zm-5.142-6.957L15.792,53.71l3.962-3.746ZM6.542,50.857h9.5l-2.32,2.193a.952.952,0,0,0-.3.692v9.8H6.542ZM18.831,65.445l-7.6,6.217-7.6-6.217ZM20.548,66.5v9.735l-5.791-5ZM1.9,66.5,7.7,71.235l-5.791,5Zm7.288,5.957,1.432,1.17a.952.952,0,0,0,1.205,0l1.432-1.17,5.68,4.906H3.512Zm11.34,14.174L17.32,89.406v-5.4Zm-1.495-3.681H27.8L23.42,86.533Zm-.11,7.583,3.1-2.678.788.644a.952.952,0,0,0,1.205,0l.788-.644,3.1,2.678Zm10.592-1.128-3.212-2.774,3.212-2.625Zm.516-8.36H16.8a1.39,1.39,0,0,0-1.388,1.388v.334H7.494a.953.953,0,0,1-.952-.952V79.269H20.866a1.589,1.589,0,0,0,1.587-1.587v-.668h2.305a.952.952,0,0,0,0-1.9H22.453V69.261l8.508-8.586,6.125,6.18-.683.683a2.225,2.225,0,0,0,0,3.142l1.644,1.644a.316.316,0,0,1,.069.346l-.256.618a.316.316,0,0,1-.293.2H35.241A2.224,2.224,0,0,0,33.1,75.109H29.2a.952.952,0,1,0,0,1.9h3.817v1.728a2.224,2.224,0,0,0,2.222,2.222h2.325a.316.316,0,0,1,.293.2l.256.618a.316.316,0,0,1-.069.346l-.644.644H31.424v-.334a1.39,1.39,0,0,0-1.388-1.388Zm31.509-2.305a.318.318,0,0,1-.317.317H58.9a2.215,2.215,0,0,0-2.053,1.372l-.256.619a2.216,2.216,0,0,0,.482,2.42l1.644,1.644a.318.318,0,0,1,0,.449l-2.146,2.146a.317.317,0,0,1-.449,0L54.48,86.065a2.216,2.216,0,0,0-2.42-.482l-.619.256a2.215,2.215,0,0,0-1.372,2.053v2.325a.318.318,0,0,1-.317.317H46.717a.318.318,0,0,1-.317-.317V87.892a2.216,2.216,0,0,0-1.373-2.053l-.618-.256a2.216,2.216,0,0,0-2.421.482l-1.644,1.644a.317.317,0,0,1-.449,0L37.75,85.563a.317.317,0,0,1,0-.449l1.644-1.644a2.216,2.216,0,0,0,.482-2.421l-.256-.618a2.215,2.215,0,0,0-2.053-1.372H35.241a.318.318,0,0,1-.317-.317V75.707a.318.318,0,0,1,.317-.317h2.325a2.215,2.215,0,0,0,2.053-1.372l.256-.618a2.216,2.216,0,0,0-.482-2.421L37.75,69.334a.317.317,0,0,1,0-.449L39.9,66.74a.318.318,0,0,1,.449,0l1.644,1.644a2.215,2.215,0,0,0,2.42.482l.619-.256A2.215,2.215,0,0,0,46.4,66.556V64.231a.318.318,0,0,1,.317-.317h3.034a.318.318,0,0,1,.317.317v2.325a2.215,2.215,0,0,0,1.373,2.053l.618.256a2.215,2.215,0,0,0,2.42-.482l1.644-1.644a.317.317,0,0,1,.449,0l2.146,2.146a.317.317,0,0,1,0,.449l-1.644,1.644a2.215,2.215,0,0,0-.482,2.421l.256.618A2.215,2.215,0,0,0,58.9,75.389h2.325a.318.318,0,0,1,.317.317Z" transform="translate(0 -36.77)"/>
      </g>
    </g>
  </g>
</svg>
