<svg xmlns="http://www.w3.org/2000/svg" xmlns:xlink="http://www.w3.org/1999/xlink" width="108" height="108" viewBox="0 0 108 108">
  <defs>
    <filter id="Trazado_978624" x="0" y="0" width="108" height="108" filterUnits="userSpaceOnUse">
      <feOffset dy="3" input="SourceAlpha"/>
      <feGaussianBlur stdDeviation="3" result="blur"/>
      <feFlood flood-opacity="0.161"/>
      <feComposite operator="in" in2="blur"/>
      <feComposite in="SourceGraphic"/>
    </filter>
  </defs>
  <g id="Grupo_1157161" data-name="Grupo 1157161" transform="translate(-201 -320)">
    <g transform="matrix(1, 0, 0, 1, 201, 320)" filter="url(#Trazado_978624)">
      <g id="Trazado_978624-2" data-name="Trazado 978624" transform="translate(9 6)" fill="#f5e9a1">
        <path d="M 45 88.5 C 39.12687683105469 88.5 33.43022537231445 87.35007476806641 28.06830024719238 85.08217620849609 C 22.88852500915527 82.89131164550781 18.23629951477051 79.75458526611328 14.2408504486084 75.75914764404297 C 10.24541282653809 71.76370239257812 7.108687400817871 67.11147308349609 4.917825222015381 61.93170166015625 C 2.649924993515015 56.56977462768555 1.5 50.87312316894531 1.5 45 C 1.5 39.12687683105469 2.649924993515015 33.43022537231445 4.917825222015381 28.06830024719238 C 7.108687400817871 22.88852500915527 10.24541282653809 18.23629951477051 14.2408504486084 14.2408504486084 C 18.23629951477051 10.24541282653809 22.88852500915527 7.108687400817871 28.06830024719238 4.917825222015381 C 33.43022537231445 2.649924993515015 39.12687683105469 1.5 45 1.5 C 50.87312316894531 1.5 56.56977462768555 2.649924993515015 61.93170166015625 4.917825222015381 C 67.11147308349609 7.108687400817871 71.76370239257812 10.24541282653809 75.75914764404297 14.2408504486084 C 79.75458526611328 18.23629951477051 82.89131164550781 22.88852500915527 85.08217620849609 28.06830024719238 C 87.35007476806641 33.43022537231445 88.5 39.12687683105469 88.5 45 C 88.5 50.87312316894531 87.35007476806641 56.56977462768555 85.08217620849609 61.93170166015625 C 82.89131164550781 67.11147308349609 79.75458526611328 71.76370239257812 75.75914764404297 75.75914764404297 C 71.76370239257812 79.75458526611328 67.11147308349609 82.89131164550781 61.93170166015625 85.08217620849609 C 56.56977462768555 87.35007476806641 50.87312316894531 88.5 45 88.5 Z" stroke="none"/>
        <path d="M 45 3 C 39.32871246337891 3 33.82865524291992 4.110054016113281 28.65262985229492 6.299339294433594 C 23.65165710449219 8.414573669433594 19.15968322753906 11.44334411621094 15.301513671875 15.301513671875 C 11.44334411621094 19.15968322753906 8.414573669433594 23.65165710449219 6.299339294433594 28.65262985229492 C 4.110054016113281 33.82865524291992 3 39.32871246337891 3 45 C 3 50.67128753662109 4.110054016113281 56.17134475708008 6.299339294433594 61.34737396240234 C 8.414573669433594 66.34834289550781 11.44334411621094 70.84031677246094 15.301513671875 74.698486328125 C 19.15968322753906 78.55665588378906 23.65165710449219 81.58542633056641 28.65262985229492 83.70066070556641 C 33.82865524291992 85.88994598388672 39.32871246337891 87 45 87 C 50.67128753662109 87 56.17134475708008 85.88994598388672 61.34737396240234 83.70066070556641 C 66.34834289550781 81.58542633056641 70.84031677246094 78.55665588378906 74.698486328125 74.698486328125 C 78.55665588378906 70.84031677246094 81.58542633056641 66.34834289550781 83.70066070556641 61.34737396240234 C 85.88994598388672 56.17134475708008 87 50.67128753662109 87 45 C 87 39.32871246337891 85.88994598388672 33.82865524291992 83.70066070556641 28.65262985229492 C 81.58542633056641 23.65165710449219 78.55665588378906 19.15968322753906 74.698486328125 15.301513671875 C 70.84031677246094 11.44334411621094 66.34834289550781 8.414573669433594 61.34737396240234 6.299339294433594 C 56.17134475708008 4.110054016113281 50.67128753662109 3 45 3 M 45 0 C 69.85281372070312 0 90 20.14718627929688 90 45 C 90 69.85281372070312 69.85281372070312 90 45 90 C 20.14718627929688 90 0 69.85281372070312 0 45 C 0 20.14718627929688 20.14718627929688 0 45 0 Z" stroke="none" fill="#bcac89"/>
      </g>
    </g>
    <g id="proteger" transform="translate(228.5 344.5)">
      <path id="Trazado_990655" data-name="Trazado 990655" d="M87.434,284.18l-10.765,7.2-3.208-.18-.126-1.263a4.1,4.1,0,0,0-3.5-3.653l-11.382-1a21.992,21.992,0,0,1-5.3-2.453,11.705,11.705,0,0,0-5.724-1.555l-5.787-.048v14.147l16.38,6.2a4.452,4.452,0,0,0,1.9.126l.011,0,16.491-2.377a7.3,7.3,0,0,0,3.462-1.551L90.544,288.2a2.545,2.545,0,0,0-3.109-4.015Zm0,0" transform="translate(-37.16 -250.554)" fill="#fae0c1"/>
      <path id="Trazado_990656" data-name="Trazado 990656" d="M90.958,312.532a2.541,2.541,0,0,0-.233-.293l-10.84,7.96a7.3,7.3,0,0,1-3.462,1.551l-16.491,2.377-.011,0a4.458,4.458,0,0,1-1.9-.127l-16.38-6.2v5.253l16.38,6.2a4.452,4.452,0,0,0,1.9.126l.011,0L76.423,327a7.3,7.3,0,0,0,3.462-1.551l10.659-9.586A2.545,2.545,0,0,0,90.958,312.532Zm0,0" transform="translate(-37.16 -278.225)" fill="#efd0af"/>
      <path id="Trazado_990657" data-name="Trazado 990657" d="M15.406,267.287H8.6a1.113,1.113,0,0,1-1.113-1.113V245.4A1.113,1.113,0,0,1,8.6,244.285h6.8a1.113,1.113,0,0,1,1.113,1.113v20.775A1.113,1.113,0,0,1,15.406,267.287Zm0,0" transform="translate(-6.683 -217.577)" fill="#f43b45"/>
      <path id="Trazado_990658" data-name="Trazado 990658" d="M46.849,244.285h-4.13v23h4.13a1.113,1.113,0,0,0,1.113-1.113V245.4A1.113,1.113,0,0,0,46.849,244.285Zm0,0" transform="translate(-38.126 -217.577)" fill="#cf3735"/>
      <path id="Trazado_990659" data-name="Trazado 990659" d="M149.213,15.189A7.876,7.876,0,0,1,144.388,8.6a.778.778,0,0,0-.782-.707l-8.176.048h-.166l-8.176.048a.784.784,0,0,0-.774.728,7.877,7.877,0,0,1-4.753,6.636,1.124,1.124,0,0,0-.674,1.152c.375,3.589,2.561,15.81,14.478,21.307a.37.37,0,0,0,.159.034.376.376,0,0,0,.158-.036c11.85-5.636,13.893-17.881,14.227-21.475a1.129,1.129,0,0,0-.7-1.148Zm0,0" transform="translate(-107.885 -6.6)" fill="#75cff2"/>
      <path id="Trazado_990660" data-name="Trazado 990660" d="M248.693,15.189A7.876,7.876,0,0,1,243.869,8.6a.778.778,0,0,0-.782-.707l-4.5.026a7.876,7.876,0,0,0,4.848,7.266,1.136,1.136,0,0,1,.7,1.15c-.309,3.332-2.089,14.1-11.792,20.143a24.522,24.522,0,0,0,2.5,1.334.377.377,0,0,0,.159.034.37.37,0,0,0,.158-.036c11.85-5.636,13.893-17.881,14.227-21.475a1.13,1.13,0,0,0-.7-1.148Zm0,0" transform="translate(-207.365 -6.6)" fill="#53b4e4"/>
      <path id="Trazado_990661" data-name="Trazado 990661" d="M161.943,59.666c-8.154-4.425-10.519-12.634-11.2-16.662a.431.431,0,0,1,.2-.438,10.539,10.539,0,0,0,4.563-5.993.433.433,0,0,1,.414-.31l12.191-.071a.432.432,0,0,1,.417.3,10.54,10.54,0,0,0,4.633,5.939.43.43,0,0,1,.2.436c-.63,4.036-2.9,12.272-11,16.792a.436.436,0,0,1-.419,0Zm0,0" transform="translate(-134.535 -31.855)" fill="#e1e0de"/>
      <path id="Trazado_990662" data-name="Trazado 990662" d="M245.848,42.435a10.542,10.542,0,0,1-4.633-5.939.432.432,0,0,0-.417-.3l-4.915.029a10.539,10.539,0,0,0,4.714,6.216.429.429,0,0,1,.2.435c-.564,3.607-2.435,10.57-8.613,15.237a20.624,20.624,0,0,0,2.447,1.558.436.436,0,0,0,.419,0c8.1-4.52,10.37-12.756,11-16.792a.43.43,0,0,0-.2-.435Zm0,0" transform="translate(-207.222 -31.854)" fill="#d6d6d6"/>
      <path id="Trazado_990663" data-name="Trazado 990663" d="M33.167,393.714a2.047,2.047,0,1,1-2.046-2.046A2.046,2.046,0,0,1,33.167,393.714Zm0,0" transform="translate(-25.948 -349.115)" fill="#ededed"/>
      <path id="Trazado_990664" data-name="Trazado 990664" d="M217.181,99.936a.814.814,0,0,0,1.227-.139l5.367-8.1a.806.806,0,1,0-1.344-.891l-4.836,7.3-2.687-2.552a.806.806,0,1,0-1.11,1.17Zm0,0" transform="translate(-190.588 -80.276)"/>
      <path id="Trazado_990665" data-name="Trazado 990665" d="M128.345,31.958a1.2,1.2,0,0,0,.494.108h.007a1.18,1.18,0,0,0,.5-.114c12.261-5.831,14.339-18.412,14.683-22.129a1.927,1.927,0,0,0-1.189-1.967,7.046,7.046,0,0,1-4.33-5.914A1.592,1.592,0,0,0,136.93.5h-.01L120.4.6a1.58,1.58,0,0,0-1.573,1.472,7.048,7.048,0,0,1-4.267,5.957A1.921,1.921,0,0,0,113.4,10c.388,3.713,2.613,16.269,14.942,21.956ZM115.2,9.508a8.653,8.653,0,0,0,5.239-7.3l16.471-.1a8.654,8.654,0,0,0,5.316,7.233.324.324,0,0,1,.2.329c-.323,3.483-2.258,15.229-13.587,20.733-11.394-5.37-13.465-17.093-13.83-20.573a.318.318,0,0,1,.19-.327Zm0,0" transform="translate(-101.202)"/>
      <path id="Trazado_990666" data-name="Trazado 990666" d="M143.856,39.232a.85.85,0,0,0,.99.567.807.807,0,0,0,.566-.989c-.205-.757-.378-1.524-.514-2.284a11.34,11.34,0,0,0,4.614-6.046l11.644-.068a11.339,11.339,0,0,0,4.684,5.991c-.126.762-.29,1.532-.487,2.292a.806.806,0,1,0,1.561.4c.231-.892.419-1.8.559-2.691a1.233,1.233,0,0,0-.581-1.251,9.731,9.731,0,0,1-4.279-5.485,1.247,1.247,0,0,0-1.185-.875h-.008l-12.191.071a1.247,1.247,0,0,0-1.182.889,9.731,9.731,0,0,1-4.215,5.535,1.233,1.233,0,0,0-.566,1.257c.15.892.349,1.794.59,2.683Zm0,0" transform="translate(-127.848 -25.255)"/>
      <path id="Trazado_990667" data-name="Trazado 990667" d="M179.975,147.595a.806.806,0,0,0-1.053.438,20.31,20.31,0,0,1-8.77,10.209,20.317,20.317,0,0,1-8.9-10.122.806.806,0,0,0-1.484.632,21.873,21.873,0,0,0,9.791,11.007,1.234,1.234,0,0,0,1.2-.007,21.866,21.866,0,0,0,9.654-11.1.805.805,0,0,0-.438-1.052Zm0,0" transform="translate(-142.539 -131.227)"/>
      <path id="Trazado_990668" data-name="Trazado 990668" d="M24.439,384.273a2.853,2.853,0,1,0,2.853,2.853A2.856,2.856,0,0,0,24.439,384.273Zm0,4.093a1.24,1.24,0,1,1,1.241-1.24A1.241,1.241,0,0,1,24.439,388.366Zm0,0" transform="translate(-19.265 -342.515)"/>
      <path id="Trazado_990669" data-name="Trazado 990669" d="M54.465,244.842a3.359,3.359,0,0,0-4.638-.9L39.286,251l-2.25-.126-.058-.576a4.893,4.893,0,0,0-4.194-4.372l-.042-.005-11.358-1c-.384-.06-1.614-.413-4.994-2.352a12.543,12.543,0,0,0-5.747-1.653v-2.109a1.921,1.921,0,0,0-1.92-1.92H1.92A1.922,1.922,0,0,0,0,238.811v20.775a1.922,1.922,0,0,0,1.92,1.92h6.8a1.922,1.922,0,0,0,1.92-1.92v-.572l9.928,3.76a5.552,5.552,0,0,0,2.311.17l16.5-2.378.012,0a8.111,8.111,0,0,0,3.844-1.722l.029-.025,10.654-9.583a3.359,3.359,0,0,0,.546-4.391Zm-1.62,3.189L42.2,257.6a6.5,6.5,0,0,1-3.059,1.366l-16.485,2.376-.014,0h-.008a3.621,3.621,0,0,1-1.527-.1l-10.465-3.963v-9.208a.806.806,0,0,0-1.613,0v11.5a.307.307,0,0,1-.307.307H1.92a.307.307,0,0,1-.307-.307V238.811a.307.307,0,0,1,.307-.307h6.8a.307.307,0,0,1,.307.307v5.628a.806.806,0,0,0,1.613,0v-1.9a10.922,10.922,0,0,1,4.944,1.438c4.076,2.338,5.215,2.5,5.589,2.552l.042.005,11.359,1a3.285,3.285,0,0,1,2.8,2.932l.043.43-15.208.939-.03,0a1.838,1.838,0,0,1-1.254-.656.806.806,0,1,0-1.238,1.033,3.492,3.492,0,0,0,2.349,1.23c.5.052,16.268-.982,16.268-.982l3.161.178a.8.8,0,0,0,.493-.135l10.767-7.205a1.738,1.738,0,0,1,2.12,2.746Zm0,0" transform="translate(0 -210.978)"/>
    </g>
  </g>
</svg>
