<svg xmlns="http://www.w3.org/2000/svg" xmlns:xlink="http://www.w3.org/1999/xlink" width="103" height="103" viewBox="0 0 103 103">
  <defs>
    <filter id="Trazado_978624" x="0" y="0" width="103" height="103" filterUnits="userSpaceOnUse">
      <feOffset dy="3" input="SourceAlpha"/>
      <feGaussianBlur stdDeviation="3" result="blur"/>
      <feFlood flood-opacity="0.161"/>
      <feComposite operator="in" in2="blur"/>
      <feComposite in="SourceGraphic"/>
    </filter>
  </defs>
  <g id="Grupo_1157165" data-name="Grupo 1157165" transform="translate(-202 -6012)">
    <g transform="matrix(1, 0, 0, 1, 202, 6012)" filter="url(#Trazado_978624)">
      <g id="Trazado_978624-2" data-name="Trazado 978624" transform="translate(9 6)" fill="#f5e9a1">
        <path d="M 42.5 83.5 C 36.96437835693359 83.5 31.59512901306152 82.41617584228516 26.54141235351562 80.27863311767578 C 21.65934181213379 78.21369171142578 17.27447128295898 75.25723266601562 13.50862312316895 71.49137878417969 C 9.742764472961426 67.72553253173828 6.786305904388428 63.34066009521484 4.721364498138428 58.45858764648438 C 2.583823442459106 53.40486907958984 1.5 48.03562164306641 1.5 42.5 C 1.5 36.96437835693359 2.583823442459106 31.59512901306152 4.721364498138428 26.54141235351562 C 6.786305904388428 21.65934181213379 9.742764472961426 17.27447128295898 13.50862312316895 13.50862312316895 C 17.27447128295898 9.742764472961426 21.65934181213379 6.786305904388428 26.54141235351562 4.721364498138428 C 31.59512901306152 2.583823442459106 36.96437835693359 1.5 42.5 1.5 C 48.03562164306641 1.5 53.40486907958984 2.583823442459106 58.45858764648438 4.721364498138428 C 63.34066009521484 6.786305904388428 67.72553253173828 9.742764472961426 71.49137878417969 13.50862312316895 C 75.25723266601562 17.27447128295898 78.21369171142578 21.65934181213379 80.27863311767578 26.54141235351562 C 82.41617584228516 31.59512901306152 83.5 36.96437835693359 83.5 42.5 C 83.5 48.03562164306641 82.41617584228516 53.40486907958984 80.27863311767578 58.45858764648438 C 78.21369171142578 63.34066009521484 75.25723266601562 67.72553253173828 71.49137878417969 71.49137878417969 C 67.72553253173828 75.25723266601562 63.34066009521484 78.21369171142578 58.45858764648438 80.27863311767578 C 53.40486907958984 82.41617584228516 48.03562164306641 83.5 42.5 83.5 Z" stroke="none"/>
        <path d="M 42.5 3 C 37.16621398925781 3 31.99356079101562 4.043960571289062 27.125732421875 6.102882385253906 C 22.42246627807617 8.092185974121094 18.19785308837891 10.94070434570312 14.56928253173828 14.56928253173828 C 10.94070434570312 18.19785308837891 8.092185974121094 22.42246627807617 6.102882385253906 27.125732421875 C 4.043960571289062 31.99356079101562 3 37.16621398925781 3 42.5 C 3 47.83378601074219 4.043960571289062 53.00643920898438 6.102882385253906 57.87425231933594 C 8.092185974121094 62.57753372192383 10.94070434570312 66.80213165283203 14.56928253173828 70.43071746826172 C 18.19786834716797 74.05929565429688 22.42246627807617 76.90781402587891 27.125732421875 78.89711761474609 C 31.99356079101562 80.95603942871094 37.16621398925781 82 42.5 82 C 47.83378601074219 82 53.00642395019531 80.95603942871094 57.87425231933594 78.89711761474609 C 62.57753372192383 76.90781402587891 66.80213165283203 74.05929565429688 70.43071746826172 70.43071746826172 C 74.05929565429688 66.80213165283203 76.90781402587891 62.57753372192383 78.89711761474609 57.87425231933594 C 80.95603942871094 53.00642395019531 82 47.83378601074219 82 42.5 C 82 37.16621398925781 80.95603942871094 31.99356079101562 78.89711761474609 27.125732421875 C 76.90781402587891 22.42246627807617 74.05929565429688 18.19786834716797 70.43071746826172 14.56928253173828 C 66.80213165283203 10.94070434570312 62.57753372192383 8.092185974121094 57.87425231933594 6.102882385253906 C 53.00643920898438 4.043960571289062 47.83378601074219 3 42.5 3 M 42.5 0 C 65.97209167480469 0 85 19.02789306640625 85 42.5 C 85 65.97209167480469 65.97209167480469 85 42.5 85 C 19.02789306640625 85 0 65.97209167480469 0 42.5 C 0 19.02789306640625 19.02789306640625 0 42.5 0 Z" stroke="none" fill="#bcac89"/>
      </g>
    </g>
    <g id="juez" transform="translate(217.618 6024.146)">
      <g id="Grupo_1145530" data-name="Grupo 1145530" transform="translate(1.051 1.051)">
        <g id="Grupo_1145500" data-name="Grupo 1145500" transform="translate(9.77)">
          <g id="Grupo_1145478" data-name="Grupo 1145478" transform="translate(9.233)">
            <path id="Trazado_979580" data-name="Trazado 979580" d="M146.582,47.937h3.429l.513-.192V42.718a13.058,13.058,0,0,0,19.007,0v5.027l.513.192h3.429a3.5,3.5,0,0,0,3.5-3.5V22.217A14.717,14.717,0,0,0,162.259,7.5H157.8a14.717,14.717,0,0,0-14.717,14.717V44.433A3.5,3.5,0,0,0,146.582,47.937Z" transform="translate(-143.078 -7.5)" fill="#554e56"/>
          </g>
          <g id="Grupo_1145481" data-name="Grupo 1145481" transform="translate(24.174 0)">
            <g id="Grupo_1145479" data-name="Grupo 1145479">
              <path id="Trazado_979581" data-name="Trazado 979581" d="M260.363,21.446H262.1a2.8,2.8,0,0,1,2.8,2.8v3.883h.713a4.557,4.557,0,0,1,3.017,1.137V22.217A14.717,14.717,0,0,0,253.917,7.5h-4.239A15.221,15.221,0,0,1,260.363,21.446Z" transform="translate(-249.678 -7.5)" fill="#433f43"/>
            </g>
            <g id="Grupo_1145480" data-name="Grupo 1145480" transform="translate(11.511 28.648)">
              <path id="Trazado_979582" data-name="Trazado 979582" d="M331.8,223.486l.513.192h3.429a3.5,3.5,0,0,0,3.5-3.5v-8.285a4.557,4.557,0,0,1-3.017,1.137h-1.194a13.2,13.2,0,0,1-3.235,5.642v4.818Z" transform="translate(-331.801 -211.889)" fill="#433f43"/>
            </g>
          </g>
          <g id="Grupo_1145484" data-name="Grupo 1145484" transform="translate(7.674 20.633)">
            <g id="Grupo_1145482" data-name="Grupo 1145482">
              <path id="Trazado_979583" data-name="Trazado 979583" d="M137.382,160.314v-4.446a2.641,2.641,0,0,1,.271-1.163h-1.124a4.576,4.576,0,0,0,0,9.152h1.341A13.045,13.045,0,0,1,137.382,160.314Z" transform="translate(-131.953 -154.705)" fill="#ffb09e"/>
            </g>
            <g id="Grupo_1145483" data-name="Grupo 1145483" transform="translate(31.099)">
              <path id="Trazado_979584" data-name="Trazado 979584" d="M355.176,154.705h-.853v5.609a13.047,13.047,0,0,1-.488,3.543h1.341a4.576,4.576,0,1,0,0-9.152Z" transform="translate(-353.835 -154.705)" fill="#f89580"/>
            </g>
          </g>
          <g id="Grupo_1145499" data-name="Grupo 1145499" transform="translate(0 13.946)">
            <g id="Grupo_1145498" data-name="Grupo 1145498">
              <path id="Trazado_979585" data-name="Trazado 979585" d="M446.3,354.472h5.28l-1.682-11.03a8.41,8.41,0,0,0-5.365-6.608l-.14-.052v11.384H446.3a.7.7,0,0,1,.7.7v4.906A.7.7,0,0,1,446.3,354.472Z" transform="translate(-392.927 -304.574)" fill="#0067c5"/>
              <path id="Trazado_979586" data-name="Trazado 979586" d="M109.132,317.528v-4.906a.7.7,0,0,1,.7-.7H128.81V300.59l-15.921-5.96h-.158l-8.973,17.12a.42.42,0,0,1-.745,0l-8.973-17.12h-.158l-8.821,3.3A1.919,1.919,0,0,1,83.81,299.8a2.915,2.915,0,0,0-1.7,1.759l-.5,1.375.494.18a1.147,1.147,0,0,1,.685,1.471l-2.3,6.319a1.146,1.146,0,0,1-1.471.685l-.494-.18-.5,1.375a2.915,2.915,0,0,0,.171,2.443,1.916,1.916,0,0,1-.979,2.736l.05.271h32.579A.7.7,0,0,1,109.132,317.528Z" transform="translate(-77.204 -268.331)" fill="#004281"/>
              <g id="Grupo_1145485" data-name="Grupo 1145485" transform="translate(29.604 26.299)">
                <path id="Trazado_979587" data-name="Trazado 979587" d="M294.5,294.63l-.792,1.209-5.289,10.091h22v-5.34Z" transform="translate(-288.419 -294.63)" fill="#0055a3"/>
              </g>
              <g id="Grupo_1145486" data-name="Grupo 1145486" transform="translate(34.199 26.299)">
                <path id="Trazado_979588" data-name="Trazado 979588" d="M338.6,305.93v-5.34l-15.921-5.96h-.158l-1.328,2.534,12.124,4.539a1.4,1.4,0,0,1,.91,1.313v2.915Z" transform="translate(-321.197 -294.63)" fill="#004281"/>
              </g>
              <g id="Grupo_1145487" data-name="Grupo 1145487" transform="translate(4.401 26.299)">
                <path id="Trazado_979589" data-name="Trazado 979589" d="M111.945,298.656a1.915,1.915,0,0,1-1.136,1.141,2.915,2.915,0,0,0-1.7,1.759l-.5,1.375.494.18a1.147,1.147,0,0,1,.685,1.471l-.492,1.348h17.671l-5.289-10.091-.792-1.209-8.821,3.3A1.912,1.912,0,0,1,111.945,298.656Z" transform="translate(-108.604 -294.63)" fill="#0055a3"/>
              </g>
              <g id="Grupo_1145489" data-name="Grupo 1145489" transform="translate(47.233 37.599)">
                <g id="Grupo_1145488" data-name="Grupo 1145488">
                  <path id="Trazado_979590" data-name="Trazado 979590" d="M414.19,375.252h4.374v5.992H414.19Z" transform="translate(-414.19 -375.252)" fill="#00366d"/>
                </g>
              </g>
              <g id="Grupo_1145491" data-name="Grupo 1145491" transform="translate(19.236 26.456)">
                <g id="Grupo_1145490" data-name="Grupo 1145490">
                  <path id="Trazado_979591" data-name="Trazado 979591" d="M221.876,295.908a.841.841,0,0,0-.971,0l-6.46,4.568,6.573,12.542a.42.42,0,0,0,.745,0l6.573-12.542Z" transform="translate(-214.445 -295.754)" fill="#fff"/>
                </g>
              </g>
              <g id="Grupo_1145492" data-name="Grupo 1145492" transform="translate(23.995 28.922)">
                <path id="Trazado_979592" data-name="Trazado 979592" d="M254.343,313.35,248.4,324.687l1.814,3.461a.42.42,0,0,0,.745,0l6.573-12.542Z" transform="translate(-248.401 -313.35)" fill="#f9f3f1"/>
              </g>
              <g id="Grupo_1145493" data-name="Grupo 1145493" transform="translate(16.678 21.272)">
                <path id="Trazado_979593" data-name="Trazado 979593" d="M205.7,262.868a13.044,13.044,0,0,1-9.5-4.1v5.027l2.623,5.005,6.475-4.579a.7.7,0,0,1,.809,0l6.475,4.579,2.623-5.005v-5.027A13.044,13.044,0,0,1,205.7,262.868Z" transform="translate(-196.198 -258.765)" fill="#f9f3f1"/>
              </g>
              <g id="Grupo_1145495" data-name="Grupo 1145495" transform="translate(29.871 21.272)">
                <g id="Grupo_1145494" data-name="Grupo 1145494">
                  <path id="Trazado_979594" data-name="Trazado 979594" d="M291.764,261.818v1.629a1.4,1.4,0,0,1-.16.651l-1.281,2.443,3.191,2.256,2.623-5.005v-5.027A13.136,13.136,0,0,1,291.764,261.818Z" transform="translate(-290.323 -258.765)" fill="#efe2dd"/>
                </g>
              </g>
              <g id="Grupo_1145496" data-name="Grupo 1145496" transform="translate(12.962 0)">
                <path id="Trazado_979595" data-name="Trazado 979595" d="M169.685,114.849V119.3a13.219,13.219,0,0,0,26.439,0V109.8a2.8,2.8,0,0,0-2.8-2.8h-6.244a2.8,2.8,0,0,0-2.45,1.442l-.179.322a6.38,6.38,0,0,1-5.577,3.282h-6.382a2.8,2.8,0,0,0-2.8,2.8Z" transform="translate(-169.685 -107)" fill="#ffcebf"/>
              </g>
              <g id="Grupo_1145497" data-name="Grupo 1145497" transform="translate(24.622)">
                <path id="Trazado_979596" data-name="Trazado 979596" d="M264.85,107h-3.181a2.854,2.854,0,0,1,1.735,2.625v9.662a13.46,13.46,0,0,1-10.53,13.136A13.222,13.222,0,0,0,267.653,119.3V109.8A2.8,2.8,0,0,0,264.85,107Z" transform="translate(-252.874 -107)" fill="#ffb09e"/>
              </g>
            </g>
          </g>
        </g>
        <g id="Grupo_1145523" data-name="Grupo 1145523" transform="translate(0.852 39.303)">
          <g id="Grupo_1145520" data-name="Grupo 1145520">
            <g id="Grupo_1145501" data-name="Grupo 1145501" transform="translate(16.462 13.67)">
              <path id="Trazado_979597" data-name="Trazado 979597" d="M151.712,395.743a.7.7,0,0,1-.9.418l-19.783-7.216c.01-.022.02-.043.028-.066l1.23-3.372c.008-.023.015-.046.021-.069l19.783,7.216a.7.7,0,0,1,.418.9Z" transform="translate(-131.03 -385.438)" fill="#a44f3e"/>
            </g>
            <g id="Grupo_1145502" data-name="Grupo 1145502" transform="translate(17.167 13.67)">
              <path id="Trazado_979598" data-name="Trazado 979598" d="M156.418,392.655l-19.783-7.216c-.006.023-.013.046-.021.069l-.553,1.516,18.032,6.578a.7.7,0,0,1,.418.9l-.462,1.265,1.089.4a.7.7,0,0,0,.9-.418l.8-2.19A.7.7,0,0,0,156.418,392.655Z" transform="translate(-136.061 -385.439)" fill="#883f2e"/>
            </g>
            <g id="Grupo_1145503" data-name="Grupo 1145503" transform="translate(12.365 11.34)">
              <path id="Trazado_979599" data-name="Trazado 979599" d="M103.78,368.815l2.839,1.036a1.1,1.1,0,0,1,.655,1.407l-1.23,3.372a1.1,1.1,0,0,1-1.407.655L101.8,374.25Z" transform="translate(-101.798 -368.815)" fill="#528fd8"/>
            </g>
            <g id="Grupo_1145504" data-name="Grupo 1145504" transform="translate(12.365 11.34)">
              <path id="Trazado_979600" data-name="Trazado 979600" d="M103.78,368.815l2.839,1.036a1.1,1.1,0,0,1,.655,1.407l-1.23,3.372a1.1,1.1,0,0,1-1.407.655L101.8,374.25Z" transform="translate(-101.798 -368.815)" fill="#c96e59"/>
            </g>
            <g id="Grupo_1145505" data-name="Grupo 1145505" transform="translate(13.816 11.34)">
              <path id="Trazado_979601" data-name="Trazado 979601" d="M115.52,369.85l-2.839-1.036-.531,1.457,1.36.5a1.1,1.1,0,0,1,.655,1.407l-1.075,2.946.448.163a1.1,1.1,0,0,0,1.407-.655l1.23-3.372A1.1,1.1,0,0,0,115.52,369.85Z" transform="translate(-112.15 -368.815)" fill="#bb5d4c"/>
            </g>
            <g id="Grupo_1145519" data-name="Grupo 1145519">
              <g id="Grupo_1145506" data-name="Grupo 1145506" transform="translate(0 15.261)">
                <path id="Trazado_979602" data-name="Trazado 979602" d="M13.706,401.057a2.053,2.053,0,0,1,1.219-1.224,2.785,2.785,0,0,0,1.62-1.676l.5-1.364,6.893,2.515-.5,1.364A2.786,2.786,0,0,0,23.6,403a2.059,2.059,0,0,1-2.5,2.951l-6.168-2.25A2.06,2.06,0,0,1,13.706,401.057Z" transform="translate(-13.58 -396.793)" fill="#0573ce"/>
              </g>
              <g id="Grupo_1145507" data-name="Grupo 1145507" transform="translate(0 15.261)">
                <path id="Trazado_979603" data-name="Trazado 979603" d="M13.706,401.057a2.053,2.053,0,0,1,1.219-1.224,2.785,2.785,0,0,0,1.62-1.676l.5-1.364,6.893,2.515-.5,1.364A2.786,2.786,0,0,0,23.6,403a2.059,2.059,0,0,1-2.5,2.951l-6.168-2.25A2.06,2.06,0,0,1,13.706,401.057Z" transform="translate(-13.58 -396.793)" fill="#a44f3e"/>
              </g>
              <g id="Grupo_1145509" data-name="Grupo 1145509" transform="translate(6.242 16.724)">
                <g id="Grupo_1145508" data-name="Grupo 1145508">
                  <path id="Trazado_979604" data-name="Trazado 979604" d="M61.727,409.642l.5-1.364-2.884-1.052L58.3,409.642a2.785,2.785,0,0,0,.161,2.325,2.052,2.052,0,0,1-.349,2.484l1.281.467a2.059,2.059,0,0,0,2.5-2.951A2.785,2.785,0,0,1,61.727,409.642Z" transform="translate(-58.111 -407.226)" fill="#883f2e"/>
                </g>
              </g>
              <g id="Grupo_1145510" data-name="Grupo 1145510" transform="translate(1.344 15.261)">
                <path id="Trazado_979605" data-name="Trazado 979605" d="M24.79,398.157l.5-1.364,6.893,2.515-.5,1.364A2.786,2.786,0,0,0,31.844,403l-8.675-3.164A2.786,2.786,0,0,0,24.79,398.157Z" transform="translate(-23.169 -396.793)" fill="#c96e59"/>
              </g>
              <g id="Grupo_1145512" data-name="Grupo 1145512" transform="translate(6.251 16.724)">
                <g id="Grupo_1145511" data-name="Grupo 1145511">
                  <path id="Trazado_979606" data-name="Trazado 979606" d="M61.786,409.642l.5-1.364L59.4,407.226l-1.042,2.416a2.953,2.953,0,0,0-.178.951l3.768,1.374A2.786,2.786,0,0,1,61.786,409.642Z" transform="translate(-58.179 -407.226)" fill="#bb5d4c"/>
                </g>
              </g>
              <g id="Grupo_1145513" data-name="Grupo 1145513" transform="translate(6.561)">
                <path id="Trazado_979607" data-name="Trazado 979607" d="M60.39,294.676l.5-1.364a2.785,2.785,0,0,0-.161-2.325,2.059,2.059,0,0,1,2.5-2.951l6.168,2.25a2.059,2.059,0,0,1,.011,3.865,2.785,2.785,0,0,0-1.62,1.676l-.5,1.364Z" transform="translate(-60.39 -287.91)" fill="#0573ce"/>
              </g>
              <g id="Grupo_1145514" data-name="Grupo 1145514" transform="translate(6.561)">
                <path id="Trazado_979608" data-name="Trazado 979608" d="M60.39,294.676l.5-1.364a2.785,2.785,0,0,0-.161-2.325,2.059,2.059,0,0,1,2.5-2.951l6.168,2.25a2.059,2.059,0,0,1,.011,3.865,2.785,2.785,0,0,0-1.62,1.676l-.5,1.364Z" transform="translate(-60.39 -287.91)" fill="#a44f3e"/>
              </g>
              <g id="Grupo_1145515" data-name="Grupo 1145515" transform="translate(10.514 1.684)">
                <path id="Trazado_979609" data-name="Trazado 979609" d="M93.64,300.613l-1.9-.691a2.059,2.059,0,0,1-.952,3.139,2.785,2.785,0,0,0-1.62,1.675l-.58,1.71,2.94,1.073.5-1.364a2.785,2.785,0,0,1,1.62-1.675,2.059,2.059,0,0,0-.01-3.865Z" transform="translate(-88.592 -299.922)" fill="#883f2e"/>
              </g>
              <g id="Grupo_1145517" data-name="Grupo 1145517" transform="translate(6.561 3.076)">
                <g id="Grupo_1145516" data-name="Grupo 1145516">
                  <path id="Trazado_979610" data-name="Trazado 979610" d="M60.39,313.546l.5-1.364a2.786,2.786,0,0,0-.161-2.325l8.675,3.164a2.785,2.785,0,0,0-1.62,1.675l-.5,1.364Z" transform="translate(-60.39 -309.857)" fill="#c96e59"/>
                </g>
              </g>
              <g id="Grupo_1145518" data-name="Grupo 1145518" transform="translate(10.514 5.037)">
                <path id="Trazado_979611" data-name="Trazado 979611" d="M90.351,323.846a2.847,2.847,0,0,0-1.179,1.461l-.58,1.71,2.94,1.073.5-1.364a2.786,2.786,0,0,1,1.62-1.676Z" transform="translate(-88.592 -323.846)" fill="#bb5d4c"/>
              </g>
            </g>
          </g>
          <g id="Grupo_1145521" data-name="Grupo 1145521" transform="translate(2.209 6.434)">
            <path id="Trazado_979612" data-name="Trazado 979612" d="M40.99,336.671l-7.619-2.779a1.287,1.287,0,0,0-1.651.768l-2.3,6.319a1.287,1.287,0,0,0,.768,1.651l7.619,2.779a1.288,1.288,0,0,0,1.651-.768l2.3-6.319A1.287,1.287,0,0,0,40.99,336.671Z" transform="translate(-29.338 -333.814)" fill="#d8aa5e"/>
          </g>
          <g id="Grupo_1145522" data-name="Grupo 1145522" transform="translate(4.169 6.434)">
            <path id="Trazado_979613" data-name="Trazado 979613" d="M53.017,336.671,45.4,333.892a1.287,1.287,0,0,0-1.651.768l-.423,1.159,6.141,2.24a1.287,1.287,0,0,1,.768,1.65l-1.882,5.16,1.478.539a1.287,1.287,0,0,0,1.651-.768l2.3-6.319A1.287,1.287,0,0,0,53.017,336.671Z" transform="translate(-43.325 -333.814)" fill="#c99c56"/>
          </g>
        </g>
        <g id="Grupo_1145524" data-name="Grupo 1145524" transform="translate(41.698 57.537)">
          <path id="Trazado_979614" data-name="Trazado 979614" d="M326.445,424.307H305.7a.7.7,0,0,1-.7-.7V418.7a.7.7,0,0,1,.7-.7h20.744a.7.7,0,0,1,.7.7v4.906A.7.7,0,0,1,326.445,424.307Z" transform="translate(-305 -418)" fill="#fe7d43"/>
        </g>
        <g id="Grupo_1145525" data-name="Grupo 1145525" transform="translate(41.698 57.537)">
          <path id="Trazado_979615" data-name="Trazado 979615" d="M326.445,418h-2.1v2.8a.7.7,0,0,1-.7.7H305v2.1a.7.7,0,0,0,.7.7h20.744a.7.7,0,0,0,.7-.7V418.7A.7.7,0,0,0,326.445,418Z" transform="translate(-305 -418)" fill="#fd6930"/>
        </g>
        <g id="Grupo_1145526" data-name="Grupo 1145526" transform="translate(54.873 57.537)">
          <path id="Trazado_979616" data-name="Trazado 979616" d="M399,418h4.2v6.307H399Z" transform="translate(-399 -418)" fill="#d8aa5e"/>
        </g>
        <g id="Grupo_1145527" data-name="Grupo 1145527" transform="translate(54.873 61.041)">
          <path id="Trazado_979617" data-name="Trazado 979617" d="M399,443h4.2v2.8H399Z" transform="translate(-399 -443)" fill="#c99c56"/>
        </g>
        <g id="Grupo_1145528" data-name="Grupo 1145528" transform="translate(0 63.704)">
          <path id="Trazado_979618" data-name="Trazado 979618" d="M76.46,467.957H8.2a.7.7,0,0,1-.7-.7V462.7a.7.7,0,0,1,.7-.7H76.46a.7.7,0,0,1,.7.7v4.555A.7.7,0,0,1,76.46,467.957Z" transform="translate(-7.5 -462)" fill="#c96e59"/>
        </g>
        <g id="Grupo_1145529" data-name="Grupo 1145529" transform="translate(0 63.704)">
          <path id="Trazado_979619" data-name="Trazado 979619" d="M76.46,462H71.344v2.453a.7.7,0,0,1-.7.7H7.5v2.1a.7.7,0,0,0,.7.7H76.46a.7.7,0,0,0,.7-.7V462.7A.7.7,0,0,0,76.46,462Z" transform="translate(-7.5 -462)" fill="#bb5d4c"/>
        </g>
      </g>
      <g id="Grupo_1145531" data-name="Grupo 1145531" transform="translate(0 0)">
        <path id="Trazado_979620" data-name="Trazado 979620" d="M243.528,169.685a1.051,1.051,0,1,0,0-2.1,1.235,1.235,0,0,1-.266-2.441,1.657,1.657,0,0,0,1.317-1.626v-1.151a1.051,1.051,0,0,0-2.1,0v.816a3.337,3.337,0,0,0,1.051,6.5Z" transform="translate(-206.525 -138.703)"/>
        <path id="Trazado_979621" data-name="Trazado 979621" d="M216.175,158.669a1.051,1.051,0,0,0,1.051-1.051v-2.066a1.051,1.051,0,1,0-2.1,0v2.066A1.051,1.051,0,0,0,216.175,158.669Z" transform="translate(-184.972 -132.845)"/>
        <path id="Trazado_979622" data-name="Trazado 979622" d="M298.927,154.5a1.051,1.051,0,0,0-1.051,1.051v2.066a1.051,1.051,0,0,0,2.1,0v-2.066A1.051,1.051,0,0,0,298.927,154.5Z" transform="translate(-256.125 -132.845)"/>
        <path id="Trazado_979623" data-name="Trazado 979623" d="M235.051,240.6h6.307a1.051,1.051,0,0,0,0-2.1h-6.307a1.051,1.051,0,0,0,0,2.1Z" transform="translate(-201.202 -205.071)"/>
        <path id="Trazado_979624" data-name="Trazado 979624" d="M278.925,133.3a1.072,1.072,0,0,0,.132-.008l5.606-.7a1.051,1.051,0,1,0-.261-2.086l-5.606.7a1.051,1.051,0,0,0,.129,2.095Z" transform="translate(-238.927 -112.208)"/>
        <path id="Trazado_979625" data-name="Trazado 979625" d="M257.551,324.383a1.051,1.051,0,0,0,1.051-1.051v-.28a1.051,1.051,0,0,0-2.1,0v.28A1.051,1.051,0,0,0,257.551,324.383Z" transform="translate(-220.548 -276.868)"/>
        <path id="Trazado_979626" data-name="Trazado 979626" d="M258.6,356.832v-.28a1.051,1.051,0,0,0-2.1,0v.28a1.051,1.051,0,1,0,2.1,0Z" transform="translate(-220.548 -305.672)"/>
        <path id="Trazado_979627" data-name="Trazado 979627" d="M70.362,63.739l-.517-3.391a1.051,1.051,0,0,0-2.078.317L68.23,63.7H65.946V59.289a1.754,1.754,0,0,0-1.752-1.752h-.716V48.957a7.365,7.365,0,0,1,3.275,5.066l.273,1.792A1.051,1.051,0,0,0,69.1,55.5l-.273-1.792A9.469,9.469,0,0,0,62.8,46.272L52.048,42.248A4.562,4.562,0,0,0,55,37.984V30.141a5.612,5.612,0,0,0,0-7.764v-6.61A15.786,15.786,0,0,0,39.235,0H34.771A15.816,15.816,0,0,0,23.185,5.073,1.051,1.051,0,0,0,24.73,6.5,13.708,13.708,0,0,1,34.771,2.1h4.464A13.681,13.681,0,0,1,52.9,15.768v5.219a5.586,5.586,0,0,0-1.627-.344V17.8a3.859,3.859,0,0,0-3.854-3.854H41.175a3.856,3.856,0,0,0-3.369,1.983l-.179.322a5.332,5.332,0,0,1-4.658,2.741H26.587a3.852,3.852,0,0,0-3.152,1.641h-.364a5.6,5.6,0,0,0-1.965.355V15.768a13.573,13.573,0,0,1,1.131-5.45,1.051,1.051,0,0,0-1.928-.839A15.66,15.66,0,0,0,19,15.768v6.61a5.612,5.612,0,0,0,0,7.764v7.842a4.562,4.562,0,0,0,2.955,4.264l-2.47.925a3.1,3.1,0,0,0-1.662-1.431l-6.168-2.25a3.11,3.11,0,0,0-3.771,4.457A1.727,1.727,0,0,1,7.974,45.4l-.126.346a2.34,2.34,0,0,0-2.341,1.533L3.2,53.593a2.34,2.34,0,0,0,.8,2.68l-.126.346a1.727,1.727,0,0,1-1,1.05A3.11,3.11,0,0,0,2.9,63.507l.538.2H1.752A1.754,1.754,0,0,0,0,65.456v4.555a1.754,1.754,0,0,0,1.752,1.752H70.011a1.754,1.754,0,0,0,1.752-1.752V65.456a1.755,1.755,0,0,0-1.4-1.717Zm-6.518-4.1V63.7H61.181V59.639Zm-20.394-2.1A1.754,1.754,0,0,0,41.7,59.289V63.7h-1.3l.44-1.205a1.754,1.754,0,0,0-1.046-2.246L38,59.6a1.468,1.468,0,0,0,.305-.395l2.913-5.559H61.376v3.889Zm15.628,2.1V63.7h-2.1V59.639Zm-4.2,0V63.7H43.8V59.639ZM37,42.724l5.522,3.9L39.66,52.094l0,0L37,57.164,31.481,46.628ZM30.5,44.749l-1.946-3.712V38.783a14.2,14.2,0,0,0,6.618,2.662Zm8.34-3.3a14.2,14.2,0,0,0,6.618-2.662v2.254l-1.946,3.712Zm-3.426,17.21L21.68,53.647H32.786Zm3.328,3.452L38.18,63.64,19.838,56.949l.279-.766.279-.766ZM61.376,47.985v3.56H42.321l4.685-8.939Zm-10.1-20.693V22.752a3.524,3.524,0,0,1-.218,7.03,14.3,14.3,0,0,0,.218-2.489Zm-.759,4.594h.42a5.6,5.6,0,0,0,1.965-.355v6.452a2.456,2.456,0,0,1-2.453,2.453h-2.89V36.888A14.286,14.286,0,0,0,50.515,31.887Zm-25.68-9.04a1.754,1.754,0,0,1,1.752-1.752h6.382a7.436,7.436,0,0,0,6.5-3.822l.179-.322a1.753,1.753,0,0,1,1.532-.9h6.244A1.754,1.754,0,0,1,49.171,17.8v9.492a12.168,12.168,0,0,1-24.336,0V22.846ZM19.546,26.26a3.529,3.529,0,0,1,3.189-3.508c0,.032,0,.063,0,.1v4.446a14.3,14.3,0,0,0,.218,2.489A3.528,3.528,0,0,1,19.546,26.26Zm1.559,11.724V31.532a5.6,5.6,0,0,0,1.965.355h.42a14.285,14.285,0,0,0,2.957,5v3.549h-2.89A2.456,2.456,0,0,1,21.105,37.984Zm-3.264,9.6A3.106,3.106,0,0,0,19.8,45.3L27,42.606l4.685,8.939H18.91l-1.262-.46a2.347,2.347,0,0,0-.932-2.106l.127-.348a1.727,1.727,0,0,1,1-1.05Zm.916,6.2-1.23,3.373a.044.044,0,0,1-.024.026.042.042,0,0,1-.035,0l-1.73-.631L17,53.086l1.73.631A.046.046,0,0,1,18.757,53.776ZM9.644,42.069a1.008,1.008,0,0,1,1.293-.6l6.168,2.25a1.008,1.008,0,0,1,.291,1.73L9.6,42.6A1,1,0,0,1,9.644,42.069Zm5.731,4.878a4.017,4.017,0,0,0-.507.963l-.093.255L9.856,46.371l.093-.255a4.022,4.022,0,0,0,.232-1.063Zm-10.2,7.367,2.3-6.319a.231.231,0,0,1,.122-.133.232.232,0,0,1,.18-.008L15.4,50.633a.236.236,0,0,1,.141.3l-2.3,6.319a.236.236,0,0,1-.3.141L5.319,54.616a.236.236,0,0,1-.141-.3Zm5.689,4.564-.093.255a4.017,4.017,0,0,0-.232,1.063L5.348,58.3a4.019,4.019,0,0,0,.507-.962l.093-.255,1.326.484ZM3.05,61.01A1.008,1.008,0,0,1,3.328,59.8l7.794,2.843a1,1,0,0,1-.043.535.989.989,0,0,1-.438.523H9.571L3.618,61.532a1,1,0,0,1-.569-.522Zm66.611,8.65H2.1V65.806H17.8a1.051,1.051,0,1,0,0-2.1H13.118a3.1,3.1,0,0,0-.281-2.4,1.727,1.727,0,0,1-.088-1.446h0l.127-.348c.047,0,.094.006.141.006A2.348,2.348,0,0,0,14.947,58.5l1.8.657a2.137,2.137,0,0,0,2.071-.336L32.22,63.7H22.706a1.051,1.051,0,1,0,0,2.1H69.661Z" transform="translate(0 0)"/>
      </g>
    </g>
  </g>
</svg>
