<svg xmlns="http://www.w3.org/2000/svg" xmlns:xlink="http://www.w3.org/1999/xlink" width="108" height="108" viewBox="0 0 108 108">
  <defs>
    <filter id="Trazado_982419" x="0" y="0" width="108" height="108" filterUnits="userSpaceOnUse">
      <feOffset dy="3" input="SourceAlpha"/>
      <feGaussianBlur stdDeviation="3" result="blur"/>
      <feFlood flood-opacity="0.161"/>
      <feComposite operator="in" in2="blur"/>
      <feComposite in="SourceGraphic"/>
    </filter>
    <clipPath id="clip-path">
      <rect id="Rectángulo_409118" data-name="Rectángulo 409118" width="70.425" height="47.92" fill="none"/>
    </clipPath>
  </defs>
  <g id="Grupo_1151478" data-name="Grupo 1151478" transform="translate(-606 -4144)">
    <g id="Grupo_1150936" data-name="Grupo 1150936" transform="translate(0 1033.164)">
      <g id="Grupo_1150764" data-name="Grupo 1150764" transform="translate(393 2606.836)">
        <g id="Grupo_1148745" data-name="Grupo 1148745" transform="translate(12 182)">
          <g transform="matrix(1, 0, 0, 1, 201, 322)" filter="url(#Trazado_982419)">
            <g id="Trazado_982419-2" data-name="Trazado 982419" transform="translate(9 6)" fill="#fff9e4">
              <path d="M 45 88.5 C 39.12687683105469 88.5 33.43022537231445 87.35007476806641 28.06830024719238 85.08217620849609 C 22.88852500915527 82.89131164550781 18.23629951477051 79.75458526611328 14.2408504486084 75.75914764404297 C 10.24541282653809 71.76370239257812 7.108687400817871 67.11147308349609 4.917825222015381 61.93170166015625 C 2.649924993515015 56.56977462768555 1.5 50.87312316894531 1.5 45 C 1.5 39.12687683105469 2.649924993515015 33.43022537231445 4.917825222015381 28.06830024719238 C 7.108687400817871 22.88852500915527 10.24541282653809 18.23629951477051 14.2408504486084 14.2408504486084 C 18.23629951477051 10.24541282653809 22.88852500915527 7.108687400817871 28.06830024719238 4.917825222015381 C 33.43022537231445 2.649924993515015 39.12687683105469 1.5 45 1.5 C 50.87312316894531 1.5 56.56977462768555 2.649924993515015 61.93170166015625 4.917825222015381 C 67.11147308349609 7.108687400817871 71.76370239257812 10.24541282653809 75.75914764404297 14.2408504486084 C 79.75458526611328 18.23629951477051 82.89131164550781 22.88852500915527 85.08217620849609 28.06830024719238 C 87.35007476806641 33.43022537231445 88.5 39.12687683105469 88.5 45 C 88.5 50.87312316894531 87.35007476806641 56.56977462768555 85.08217620849609 61.93170166015625 C 82.89131164550781 67.11147308349609 79.75458526611328 71.76370239257812 75.75914764404297 75.75914764404297 C 71.76370239257812 79.75458526611328 67.11147308349609 82.89131164550781 61.93170166015625 85.08217620849609 C 56.56977462768555 87.35007476806641 50.87312316894531 88.5 45 88.5 Z" stroke="none"/>
              <path d="M 45 3 C 39.32871246337891 3 33.82865524291992 4.110054016113281 28.65262985229492 6.299339294433594 C 23.65165710449219 8.414573669433594 19.15968322753906 11.44334411621094 15.301513671875 15.301513671875 C 11.44334411621094 19.15968322753906 8.414573669433594 23.65165710449219 6.299339294433594 28.65262985229492 C 4.110054016113281 33.82865524291992 3 39.32871246337891 3 45 C 3 50.67128753662109 4.110054016113281 56.17134475708008 6.299339294433594 61.34737396240234 C 8.414573669433594 66.34834289550781 11.44334411621094 70.84031677246094 15.301513671875 74.698486328125 C 19.15968322753906 78.55665588378906 23.65165710449219 81.58542633056641 28.65262985229492 83.70066070556641 C 33.82865524291992 85.88994598388672 39.32871246337891 87 45 87 C 50.67128753662109 87 56.17134475708008 85.88994598388672 61.34737396240234 83.70066070556641 C 66.34834289550781 81.58542633056641 70.84031677246094 78.55665588378906 74.698486328125 74.698486328125 C 78.55665588378906 70.84031677246094 81.58542633056641 66.34834289550781 83.70066070556641 61.34737396240234 C 85.88994598388672 56.17134475708008 87 50.67128753662109 87 45 C 87 39.32871246337891 85.88994598388672 33.82865524291992 83.70066070556641 28.65262985229492 C 81.58542633056641 23.65165710449219 78.55665588378906 19.15968322753906 74.698486328125 15.301513671875 C 70.84031677246094 11.44334411621094 66.34834289550781 8.414573669433594 61.34737396240234 6.299339294433594 C 56.17134475708008 4.110054016113281 50.67128753662109 3 45 3 M 45 0 C 69.85281372070312 0 90 20.14718627929688 90 45 C 90 69.85281372070312 69.85281372070312 90 45 90 C 20.14718627929688 90 0 69.85281372070312 0 45 C 0 20.14718627929688 20.14718627929688 0 45 0 Z" stroke="none" fill="#ffc403"/>
            </g>
          </g>
        </g>
      </g>
    </g>
    <g id="Grupo_1150983" data-name="Grupo 1150983" transform="translate(624.915 4171.354)">
      <g id="Grupo_1150982" data-name="Grupo 1150982" clip-path="url(#clip-path)">
        <path id="Trazado_990017" data-name="Trazado 990017" d="M172.326,46.815v4.13c-3.82.309-5.769-4.32-9.907-2.478V44.544c3.781-2.172,5.832,3.12,9.907,2.271" transform="translate(-102.212 -27.7)" fill="#77c1d4"/>
        <path id="Trazado_990018" data-name="Trazado 990018" d="M34.511,16.131c-.535.881-4.294,6.482-4.294,6.888v4.962h6.367V19.612a3.478,3.478,0,0,1,2.156-2.287c1.856-.287,4.4.168,6.327.021l1.957,2.487,1.553-2.073a.663.663,0,0,1,.521-.441c.8-.147,3.057.23,3.562-.139L59.83,5.836c2.783-2.54,6.6.2,4.913,3.73-1.623,3.4-4.665,7.637-6.69,11.008-.207.345-1.628,2.3-1.628,2.444v4.962h3.553c.077-2.312-.1-4.653,0-6.962.057-1.248.3-1.632,1.549-2.079,3.586-1.284,4.389,2.016,6.945,1.771.593-.057,1.664-.66,1.867.386a36.414,36.414,0,0,1,0,4.959c-.218,1.358-3.279.868-4.246.471-1.532-.63-2.683-2.6-4.489-.989v2.444h3.48c.433,0,.5.637.524.956.25,2.928-.136,6.31-.082,9.262a1.323,1.323,0,0,1-.294.3H59.089V50.423c0,.676-1.564.849-1.777-.222l-.023-11.529c-.107-.021-.293-.173-.347-.173H9.49V50.2c.232,1.014-1.629.862-1.629.37V38.721L7.639,38.5H.532a1.118,1.118,0,0,1-.373-.812,60.206,60.206,0,0,1,0-8.746c.111-.947.606-1.048,1.485-.959.005-1.677-.01-3.36,0-5.037.009-1.619-.28-4.518.414-5.881.819-1.609,2.652-2.274,4.325-2.564-.2-.458-.317-1.078.153-1.4a12.945,12.945,0,0,1,2.452-.658,2.144,2.144,0,0,1,.956,4.067c-.933.474-2.963,1.115-3.2-.388-4.005.613-3.431,2.708-3.472,5.934-.025,1.972.019,3.953,0,5.925h6.811c.131-2.344-.173-4.867-.006-7.19a7.755,7.755,0,0,1,.154-1.106,4.318,4.318,0,0,1,2.508-2.3c1.782-.366,3.868.084,5.635.083.539.588,1.231,1.94,1.766,2.42.14.126.172.126.374.1l2.005-2.6,3.749-.1c.268-.082.535-.614.694-.861,2.261-3.5,4.313-7.145,6.663-10.591a3.08,3.08,0,0,1,5.329,2.519c-.118,1.15-3.6,6.386-4.442,7.776M28.589,27.981V22.574l8.62-14.188A1.4,1.4,0,0,0,34.743,7.1L27.314,18.781l-3.9.242c-.7.465-2.14,3.059-2.746,3.18a1.2,1.2,0,0,1-.895-.136L17.38,18.943c-1.243.165-3.067-.23-4.231.034a2.748,2.748,0,0,0-1.438,1.672v7.333h2.813v-4.37c0-.544,1.628-.728,1.628-.148v4.518Zm26.206,0V22.574L63.463,8.435a1.412,1.412,0,0,0-2.428-1.393l-7.347,11.61c-.785.668-2.9.05-3.927.367-.562.434-1.8,2.907-2.219,3.112a1.392,1.392,0,0,1-1.037,0c-.386-.232-1.99-3.141-2.177-3.186-1.069.179-5.015-.325-5.666.23a4.457,4.457,0,0,0-.449.736v8.073h2.813v-4.37c0-.716,1.629-.716,1.629,0v4.37ZM8.008,14.355c.069,1.133.853,1.078,1.467.342l-.124-.43c-.312-.4-.916.067-1.343.088m60.7,8c-2.923.609-4.394-3.188-7.107-1.629v2.814c2.968-1.322,4.366,2,7.107,1.778ZM63.975,36.869V29.833l-.222-.222H2.013l-.222.222v7.036Z" transform="translate(0 -3.047)" fill="#5c4b6e"/>
        <path id="Trazado_990019" data-name="Trazado 990019" d="M40.75,1.691a7.19,7.19,0,0,1,7.614,3.564c.9,1.708.331,2.86.754,4.284.222.749,1.245,1.367.415,2.124a5.54,5.54,0,0,1-2.33.644,9.979,9.979,0,0,0-1.6-.135c-.331.064-1.221.812-1.822.993a5.956,5.956,0,0,1-3.733-.182c-.42-.173-1.043-.726-1.3-.788-.375-.09-1.625.205-2.317.109a3.076,3.076,0,0,1-1.577-.791c-.469-.779.1-.929.266-1.383a12.13,12.13,0,0,0,.2-2.907A7.076,7.076,0,0,1,40.75,1.691M47.3,7.43c-1.189-5.872-9.853-5.391-10.361.592.286-.047.173-.45.544-.564a19.8,19.8,0,0,1,2.325-.043,7.31,7.31,0,0,0,2.211-.751c.57-.314,1.489-1.326,2.1-1.319.577.006,1.046,1.062,1.713,1.4.508.261,1.043.193,1.465.681M38.861,9.06a2.736,2.736,0,0,0,1.194,1.989,3.523,3.523,0,0,0,5.606-2.491L43.973,7.431A8.622,8.622,0,0,1,38.861,9.06m-1.333,1.628-.59-2.072-.15,2.073Zm9.181,0,.877-.242-.139-1.386Z" transform="translate(-21.82 -1.012)" fill="#5c4b6e"/>
        <path id="Trazado_990020" data-name="Trazado 990020" d="M114.319.087c9.772-1.323,9.606,12.927.7,12.253-7.288-.551-7.295-11.361-.7-12.253m5.364,4.554c-1.315-4.5-8.008-3.688-8.585.888a10.492,10.492,0,0,0,4.786-1.8c.587-.4.976-1.2,1.873-.787.186.086,1.759,1.91,1.926,1.7m.278,1.945a6,6,0,0,1-1.117-.437c-.484-.278-1.4-1.255-1.743-1.22-.19.019-1.211.808-1.555.978a13.966,13.966,0,0,1-4.3,1.253c.946,4.949,8.466,4.526,8.716-.574" transform="translate(-68.886 0)" fill="#5c4b6e"/>
        <path id="Trazado_990021" data-name="Trazado 990021" d="M99.878,36.926,98.326,39l-1.958-2.486c-1.931.146-4.47-.308-6.326-.021a3.478,3.478,0,0,0-2.157,2.286v8.369H81.519V42.184c0-.406,3.759-6.007,4.294-6.888a86.5,86.5,0,0,1,14.066,1.63" transform="translate(-51.301 -22.212)" fill="#ffeccd"/>
        <path id="Trazado_990022" data-name="Trazado 990022" d="M15.771,44.887a7.748,7.748,0,0,0-.154,1.106c-.167,2.323.137,4.845.006,7.189H8.812c.019-1.972-.025-3.953,0-5.925Z" transform="translate(-5.54 -28.248)" fill="#ffeccd"/>
        <path id="Trazado_990023" data-name="Trazado 990023" d="M155.769,47.729c-.1,2.309.078,4.65,0,6.962h-3.553V49.729c0-.147,1.422-2.1,1.629-2.444Z" transform="translate(-95.791 -29.757)" fill="#ffeccd"/>
        <path id="Trazado_990024" data-name="Trazado 990024" d="M58.153,36.1c-.159.247-.426.778-.694.861l-3.749.1-2.005,2.6c-.2.023-.234.022-.373-.1-.535-.48-1.227-1.833-1.766-2.42,1.76,0,4.268-.685,6.146-.887.8-.086,1.634-.138,2.442-.149" transform="translate(-31.193 -22.716)" fill="#ffeccd"/>
        <path id="Trazado_990025" data-name="Trazado 990025" d="M25.6,107.34v-11.7H73.054c.054,0,.239.151.347.173l.024,11.529Z" transform="translate(-16.111 -60.186)" fill="#ea1178"/>
        <path id="Trazado_990026" data-name="Trazado 990026" d="M67.016,78.919H4.831V71.883l.222-.222H66.794l.222.222Z" transform="translate(-3.04 -45.097)" fill="#f4a1a6"/>
        <path id="Trazado_990027" data-name="Trazado 990027" d="M48.472,30.821H36.035V26.3c0-.58-1.629-.4-1.629.148v4.37H31.593V23.488a2.748,2.748,0,0,1,1.438-1.672c1.164-.263,2.988.131,4.231-.033l2.389,3.123a1.2,1.2,0,0,0,.9.136c.606-.122,2.051-2.715,2.746-3.18l3.9-.242L54.625,9.944a1.4,1.4,0,0,1,2.466,1.283l-8.62,14.188Z" transform="translate(-19.882 -5.886)" fill="#fefeff"/>
        <path id="Trazado_990028" data-name="Trazado 990028" d="M119.67,30.8H107.529v-4.37c0-.716-1.629-.716-1.629,0V30.8h-2.813V22.723a4.461,4.461,0,0,1,.449-.736c.651-.555,4.6-.05,5.666-.23.187.046,1.792,2.954,2.177,3.186a1.39,1.39,0,0,0,1.037,0c.421-.205,1.657-2.678,2.219-3.112,1.023-.317,3.141.3,3.927-.367l7.347-11.61a1.412,1.412,0,0,1,2.428,1.393L119.67,25.389Z" transform="translate(-64.874 -5.862)" fill="#fefeff"/>
        <path id="Trazado_990029" data-name="Trazado 990029" d="M21.6,30.082c.427-.021,1.031-.489,1.343-.088l.124.43c-.613.737-1.4.791-1.467-.342" transform="translate(-13.596 -18.774)" fill="#fde275"/>
        <path id="Trazado_990030" data-name="Trazado 990030" d="M51.144,10.254c-.422-.488-.957-.42-1.465-.681-.667-.343-1.136-1.4-1.713-1.4-.613-.007-1.532,1-2.1,1.319a7.32,7.32,0,0,1-2.211.75,19.88,19.88,0,0,0-2.325.043c-.371.114-.258.517-.544.565.508-5.983,9.173-6.464,10.361-.592" transform="translate(-25.665 -3.836)" fill="#fde275"/>
        <path id="Trazado_990031" data-name="Trazado 990031" d="M45.965,18.947a8.627,8.627,0,0,0,5.112-1.628l1.688,1.127a3.523,3.523,0,0,1-5.605,2.491,2.735,2.735,0,0,1-1.194-1.989" transform="translate(-28.924 -10.899)" fill="#fefeff"/>
        <path id="Trazado_990032" data-name="Trazado 990032" d="M67.142,23.339l.738-1.628.139,1.386Z" transform="translate(-42.254 -13.663)" fill="#fde275"/>
        <path id="Trazado_990033" data-name="Trazado 990033" d="M41.118,22.586h-.74l.15-2.073Z" transform="translate(-25.41 -12.909)" fill="#fde275"/>
        <path id="Trazado_990034" data-name="Trazado 990034" d="M122.986,14.951c-.249,5.1-7.77,5.523-8.716.574a13.965,13.965,0,0,0,4.3-1.253c.344-.169,1.365-.958,1.555-.978.341-.035,1.258.942,1.743,1.22a6,6,0,0,0,1.117.437" transform="translate(-71.912 -8.366)" fill="#fefeff"/>
        <path id="Trazado_990035" data-name="Trazado 990035" d="M122.459,7.442c-.168.209-1.74-1.615-1.926-1.7-.9-.414-1.287.388-1.873.787a10.5,10.5,0,0,1-4.786,1.8c.577-4.575,7.27-5.392,8.585-.888" transform="translate(-71.662 -2.802)" fill="#fde275"/>
      </g>
    </g>
  </g>
</svg>
